<?xml version="1.0" encoding="UTF-8"?>
<svg version="1.1" xmlns="http://www.w3.org/2000/svg" width="512" height="512">
<path d="M0 0 C9.54813884 8.8100104 17.93583625 18.09710447 25.66748047 28.53857422 C26.60140625 29.77994141 26.60140625 29.77994141 27.55419922 31.04638672 C58.69151874 73.86927371 70.40477577 129.0198843 62.27685547 181.03857422 C53.55139183 232.74502544 26.05995615 279.37974144 -16.33251953 310.53857422 C-17.39212891 311.31974609 -18.45173828 312.10091797 -19.54345703 312.90576172 C-62.54767225 343.59272023 -116.34340177 355.44976705 -168.46142578 347.57373047 C-198.47180117 342.52436572 -227.66559616 331.60893772 -252.33251953 313.53857422 C-253.37279297 312.78189453 -254.41306641 312.02521484 -255.48486328 311.24560547 C-263.07265251 305.61931638 -270.0683963 299.44927659 -276.88818359 292.91992188 C-278.17053572 291.69349383 -279.46549614 290.48027935 -280.76220703 289.26904297 C-287.35624912 282.94486381 -292.85992801 275.82807487 -298.33251953 268.53857422 C-298.96029297 267.70583984 -299.58806641 266.87310547 -300.23486328 266.01513672 C-330.88008595 223.76078264 -343.23013794 168.98453268 -335.33251953 117.53857422 C-328.32774792 75.78713872 -310.16023182 38.37019389 -280.68164062 7.93457031 C-279.46502616 6.67568477 -278.26673155 5.39915667 -277.07080078 4.12060547 C-270.74884032 -2.48181165 -263.62537575 -7.98631507 -256.33251953 -13.46142578 C-255.49978516 -14.08919922 -254.66705078 -14.71697266 -253.80908203 -15.36376953 C-182.30969532 -67.21912678 -81.80902543 -63.65384991 0 0 Z M-244.33251953 7.53857422 C-245.17685547 8.17794922 -246.02119141 8.81732422 -246.89111328 9.47607422 C-284.29130553 38.81827556 -307.38460724 82.4805612 -313.11987305 129.44316101 C-316.49927529 162.74370731 -311.01717173 196.46894755 -296.33251953 226.53857422 C-295.99349609 227.2357959 -295.65447266 227.93301758 -295.30517578 228.65136719 C-290.21022015 238.99291403 -284.35556772 248.40458526 -277.33251953 257.53857422 C-276.64931641 258.44607422 -275.96611328 259.35357422 -275.26220703 260.28857422 C-246.24949398 297.35424565 -203.46705497 319.82646904 -157.15893555 326.14819336 C-150.18068069 326.86013297 -143.21636716 326.88656542 -136.20751953 326.85107422 C-135.43905701 326.84891907 -134.67059448 326.84676392 -133.87884521 326.84454346 C-87.40770552 326.63587143 -44.90660289 308.55533311 -11.33251953 276.53857422 C-10.50107422 275.77158203 -9.66962891 275.00458984 -8.81298828 274.21435547 C24.2233618 242.7791209 41.00221954 196.56974252 42.59716797 151.71044922 C43.58641593 105.26008956 26.19210664 59.92802343 -5.70751953 26.26123047 C-6.57376953 25.36275391 -7.44001953 24.46427734 -8.33251953 23.53857422 C-9.47720703 22.29914063 -9.47720703 22.29914063 -10.64501953 21.03466797 C-42.21250908 -12.1858489 -87.29953878 -27.36703406 -132.08251953 -29.65283203 C-172.34684969 -30.36505485 -212.53136609 -17.01978259 -244.33251953 7.53857422 Z " fill="#000000" transform="translate(392.33251953125,107.46142578125)"/>
<path d="M0 0 C4.09086548 2.18363766 6.53257744 4.59773231 8 9 C8.09510427 10.51143695 8.13487546 12.02669129 8.14044189 13.54110718 C8.14900711 14.93741112 8.14900711 14.93741112 8.15774536 16.36192322 C8.15886322 17.38121414 8.15998108 18.40050507 8.16113281 19.45068359 C8.16609772 20.52573654 8.17106262 21.60078949 8.17617798 22.7084198 C8.19080663 26.2717655 8.19760245 29.83506669 8.203125 33.3984375 C8.20887543 35.87081911 8.21463318 38.3432007 8.22039795 40.81558228 C8.23090964 46.00238249 8.23675136 51.18916719 8.24023438 56.37597656 C8.24572246 63.02641639 8.26975654 69.67658586 8.29820633 76.32697105 C8.31681659 81.43472902 8.32203743 86.54243758 8.32357025 91.65022659 C8.32660044 94.1022618 8.33464123 96.55429606 8.34775543 99.00629807 C8.36478344 102.43453346 8.36294347 105.86226698 8.35644531 109.29052734 C8.3656601 110.30576981 8.37487488 111.32101227 8.3843689 112.36701965 C8.33300437 121.00448009 8.33300437 121.00448009 5 125 C1.18739882 127.96535647 -2.19346542 128.83978218 -7 129 C-11.67121598 128.1147611 -15.06905764 126.9076688 -18.5 123.5625 C-20.65421459 119.8823834 -21.12441427 116.80524866 -21.13371277 112.57987976 C-21.13797775 111.70101105 -21.14224274 110.82214233 -21.14663696 109.91664124 C-21.14618378 108.96019211 -21.14573059 108.00374298 -21.14526367 107.01831055 C-21.14862228 106.00484558 -21.1519809 104.99138062 -21.15544128 103.94720459 C-21.16494737 100.59369687 -21.16689429 97.24023911 -21.16796875 93.88671875 C-21.17118179 91.55507893 -21.1745459 89.22343932 -21.17805481 86.89179993 C-21.18404538 82.00183647 -21.1858948 77.11189069 -21.18530273 72.22192383 C-21.18520117 65.9607594 -21.1988481 59.69970851 -21.21607494 53.43857098 C-21.22720267 48.62154115 -21.22922169 43.80453869 -21.22869301 38.98749733 C-21.22987216 36.67946799 -21.23429029 34.37143793 -21.24202538 32.06342125 C-21.25183977 28.83215806 -21.24894125 25.60114032 -21.24291992 22.36987305 C-21.24853943 21.41949661 -21.25415894 20.46912018 -21.25994873 19.48994446 C-21.23531243 14.27822839 -20.86092181 9.8931038 -19 5 C-13.20233809 -0.50777882 -7.81081704 -1.0759799 0 0 Z " fill="#000000" transform="translate(259,225)"/>
<path d="M0 0 C6.05061313 4.221358 6.05061313 4.221358 7.6875 7.875 C8.58504817 13.11857091 8.93887654 18.32953782 6.54296875 23.203125 C3.52655719 26.9915469 0.51932779 29.005271 -4.3125 29.875 C-10.18796817 30.341307 -14.05802178 29.84923295 -19.3125 26.875 C-23.60523245 22.95554863 -25.06472518 19.77244683 -25.37890625 14.1171875 C-25.23575857 9.28384806 -24.44832688 6.01082688 -21 2.5625 C-14.29332344 -1.648669 -7.5943763 -2.57922214 0 0 Z " fill="#000000" transform="translate(262.3125,167.125)"/>
</svg>
