<?xml version="1.0" encoding="UTF-8"?>
<svg version="1.1" xmlns="http://www.w3.org/2000/svg" width="512" height="512">
<path d="M0 0 C0.82593155 -0.00524185 1.6518631 -0.0104837 2.50282288 -0.0158844 C4.24690631 -0.02229802 5.99103303 -0.02097611 7.73510742 -0.01245117 C10.39775988 -0.00394585 13.05826279 -0.03270173 15.72070312 -0.06445312 C17.41796811 -0.06606546 19.11523688 -0.06548699 20.8125 -0.0625 C21.60534897 -0.07373398 22.39819794 -0.08496796 23.21507263 -0.09654236 C26.90978853 -0.05017454 29.03572859 0.1866592 32.30517578 2.03442383 C34.87750116 4.88171393 36.35749934 7.81637252 37.8125 11.31640625 C38.40651135 12.66163048 39.00092444 14.00667737 39.59570312 15.3515625 C40.50898199 17.45965917 41.41518226 19.57042845 42.31323242 21.68505859 C43.19074636 23.73727437 44.09373022 25.77676101 45 27.81640625 C45.25957993 28.44974884 45.51915985 29.08309143 45.78660583 29.73562622 C47.26150291 33.02191849 48.13937362 34.28398543 51.47265625 35.78027344 C52.46265625 35.99586914 53.45265625 36.21146484 54.47265625 36.43359375 C55.61863281 36.78679688 56.76460938 37.14 57.9453125 37.50390625 C59.12996094 37.85195313 60.31460937 38.2 61.53515625 38.55859375 C62.72238281 38.91179688 63.90960938 39.265 65.1328125 39.62890625 C69.00264414 40.56128674 71.9319973 41.24810761 75.54980469 39.33544922 C76.22043945 38.82900879 76.89107422 38.32256836 77.58203125 37.80078125 C78.33742188 37.24132813 79.0928125 36.681875 79.87109375 36.10546875 C80.64710938 35.5125 81.423125 34.91953125 82.22265625 34.30859375 C85.29739517 32.00514527 88.38147947 29.71492901 91.47265625 27.43359375 C92.24416016 26.8499707 93.01566406 26.26634766 93.81054688 25.66503906 C97.25336665 23.18147823 99.74944973 21.56965052 103.9609375 20.77734375 C108.72360278 21.66736351 112.45125778 23.58938103 116.66015625 25.93359375 C117.491521 26.38484619 118.32288574 26.83609863 119.17944336 27.30102539 C136.87570833 37.03817186 136.87570833 37.03817186 140.47265625 42.43359375 C140.73828125 44.69140625 140.73828125 44.69140625 140.72265625 47.55859375 C140.7175 48.698125 140.71234375 49.83765625 140.70703125 51.01171875 C140.58092745 54.57329902 140.17679783 58.06952775 139.73828125 61.60546875 C139.55217285 63.25651611 139.55217285 63.25651611 139.36230469 64.94091797 C139.10547577 67.16065363 138.81261275 69.376558 138.48144531 71.58642578 C137.71750051 77.45050021 137.71750051 77.45050021 140.08813477 82.61303711 C142.13156368 84.3974565 144.22107337 85.92430864 146.47265625 87.43359375 C147.80269181 88.68606292 149.12135761 89.95123018 150.41015625 91.24609375 C150.97605469 91.80941406 151.54195313 92.37273437 152.125 92.953125 C153.47265625 94.43359375 153.47265625 94.43359375 154.47265625 96.43359375 C155.19743164 96.37300781 155.92220703 96.31242187 156.66894531 96.25 C160.01978546 95.97280673 163.37119486 95.70316782 166.72265625 95.43359375 C167.8621875 95.33820313 169.00171875 95.2428125 170.17578125 95.14453125 C173.60671216 94.87161629 177.03725061 94.64227742 180.47265625 94.43359375 C181.58189453 94.35496094 182.69113281 94.27632813 183.83398438 94.1953125 C191.64081831 93.86025525 191.64081831 93.86025525 195.4140625 96.4609375 C196.43306641 97.93240234 196.43306641 97.93240234 197.47265625 99.43359375 C197.87081543 100.00094238 198.26897461 100.56829102 198.67919922 101.15283203 C199.98379576 103.06796152 201.20379554 105.01772839 202.41015625 106.99609375 C202.84183105 107.69919678 203.27350586 108.4022998 203.71826172 109.12670898 C214.53321368 126.94730603 214.53321368 126.94730603 213.47265625 134.43359375 C211.74291433 137.81058449 209.58295857 140.81213111 207.34765625 143.87109375 C206.77789062 144.67869141 206.208125 145.48628906 205.62109375 146.31835938 C201.06066726 152.74959718 201.06066726 152.74959718 198.66894531 155.53173828 C195.56905905 159.05540875 195.56905905 159.05540875 194.28637695 163.42749023 C194.53757965 165.48544895 194.97703501 167.42163676 195.47265625 169.43359375 C195.62127711 170.76565292 195.75802863 172.09909055 195.8828125 173.43359375 C196.9051074 180.81500798 196.9051074 180.81500798 200.97021484 186.8125 C204.78746125 189.3059131 208.97586212 190.92888106 213.22216797 192.54492188 C217.01492718 194.04260505 220.63796907 195.86588001 224.28515625 197.68359375 C224.96030273 198.00134766 225.63544922 198.31910156 226.33105469 198.64648438 C230.03910764 200.44651008 232.4822229 201.80365644 234.47265625 205.43359375 C234.77762266 208.34929372 234.91701641 211.04575278 234.90625 213.9609375 C234.91149185 214.78686905 234.9167337 215.6128006 234.9221344 216.46376038 C234.92854802 218.20784381 234.92722611 219.95197053 234.91870117 221.69604492 C234.91019585 224.35869738 234.93895173 227.01920029 234.97070312 229.68164062 C234.97231546 231.37890561 234.97173699 233.07617438 234.96875 234.7734375 C234.97998398 235.56628647 234.99121796 236.35913544 235.00279236 237.17601013 C234.95641673 240.87134887 234.71882946 242.99767533 232.87182617 246.26831055 C230.02397934 248.83853071 227.09399338 250.29903789 223.58984375 251.73828125 C222.24450667 252.32747469 220.89946311 252.91733869 219.5546875 253.5078125 C217.44744646 254.41457067 215.33732676 255.31291767 213.22119141 256.19873047 C211.16707821 257.06489981 209.12865414 257.96179637 207.08984375 258.86328125 C206.45650116 259.11769989 205.82315857 259.37211853 205.17062378 259.63424683 C203.12046658 260.49052122 203.12046658 260.49052122 200.47265625 262.43359375 C198.97907488 266.02206715 198.97907488 266.02206715 198.47265625 269.43359375 C199.42060059 269.70030884 199.42060059 269.70030884 200.38769531 269.97241211 C208.12294523 272.54090431 211.63372193 276.4296599 216.22265625 282.99609375 C216.90457031 283.93066406 217.58648437 284.86523438 218.2890625 285.828125 C219.69251625 287.75494462 221.08643314 289.68874699 222.47070312 291.62939453 C224.8701195 294.99033313 227.31784061 298.31344087 229.77294922 301.63378906 C230.90533208 303.16597041 232.03457282 304.70047902 233.16064453 306.23730469 C238.38957034 313.36942217 243.75163358 320.39754138 249.14453125 327.40625 C259.45201797 340.84354039 259.45201797 340.84354039 258.47265625 348.43359375 C255.18025348 353.02558552 250.3617136 354.19218641 245.21875 355.88671875 C244.32148697 356.19180359 243.42422394 356.49688843 242.49977112 356.81121826 C240.60792115 357.45196683 238.71414188 358.08704349 236.81860352 358.71679688 C233.91304548 359.68263334 231.01385753 360.66591289 228.11523438 361.65234375 C226.27508595 362.27316302 224.43460208 362.89298909 222.59375 363.51171875 C221.72495712 363.80540344 220.85616425 364.09908813 219.96104431 364.40167236 C219.15333084 364.66905212 218.34561737 364.93643188 217.51342773 365.21191406 C216.44897682 365.56687958 216.44897682 365.56687958 215.36302185 365.92901611 C213.47265625 366.43359375 213.47265625 366.43359375 210.47265625 366.43359375 C210.4815387 367.00100281 210.49042114 367.56841187 210.49957275 368.15301514 C210.58805419 374.0576368 210.64839356 379.96207021 210.69238281 385.8671875 C210.71250044 388.07104135 210.73979797 390.27484182 210.77441406 392.47851562 C210.82292458 395.64596731 210.84562361 398.81271343 210.86328125 401.98046875 C210.88392639 402.96601746 210.90457153 403.95156616 210.92584229 404.96697998 C210.92614441 405.88763245 210.92644653 406.80828491 210.92675781 407.75683594 C210.93564026 408.56513855 210.94452271 409.37344116 210.95367432 410.20623779 C210.26970397 413.37336502 209.01143277 414.44867222 206.47265625 416.43359375 C203.47581482 417.76223755 203.47581482 417.76223755 199.81811523 418.97705078 C199.12555445 419.21092876 198.43299366 419.44480675 197.71944618 419.68577194 C195.32700146 420.49058954 192.92919424 421.27813758 190.53125 422.06640625 C188.75071095 422.66154579 186.97057105 423.25788049 185.19078064 423.85525513 C181.04744497 425.24411268 176.90183485 426.6259453 172.75506592 428.0045166 C164.56291803 430.73198124 156.38340274 433.49649903 148.20361328 436.26074219 C133.46092017 441.24129408 118.71041012 446.19817209 103.95456886 451.13962936 C95.32073218 454.03131016 86.68894427 456.92883467 78.06176758 459.84033203 C70.41194888 462.42198581 62.75867367 464.99306351 55.10100073 467.55133069 C51.08345219 468.89387997 47.06773833 470.24138779 43.05616951 471.60171127 C39.31305012 472.87080081 35.5654239 474.12554875 31.81392097 475.36962891 C30.44725734 475.82556605 29.08227522 476.28658241 27.71923447 476.75323868 C11.89212117 482.16445901 2.43307543 479.91089029 -12.93286133 474.69799805 C-14.78784689 474.08091338 -16.64326697 473.46513358 -18.49908447 472.85055542 C-23.51776358 471.18429337 -28.53002992 469.49947466 -33.54122376 467.81085563 C-38.7925696 466.04448396 -44.04928851 464.29424374 -49.30534363 462.54194641 C-58.1258348 459.59870094 -66.9424508 456.6440896 -75.7565918 453.68188477 C-85.94539402 450.25776617 -96.13897333 446.84821232 -106.33549958 443.44716901 C-117.19924862 439.82351961 -128.05991842 436.1907164 -138.91944671 432.55443978 C-142.04669379 431.50787314 -145.17445671 430.46286042 -148.30231667 429.41812706 C-153.21511673 427.7765924 -158.12578376 426.12882523 -163.03486633 424.47620773 C-164.8365335 423.87069377 -166.63887955 423.26719549 -168.44194603 422.66586113 C-170.90259742 421.84480484 -173.36065824 421.01641533 -175.81819153 420.18608093 C-176.53219535 419.94968971 -177.24619918 419.7132985 -177.98183948 419.46974391 C-187.65604666 416.17618793 -187.65604666 416.17618793 -189.52734375 412.43359375 C-189.61698222 410.95258564 -189.644923 409.46759951 -189.64086914 407.98388672 C-189.64079361 407.06308319 -189.64071808 406.14227966 -189.64064026 405.193573 C-189.63547897 404.19770172 -189.63031769 403.20183044 -189.625 402.17578125 C-189.62358505 401.15759308 -189.6221701 400.13940491 -189.62071228 399.09036255 C-189.61510275 395.8297434 -189.60254863 392.56919224 -189.58984375 389.30859375 C-189.58482998 387.10156349 -189.58026686 384.89453216 -189.57617188 382.6875 C-189.56513023 377.26950794 -189.5483828 371.8515557 -189.52734375 366.43359375 C-190.07964157 366.32030731 -190.63193939 366.20702087 -191.20097351 366.09030151 C-196.56709692 364.94973571 -201.72887678 363.51494338 -206.921875 361.75390625 C-207.67651535 361.4998703 -208.4311557 361.24583435 -209.20866394 360.98410034 C-210.78671667 360.45048836 -212.36388639 359.91425829 -213.94018555 359.37548828 C-216.34751875 358.55598102 -218.76038287 357.75442505 -221.17382812 356.953125 C-222.71521419 356.42947456 -224.25624323 355.90477175 -225.796875 355.37890625 C-226.51357864 355.14334015 -227.23028229 354.90777405 -227.96870422 354.66506958 C-232.02911248 353.25293638 -234.90011546 351.8910806 -237.52734375 348.43359375 C-238.39308521 343.29866474 -237.94305017 340.54121593 -235.02734375 336.234375 C-233.87998813 334.72342077 -232.71190692 333.22805789 -231.52734375 331.74609375 C-230.90085938 330.93011719 -230.274375 330.11414063 -229.62890625 329.2734375 C-228.29309102 327.53634971 -226.94910161 325.80552198 -225.59765625 324.08056641 C-222.87550282 320.60019052 -220.20249377 317.08358097 -217.52880859 313.56591797 C-216.19306638 311.80915137 -214.85484228 310.05426913 -213.51416016 308.30126953 C-207.78840115 300.81202681 -202.18454177 293.23737978 -196.61328125 285.6328125 C-196.09942871 284.93784668 -195.58557617 284.24288086 -195.05615234 283.52685547 C-194.01378793 282.09963852 -192.99134346 280.65770997 -191.98681641 279.20361328 C-189.10966639 275.12649695 -187.06685394 272.52748895 -182.15234375 270.93359375 C-180.84136719 270.485 -180.84136719 270.485 -179.50390625 270.02734375 C-178.85164063 269.83140625 -178.199375 269.63546875 -177.52734375 269.43359375 C-178.03376238 266.02206715 -178.03376238 266.02206715 -179.52734375 262.43359375 C-181.842892 260.8458446 -183.59972523 259.8855496 -186.14453125 258.86328125 C-186.79809601 258.57429962 -187.45166077 258.28531799 -188.12503052 257.98757935 C-190.20781753 257.0701047 -192.30297636 256.18738749 -194.40234375 255.30859375 C-196.49234443 254.41866731 -198.57831974 253.52144847 -200.65823364 252.60818481 C-201.9497054 252.04258182 -203.24730675 251.49070602 -204.55148315 250.95504761 C-208.72589235 249.14629505 -211.27405269 247.41511719 -213.52734375 243.43359375 C-214.07843612 240.54861228 -214.08864177 237.73924703 -214.05859375 234.80859375 C-214.06242065 233.98407715 -214.06624756 233.15956055 -214.07019043 232.31005859 C-214.07290472 230.57192764 -214.06557733 228.8337555 -214.04882812 227.09570312 C-214.0274098 224.44177817 -214.0486443 221.79055995 -214.07421875 219.13671875 C-214.07157539 217.44400447 -214.06645022 215.75129186 -214.05859375 214.05859375 C-214.06669067 213.26888184 -214.0747876 212.47916992 -214.08312988 211.66552734 C-214.0207538 207.98354513 -213.76871402 205.85975969 -211.92431641 202.60327148 C-209.07879507 200.02757908 -206.14517335 198.54900357 -202.64453125 197.09375 C-201.29930702 196.49973865 -199.95426013 195.90532556 -198.609375 195.31054688 C-196.50127833 194.39726801 -194.39050905 193.49106774 -192.27587891 192.59301758 C-190.22366313 191.71550364 -188.18417649 190.81251978 -186.14453125 189.90625 C-185.19451736 189.51688011 -185.19451736 189.51688011 -184.22531128 189.11964417 C-180.93901901 187.64474709 -179.67695207 186.76687638 -178.18066406 183.43359375 C-177.96506836 182.44359375 -177.74947266 181.45359375 -177.52734375 180.43359375 C-177.17414063 179.28761719 -176.8209375 178.14164063 -176.45703125 176.9609375 C-176.10898438 175.77628906 -175.7609375 174.59164062 -175.40234375 173.37109375 C-175.04914063 172.18386719 -174.6959375 170.99664062 -174.33203125 169.7734375 C-173.39965076 165.90360586 -172.71282989 162.9742527 -174.62548828 159.35644531 C-175.13192871 158.68581055 -175.63836914 158.01517578 -176.16015625 157.32421875 C-176.71960938 156.56882813 -177.2790625 155.8134375 -177.85546875 155.03515625 C-178.4484375 154.25914062 -179.04140625 153.483125 -179.65234375 152.68359375 C-181.95579223 149.60885483 -184.24600849 146.52477053 -186.52734375 143.43359375 C-187.1109668 142.66208984 -187.69458984 141.89058594 -188.29589844 141.09570312 C-190.77945927 137.65288335 -192.39128698 135.15680027 -193.18359375 130.9453125 C-192.29357399 126.18264722 -190.37155647 122.45499222 -188.02734375 118.24609375 C-187.57609131 117.414729 -187.12483887 116.58336426 -186.65991211 115.72680664 C-176.92276564 98.03054167 -176.92276564 98.03054167 -171.52734375 94.43359375 C-165.33098463 93.8062394 -159.07668999 94.41781019 -152.9140625 95.15234375 C-151.81126953 95.27867188 -150.70847656 95.405 -149.57226562 95.53515625 C-147.31088734 95.80352226 -145.052799 96.10102387 -142.79882812 96.42578125 C-136.70494299 97.20537825 -136.70494299 97.20537825 -131.31225586 94.81811523 C-129.52969271 92.77627017 -128.020064 90.69300614 -126.52734375 88.43359375 C-125.27487458 87.10355819 -124.00970732 85.78489239 -122.71484375 84.49609375 C-122.15152344 83.93019531 -121.58820313 83.36429687 -121.0078125 82.78125 C-119.52734375 81.43359375 -119.52734375 81.43359375 -117.52734375 80.43359375 C-117.58792969 79.70881836 -117.64851563 78.98404297 -117.7109375 78.23730469 C-117.98813077 74.88646454 -118.25776968 71.53505514 -118.52734375 68.18359375 C-118.62273437 67.0440625 -118.718125 65.90453125 -118.81640625 64.73046875 C-119.08932121 61.29953784 -119.31866008 57.86899939 -119.52734375 54.43359375 C-119.60597656 53.32435547 -119.68460937 52.21511719 -119.765625 51.07226562 C-120.10068225 43.26543169 -120.10068225 43.26543169 -117.5 39.4921875 C-116.51902344 38.81285156 -115.53804688 38.13351563 -114.52734375 37.43359375 C-113.95999512 37.03543457 -113.39264648 36.63727539 -112.80810547 36.22705078 C-110.89297598 34.92245424 -108.94320911 33.70245446 -106.96484375 32.49609375 C-106.26174072 32.06441895 -105.5586377 31.63274414 -104.83422852 31.18798828 C-87.01363147 20.37303632 -87.01363147 20.37303632 -79.52734375 21.43359375 C-76.15035301 23.16333567 -73.14880639 25.32329143 -70.08984375 27.55859375 C-69.28224609 28.12835938 -68.47464844 28.698125 -67.64257812 29.28515625 C-61.21134032 33.84558274 -61.21134032 33.84558274 -58.42919922 36.23730469 C-54.90552875 39.33719095 -54.90552875 39.33719095 -50.53344727 40.61987305 C-48.47548855 40.36867035 -46.53930074 39.92921499 -44.52734375 39.43359375 C-43.19528458 39.28497289 -41.86184695 39.14822137 -40.52734375 39.0234375 C-33.14592952 38.0011426 -33.14592952 38.0011426 -27.1484375 33.93603516 C-24.6550244 30.11878875 -23.03205644 25.93038788 -21.41601562 21.68408203 C-19.91833245 17.89132282 -18.09505749 14.26828093 -16.27734375 10.62109375 C-15.80071289 9.60837402 -15.80071289 9.60837402 -15.31445312 8.57519531 C-11.63125548 0.98780817 -8.16350387 -0.03014958 0 0 Z M5.86474609 16.06689453 C3.13591014 15.91426976 1.84354292 16.03455183 -0.52734375 17.43359375 C-3.71617646 22.08072439 -5.77355195 27.11131583 -7.90234375 32.30859375 C-8.80111028 34.41470171 -9.70977508 36.51614545 -10.62417603 38.61550903 C-11.18868684 39.92063253 -11.74240503 41.23049191 -12.28378296 42.54537964 C-14.77649916 48.47559398 -14.77649916 48.47559398 -17.52734375 50.43359375 C-19.97583008 51.29321289 -19.97583008 51.29321289 -22.859375 51.96875 C-23.90544922 52.22076172 -24.95152344 52.47277344 -26.02929688 52.73242188 C-27.12177734 52.98443359 -28.21425781 53.23644531 -29.33984375 53.49609375 C-31.49267933 54.00573938 -33.64503942 54.51739853 -35.796875 55.03125 C-36.80959473 55.2698877 -37.82231445 55.50852539 -38.86572266 55.75439453 C-41.64883841 56.41531291 -41.64883841 56.41531291 -44.7265625 57.6171875 C-49.68186112 59.06161904 -54.11238603 59.59201252 -58.8828125 57.30371094 C-61.34993682 55.73474221 -63.68893294 54.06335554 -66.02734375 52.30859375 C-67.62074919 51.15967824 -69.21449806 50.01123887 -70.80859375 48.86328125 C-71.58074219 48.29706055 -72.35289062 47.73083984 -73.1484375 47.14746094 C-76.8688596 44.46710758 -80.6920794 41.94576063 -84.52734375 39.43359375 C-87.35190635 40.99609874 -90.15947015 42.58693028 -92.96484375 44.18359375 C-93.76728516 44.62703125 -94.56972656 45.07046875 -95.39648438 45.52734375 C-96.16025391 45.965625 -96.92402344 46.40390625 -97.7109375 46.85546875 C-98.77139282 47.45246582 -98.77139282 47.45246582 -99.85327148 48.06152344 C-101.9646135 49.79198021 -102.22524739 50.74542735 -102.52734375 53.43359375 C-102.48530745 55.75684964 -102.48530745 55.75684964 -102.1875 58.21484375 C-102.09404297 59.14039063 -102.00058594 60.0659375 -101.90429688 61.01953125 C-101.80052734 61.98117188 -101.69675781 62.9428125 -101.58984375 63.93359375 C-101.283422 66.78825831 -100.99648338 69.63609545 -100.77880859 72.49902344 C-100.56801996 75.44015013 -100.56801996 75.44015013 -100.02978516 78.34472656 C-99.46771688 83.29913278 -99.79366914 86.77194919 -102.77563477 90.81640625 C-105.32088643 93.88866144 -108.09670298 96.68975307 -110.9765625 99.44726562 C-112.77589789 101.18219964 -114.50195954 102.97214301 -116.23046875 104.77734375 C-125.55772556 114.18318707 -125.55772556 114.18318707 -132.55859375 114.26171875 C-134.55437873 114.03481976 -136.54491819 113.75705899 -138.52734375 113.43359375 C-140.7399964 113.27484136 -142.95363143 113.12930149 -145.16796875 112.99609375 C-147.3715101 112.81355186 -149.57464507 112.62603732 -151.77734375 112.43359375 C-152.91558594 112.33820313 -154.05382812 112.2428125 -155.2265625 112.14453125 C-157.99389727 111.91198211 -160.7607654 111.67494722 -163.52734375 111.43359375 C-164.80140663 113.47330487 -166.07163577 115.51524639 -167.33984375 117.55859375 C-167.69626953 118.12835938 -168.05269531 118.698125 -168.41992188 119.28515625 C-170.66669574 122.9129746 -172.67559094 126.58989234 -174.52734375 130.43359375 C-173.98376221 131.18080688 -173.98376221 131.18080688 -173.42919922 131.94311523 C-171.75176206 134.25112573 -170.07704539 136.56109768 -168.40234375 138.87109375 C-167.83257812 139.65419922 -167.2628125 140.43730469 -166.67578125 141.24414062 C-165.52261338 142.83629854 -164.37783139 144.43456146 -163.24121094 146.03857422 C-162.10891098 147.62089082 -160.94822406 149.18331551 -159.75878906 150.72314453 C-156.44514582 155.20269928 -154.72409485 158.45117235 -155.13769531 164.08984375 C-155.8684561 168.48539735 -157.0730013 172.6858809 -158.40234375 176.93359375 C-158.94399856 178.71405717 -159.48308738 180.49530337 -160.01953125 182.27734375 C-160.2834668 183.13714844 -160.54740234 183.99695313 -160.81933594 184.8828125 C-161.69432501 188.03518693 -162.24782145 191.20639431 -162.71142578 194.44335938 C-164.77940367 199.48769084 -170.47904977 201.53939559 -175.140625 203.66796875 C-175.75503952 203.95085754 -176.36945404 204.23374634 -177.00248718 204.52520752 C-178.9453332 205.41792626 -180.89243331 206.30088339 -182.83984375 207.18359375 C-184.16630999 207.79102426 -185.49248503 208.39909111 -186.81835938 209.0078125 C-190.05088974 210.49166321 -193.28900713 211.96220246 -196.52734375 213.43359375 C-196.52734375 220.69359375 -196.52734375 227.95359375 -196.52734375 235.43359375 C-194.39652344 236.40941406 -192.26570313 237.38523438 -190.0703125 238.390625 C-188.00438695 239.34223882 -185.93952701 240.29612862 -183.87475586 241.25024414 C-182.44128421 241.91116093 -181.00671983 242.56971308 -179.57104492 243.22583008 C-177.50536637 244.17036499 -175.44379136 245.1233869 -173.3828125 246.078125 C-172.74208298 246.36887405 -172.10135345 246.65962311 -171.44120789 246.95918274 C-165.44868138 249.75448891 -165.44868138 249.75448891 -163.52734375 252.43359375 C-162.66772461 254.91381836 -162.66772461 254.91381836 -161.9921875 257.8359375 C-161.74017578 258.89103516 -161.48816406 259.94613281 -161.22851562 261.03320312 C-160.97650391 262.13470703 -160.72449219 263.23621094 -160.46484375 264.37109375 C-159.95739674 266.54787524 -159.44583854 268.72370344 -158.9296875 270.8984375 C-158.70788818 271.86386475 -158.48608887 272.82929199 -158.25756836 273.82397461 C-157.28871297 277.3154519 -157.28871297 277.3154519 -155.52734375 280.43359375 C-153.10382845 281.71719883 -153.10382845 281.71719883 -150.1875 282.57421875 C-149.12466797 282.92226563 -148.06183594 283.2703125 -146.96679688 283.62890625 C-145.85240234 283.97695313 -144.73800781 284.325 -143.58984375 284.68359375 C-142.47931641 285.04710937 -141.36878906 285.410625 -140.22460938 285.78515625 C-134.48682774 287.74990471 -134.48682774 287.74990471 -128.52734375 288.43359375 C-129.81802616 283.97391877 -131.13058967 279.53921511 -132.69921875 275.16796875 C-145.93877153 238.06453072 -144.02161394 195.74560508 -127.39746094 160.00439453 C-119.62884681 143.86492343 -109.92339657 130.28875964 -97.52734375 117.43359375 C-96.81191406 116.655 -96.09648437 115.87640625 -95.359375 115.07421875 C-76.8580987 95.49688323 -50.40465595 82.79980708 -24.52734375 76.43359375 C-23.24730469 76.11261719 -21.96726563 75.79164062 -20.6484375 75.4609375 C-0.17078 70.95996745 25.18319926 71.20238221 45.47265625 76.43359375 C46.62483643 76.71565674 46.62483643 76.71565674 47.80029297 77.00341797 C85.85042246 86.536807 119.49775111 110.80239838 139.90625 144.375 C148.27515713 158.5831654 154.52536046 173.42202773 158.47265625 189.43359375 C158.95412109 191.33625 158.95412109 191.33625 159.4453125 193.27734375 C165.98672238 222.7464681 161.99445719 255.27264387 150.828125 282.9609375 C149.35145324 286.12280775 149.35145324 286.12280775 149.47265625 288.43359375 C155.67229773 287.12792007 161.78370149 285.6470792 167.84765625 283.80859375 C168.64042969 283.59847656 169.43320312 283.38835937 170.25 283.171875 C174.52470257 281.87058251 174.52470257 281.87058251 177.59326172 278.79882812 C178.43203056 276.69047068 178.98045651 274.6487272 179.47265625 272.43359375 C179.77067139 271.21712158 179.77067139 271.21712158 180.07470703 269.97607422 C180.90305411 266.49595367 181.67721678 263.00698442 182.40234375 259.50390625 C182.69625 258.22386719 182.69625 258.22386719 182.99609375 256.91796875 C183.24238525 255.76893066 183.24238525 255.76893066 183.49365234 254.59667969 C185.81573555 249.46609186 191.21883663 247.42163924 196.0859375 245.19921875 C196.70035202 244.91632996 197.31476654 244.63344116 197.94779968 244.34197998 C199.8906457 243.44926124 201.83774581 242.56630411 203.78515625 241.68359375 C205.11162249 241.07616324 206.43779753 240.46809639 207.76367188 239.859375 C210.99620224 238.37552429 214.23431963 236.90498504 217.47265625 235.43359375 C217.47265625 228.17359375 217.47265625 220.91359375 217.47265625 213.43359375 C215.34183594 212.45777344 213.21101563 211.48195312 211.015625 210.4765625 C208.94969945 209.52494868 206.88483951 208.57105888 204.82006836 207.61694336 C203.38659671 206.95602657 201.95203233 206.29747442 200.51635742 205.64135742 C198.45067887 204.69682251 196.38910386 203.7438006 194.328125 202.7890625 C193.68739548 202.49831345 193.04666595 202.20756439 192.38652039 201.90800476 C186.40181946 199.11634895 186.40181946 199.11634895 184.47265625 196.43359375 C183.61303711 193.98510742 183.61303711 193.98510742 182.9375 191.1015625 C182.68548828 190.05548828 182.43347656 189.00941406 182.17382812 187.93164062 C181.92181641 186.83916016 181.66980469 185.74667969 181.41015625 184.62109375 C180.90051062 182.46825817 180.38885147 180.31589808 179.875 178.1640625 C179.51704346 176.64498291 179.51704346 176.64498291 179.15185547 175.09521484 C178.49093709 172.31209909 178.49093709 172.31209909 177.2890625 169.234375 C175.84463096 164.27907638 175.31423748 159.84855147 177.60253906 155.078125 C179.17150779 152.61100068 180.84289446 150.27200456 182.59765625 147.93359375 C183.74657176 146.34018831 184.89501113 144.74643944 186.04296875 143.15234375 C186.60918945 142.38019531 187.17541016 141.60804688 187.75878906 140.8125 C190.43914242 137.0920779 192.96048937 133.2688581 195.47265625 129.43359375 C194.20518136 127.18164312 192.93382757 124.93203628 191.66015625 122.68359375 C191.30373047 122.049375 190.94730469 121.41515625 190.58007812 120.76171875 C190.05317383 119.83359375 190.05317383 119.83359375 189.515625 118.88671875 C189.0364563 118.03835449 189.0364563 118.03835449 188.54760742 117.17285156 C188.19287354 116.59889648 187.83813965 116.02494141 187.47265625 115.43359375 C187.0456543 114.70140625 186.61865234 113.96921875 186.17871094 113.21484375 C184.59764665 111.18270258 184.59764665 111.18270258 182.02758789 111.16308594 C180.59467407 111.32019043 180.59467407 111.32019043 179.1328125 111.48046875 C178.06869141 111.58359375 177.00457031 111.68671875 175.90820312 111.79296875 C174.23854492 111.98632812 174.23854492 111.98632812 172.53515625 112.18359375 C169.25951884 112.52819159 165.9867282 112.85724525 162.70458984 113.13378906 C159.49945345 113.39006241 159.49945345 113.39006241 156.46337891 113.94433594 C151.52885865 114.50178878 148.11981636 114.14982067 144.09594727 111.18457031 C141.01989806 108.64065917 138.21789686 105.86569657 135.45898438 102.984375 C133.72405036 101.18503961 131.93410699 99.45897796 130.12890625 97.73046875 C120.72306293 88.40321194 120.72306293 88.40321194 120.64453125 81.40234375 C120.87143024 79.40655877 121.14919101 77.41601931 121.47265625 75.43359375 C121.63140864 73.2209411 121.77694851 71.00730607 121.91015625 68.79296875 C122.09269814 66.5894274 122.28021268 64.38629243 122.47265625 62.18359375 C122.61574219 60.47623047 122.61574219 60.47623047 122.76171875 58.734375 C122.99426789 55.96704023 123.23130278 53.2001721 123.47265625 50.43359375 C121.80935066 49.345107 120.1418056 48.26309795 118.47265625 47.18359375 C117.54453125 46.5803125 116.61640625 45.97703125 115.66015625 45.35546875 C112.02469737 43.16350089 108.29285746 41.27824675 104.47265625 39.43359375 C103.97451416 39.79598145 103.47637207 40.15836914 102.96313477 40.53173828 C100.65512427 42.20917544 98.34515232 43.88389211 96.03515625 45.55859375 C95.25205078 46.12835938 94.46894531 46.698125 93.66210938 47.28515625 C92.06995146 48.43832412 90.47168854 49.58310611 88.86767578 50.71972656 C87.28535918 51.85202652 85.72293449 53.01271344 84.18310547 54.20214844 C79.70355072 57.51579168 76.45507765 59.23684265 70.81640625 58.82324219 C66.42085265 58.0924814 62.2203691 56.8879362 57.97265625 55.55859375 C56.19219283 55.01693894 54.41094663 54.47785012 52.62890625 53.94140625 C51.76910156 53.6774707 50.90929687 53.41353516 50.0234375 53.14160156 C46.87106307 52.26661249 43.69985569 51.71311605 40.46289062 51.24951172 C35.41855916 49.18153383 33.36685441 43.48188773 31.23828125 38.8203125 C30.95539246 38.20589798 30.67250366 37.59148346 30.38104248 36.95845032 C29.48832374 35.0156043 28.60536661 33.06850419 27.72265625 31.12109375 C27.11522574 29.79462751 26.50715889 28.46845247 25.8984375 27.14257812 C24.4158066 23.90958326 22.94189038 20.67270261 21.47265625 17.43359375 C16.27748015 16.91166725 11.03167097 16.79341776 5.86474609 16.06689453 Z M-77.52734375 121.43359375 C-78.33558594 122.10777344 -79.14382812 122.78195313 -79.9765625 123.4765625 C-99.49013958 140.29438639 -113.76175903 163.63044482 -120.52734375 188.43359375 C-120.72344238 189.12243652 -120.91954102 189.8112793 -121.12158203 190.52099609 C-127.16504416 212.52552337 -126.96152107 238.55053556 -120.52734375 260.43359375 C-120.31303711 261.16529785 -120.09873047 261.89700195 -119.87792969 262.65087891 C-117.40526985 270.79050077 -114.18675818 278.53905617 -110.46484375 286.18359375 C-110.14870117 286.8394043 -109.83255859 287.49521484 -109.50683594 288.17089844 C-105.09998161 296.83545202 -99.78192858 299.51292495 -90.94482422 302.4453125 C-89.87911697 302.81174362 -88.81340973 303.17817474 -87.71540833 303.55570984 C-84.19698493 304.76013439 -80.6714716 305.94186153 -77.14453125 307.12109375 C-74.68923248 307.95024119 -72.23408528 308.77983762 -69.77908325 309.60986328 C-64.63293603 311.34519626 -59.48287112 313.06821217 -54.33007812 314.78369141 C-48.39206453 316.76102852 -42.46601401 318.77152432 -36.544608 320.79799366 C-30.8279781 322.75254853 -25.10062559 324.6734645 -19.36850357 326.58218384 C-16.94046696 327.39545454 -14.51565551 328.21842247 -12.0942955 329.05136108 C-8.70046137 330.2154285 -5.29595197 331.34050544 -1.88623047 332.45703125 C-0.89570175 332.80593918 0.09482697 333.15484711 1.1153717 333.514328 C8.49138747 335.86350596 13.28743642 335.0442145 20.47265625 332.43359375 C22.19185007 331.89018101 23.9123427 331.3508598 25.63412476 330.81570435 C27.42548479 330.23044273 29.2158617 329.64216553 31.00537109 329.05126953 C31.99381012 328.72724152 32.98224915 328.4032135 34.00064087 328.06936646 C37.22948251 327.00945877 40.45674148 325.94485432 43.68359375 324.87890625 C45.34708296 324.32973352 45.34708296 324.32973352 47.04417801 323.7694664 C52.8997095 321.83534713 58.75380258 319.89693709 64.60693359 317.95556641 C69.44210311 316.35277396 74.28003918 314.75878102 79.12060547 313.17236328 C84.98620438 311.24999324 90.84678397 309.3130219 96.70402908 307.36535263 C98.93106459 306.62748325 101.15979923 305.89472154 103.39023972 305.16720963 C106.50378808 304.15040571 109.61051552 303.11491823 112.71630859 302.07470703 C113.63482605 301.77947144 114.55334351 301.48423584 115.49969482 301.18005371 C122.88288568 298.67077572 126.85122421 295.25086945 130.45214844 288.17089844 C130.76829102 287.51508789 131.08443359 286.85927734 131.41015625 286.18359375 C131.9211084 285.13413574 131.9211084 285.13413574 132.44238281 284.06347656 C136.09028408 276.38818289 139.08423785 268.58833658 141.47265625 260.43359375 C141.68438477 259.71349121 141.89611328 258.99338867 142.11425781 258.25146484 C148.24650958 236.23464015 147.70989019 210.34335142 141.47265625 188.43359375 C141.2907373 187.76666504 141.10881836 187.09973633 140.92138672 186.41259766 C135.75261329 167.87614748 125.83941233 151.05096023 113.47265625 136.43359375 C112.79589844 135.62148437 112.11914062 134.809375 111.421875 133.97265625 C88.43561529 107.33044664 54.89647972 91.94933669 20.13696289 88.70263672 C-15.65928704 86.17422926 -50.39959948 98.2647906 -77.52734375 121.43359375 Z M-178.52734375 290.43359375 C-179.45119512 291.49432619 -180.33202812 292.59254194 -181.1953125 293.703125 C-182.03026245 294.77506104 -182.03026245 294.77506104 -182.88208008 295.86865234 C-183.48689209 296.65320801 -184.0917041 297.43776367 -184.71484375 298.24609375 C-185.33834717 299.05127441 -185.96185059 299.85645508 -186.60424805 300.68603516 C-192.85248198 308.79079313 -198.90865889 317.03311052 -204.95263672 325.29052734 C-208.43824853 330.03420183 -211.98193704 334.73452295 -215.52734375 339.43359375 C-212.35147397 341.55084027 -209.25945606 342.65904644 -205.67475891 343.83804321 C-204.62348282 344.18975021 -204.62348282 344.18975021 -203.55096883 344.54856241 C-201.19855216 345.33435044 -198.84404634 346.11367922 -196.48950195 346.89306641 C-194.80422296 347.45454405 -193.11907593 348.0164179 -191.43405151 348.57865906 C-186.85513165 350.10525308 -182.27438046 351.62628267 -177.69328713 353.14633989 C-172.9075892 354.73532945 -168.12358523 356.32940243 -163.33940125 357.92294312 C-154.27775224 360.94038229 -145.21458325 363.95322902 -136.15086287 366.96443975 C-125.83300175 370.39255692 -115.51683995 373.8257736 -105.20081961 377.2594254 C-83.97821721 384.3231682 -62.75348266 391.38048571 -41.52734375 398.43359375 C-38.47615546 395.41274001 -35.62472721 392.44311693 -33.03125 389.01953125 C-32.39662842 388.18486328 -31.76200684 387.35019531 -31.1081543 386.49023438 C-30.44211182 385.60529297 -29.77606934 384.72035156 -29.08984375 383.80859375 C-28.39479736 382.89013672 -27.69975098 381.97167969 -26.98364258 381.02539062 C-22.19614909 374.68480014 -17.44135866 368.31975777 -12.71484375 361.93359375 C-12.13484619 361.15161621 -11.55484863 360.36963867 -10.95727539 359.56396484 C-10.14697876 358.4630249 -10.14697876 358.4630249 -9.3203125 357.33984375 C-8.85133545 356.70369141 -8.3823584 356.06753906 -7.89916992 355.41210938 C-6.32912402 353.14771144 -4.93622097 350.80089054 -3.52734375 348.43359375 C-26.19625011 340.86951631 -48.86572372 333.3071412 -71.53588009 325.74681091 C-82.06121964 322.2366432 -92.58637048 318.72591161 -103.11108398 315.21386719 C-112.28085683 312.15396128 -121.45097681 309.09509841 -130.62152106 306.03750515 C-135.48044633 304.41742758 -140.33919216 302.79681632 -145.19752312 301.17495728 C-149.76471444 299.65030779 -154.33236647 298.12704698 -158.9003849 296.60487747 C-160.58203785 296.04423433 -162.26351782 295.48307203 -163.94481659 294.92136765 C-166.2298807 294.15803547 -168.5155443 293.39652692 -170.80137634 292.63549805 C-171.4754885 292.40982305 -172.14960067 292.18414804 -172.84414047 291.95163441 C-175.62639781 290.88313006 -175.62639781 290.88313006 -178.52734375 290.43359375 Z M193.66037166 291.8225531 C192.65357268 292.16543486 192.65357268 292.16543486 191.62643433 292.51524353 C190.91418737 292.75123514 190.20194041 292.98722675 189.4681102 293.23036963 C187.06728604 294.02788558 184.67020588 294.83611645 182.27294922 295.64428711 C180.55860503 296.21620499 178.84404074 296.78746345 177.12927246 297.35810852 C172.46198721 298.91339042 167.79785112 300.4779286 163.1342063 302.04408717 C158.26460354 303.67767909 153.3921837 305.30282374 148.52005005 306.92884827 C139.28870109 310.01115292 130.05992863 313.10109869 120.83204663 316.19376522 C110.3287276 319.71347507 99.82258114 323.22470677 89.31618285 326.73521221 C67.69850384 333.95854469 46.08441597 341.19257205 24.47265625 348.43359375 C25.43179066 349.87889588 26.39179707 351.32361936 27.35217285 352.76809692 C27.88668312 353.57268908 28.42119339 354.37728123 28.97190094 355.20625496 C30.59432837 357.61417284 32.29150529 359.94058561 34.06640625 362.23828125 C35.01362549 363.47143066 35.01362549 363.47143066 35.97998047 364.72949219 C36.63756348 365.5805957 37.29514648 366.43169922 37.97265625 367.30859375 C44.14508331 375.33952548 50.20526821 383.4407376 56.13085938 391.65576172 C56.67419922 392.40229004 57.21753906 393.14881836 57.77734375 393.91796875 C58.25155762 394.57506836 58.72577148 395.23216797 59.21435547 395.90917969 C60.41523401 397.57367553 60.41523401 397.57367553 62.47265625 398.43359375 C64.80568648 397.81736605 67.03853557 397.12855172 69.31887817 396.35194397 C70.03112513 396.11595236 70.74337209 395.87996075 71.4772023 395.63681787 C73.87802646 394.83930192 76.27510662 394.03107105 78.67236328 393.22290039 C80.38670747 392.65098251 82.10127176 392.07972405 83.81604004 391.50907898 C88.48332529 389.95379708 93.14746138 388.3892589 97.8111062 386.82310033 C102.68070896 385.18950841 107.5531288 383.56436376 112.42526245 381.93833923 C121.65661141 378.85603458 130.88538387 375.76608881 140.11326587 372.67342228 C150.6165849 369.15371243 161.12273136 365.64248073 171.62912965 362.13197529 C193.24680866 354.90864281 214.86089653 347.67461545 236.47265625 340.43359375 C235.51352184 338.98829162 234.55351543 337.54356814 233.59313965 336.09909058 C233.05862938 335.29449842 232.52411911 334.48990627 231.97341156 333.66093254 C230.35098413 331.25301466 228.65380721 328.92660189 226.87890625 326.62890625 C226.24742676 325.80680664 225.61594727 324.98470703 224.96533203 324.13769531 C224.30774902 323.2865918 223.65016602 322.43548828 222.97265625 321.55859375 C216.80022919 313.52766202 210.74004429 305.4264499 204.81445312 297.21142578 C204.27111328 296.46489746 203.72777344 295.71836914 203.16796875 294.94921875 C202.69375488 294.29211914 202.21954102 293.63501953 201.73095703 292.95800781 C199.08821105 289.75635746 197.30828424 290.62642394 193.66037166 291.8225531 Z M1.47265625 370.43359375 C0.54880488 371.49432619 -0.33202812 372.59254194 -1.1953125 373.703125 C-1.75226807 374.41815186 -2.30922363 375.13317871 -2.88305664 375.86987305 C-3.48754639 376.65402588 -4.09203613 377.43817871 -4.71484375 378.24609375 C-5.33544678 379.04764893 -5.9560498 379.8492041 -6.59545898 380.67504883 C-14.37150864 390.76287058 -22.02609241 400.96803601 -29.3046875 411.421875 C-31.52734375 414.43359375 -31.52734375 414.43359375 -33.52734375 415.43359375 C-41.50964188 416.07919949 -47.85313582 414.06419254 -55.35913086 411.48632812 C-56.62774154 411.06151696 -57.89675602 410.63791009 -59.1661377 410.21540833 C-62.5891573 409.07242666 -66.00640869 407.91302955 -69.42287898 406.75064278 C-73.00465608 405.53538546 -76.59175669 404.33605379 -80.17835999 403.13513184 C-86.96142651 400.86137613 -93.73995345 398.57440238 -100.51678616 396.28214216 C-110.47916129 392.91295811 -120.44769425 389.56207929 -130.41693211 386.21326447 C-131.14759654 385.96781623 -131.87826096 385.722368 -132.63106674 385.46948195 C-134.08734815 384.98028761 -135.54364197 384.49113019 -136.99994856 384.00201082 C-141.26842913 382.5678601 -145.53537385 381.12924959 -149.80104339 379.68675995 C-151.81085061 379.00742351 -153.82107986 378.32935299 -155.83148193 377.65177917 C-158.28577834 376.82436558 -160.73931646 375.99469821 -163.19197083 375.16242981 C-164.26713959 374.80062119 -165.34230835 374.43881256 -166.45005798 374.06604004 C-167.38781539 373.74894325 -168.3255728 373.43184647 -169.29174709 373.10514069 C-171.45753822 372.33769742 -171.45753822 372.33769742 -173.52734375 372.43359375 C-173.52734375 382.33359375 -173.52734375 392.23359375 -173.52734375 402.43359375 C-150.87627328 409.99936482 -128.22415137 417.56197818 -105.57061958 425.12037659 C-95.05288324 428.6297303 -84.53552543 432.14021068 -74.01904297 435.65332031 C-64.85586004 438.71434697 -55.69198253 441.77328338 -46.52725494 444.82968235 C-41.67195092 446.44898823 -36.81700791 448.06935861 -31.96289444 449.69223022 C-27.3985917 451.21817304 -22.83336897 452.74132962 -18.26741028 454.26231003 C-16.58761393 454.82242628 -14.90816281 455.38357902 -13.22907639 455.94581985 C-10.94481465 456.71053466 -8.65936473 457.47158449 -6.37356567 458.23168945 C-5.70236635 458.45736445 -5.03116703 458.68303946 -4.33962834 458.91555309 C-1.00491405 460.05873218 -1.00491405 460.05873218 2.47265625 460.43359375 C2.47265625 430.73359375 2.47265625 401.03359375 2.47265625 370.43359375 C2.14265625 370.43359375 1.81265625 370.43359375 1.47265625 370.43359375 Z M18.47265625 370.43359375 C18.47265625 400.13359375 18.47265625 429.83359375 18.47265625 460.43359375 C24.77916006 458.71363816 30.89172233 457.04388261 37.05949402 454.9848175 C37.74267883 454.75765885 38.42586364 454.5305002 39.12975103 454.29645795 C41.37676333 453.54853583 43.62233575 452.79638742 45.86791992 452.04418945 C47.49505151 451.50162387 49.12227163 450.95932372 50.74957275 450.41726685 C55.1360445 448.95529972 59.52127896 447.48965397 63.90628982 446.02331185 C68.50063252 444.48767747 73.09611937 442.95547466 77.69148254 441.42289734 C86.37945856 438.52483893 95.06641096 435.62372492 103.75299388 432.7214939 C113.64827537 429.41559752 123.54470215 426.11313626 133.4412235 422.81095374 C153.78630527 416.02230426 174.12991417 409.22925075 194.47265625 402.43359375 C194.47265625 392.53359375 194.47265625 382.63359375 194.47265625 372.43359375 C185.99164032 374.70972293 185.99164032 374.70972293 177.65475464 377.31291199 C176.64294128 377.65360214 175.63112793 377.9942923 174.58865356 378.3453064 C172.98605179 378.89017197 172.98605179 378.89017197 171.35107422 379.44604492 C170.19349609 379.83662582 169.03591797 380.22720673 167.84326172 380.62962341 C165.34881696 381.47139437 162.85475488 382.31421873 160.36120224 383.15862083 C156.41102676 384.4956973 152.45847475 385.82564769 148.50540161 387.15412903 C147.14563407 387.61118528 145.78586808 388.06824613 144.42610359 388.52531147 C143.74581038 388.75397644 143.06551716 388.9826414 142.364609 389.21823561 C133.17909517 392.30632251 123.99554152 395.40010352 114.81689453 398.50854492 C108.59998344 400.61390178 102.37988743 402.70953983 96.15603364 404.79428655 C92.87201727 405.89475152 89.58982365 407.0000738 86.31151962 408.11745262 C82.65770442 409.36276495 78.99696015 410.58681491 75.33544922 411.80932617 C74.26299957 412.17864258 73.19054993 412.54795898 72.08560181 412.9284668 C65.96653858 414.94893358 60.92466164 416.00816709 54.47265625 415.43359375 C51.8046875 413.46484375 51.8046875 413.46484375 49.47265625 410.43359375 C48.76375244 409.51513672 48.76375244 409.51513672 48.04052734 408.578125 C46.37827466 406.38751902 44.76725483 404.16494674 43.16015625 401.93359375 C37.73054368 394.48342066 32.23522471 387.08816158 26.66015625 379.74609375 C25.96043701 378.81925781 25.26071777 377.89242188 24.53979492 376.9375 C23.89244385 376.08671875 23.24509277 375.2359375 22.578125 374.359375 C22.00215576 373.60052002 21.42618652 372.84166504 20.83276367 372.05981445 C20.38392822 371.52316162 19.93509277 370.98650879 19.47265625 370.43359375 C19.14265625 370.43359375 18.81265625 370.43359375 18.47265625 370.43359375 Z " fill="#000000" transform="translate(245.52734375,15.56640625)"/>
<path d="M0 0 C10.20157152 7.65937926 10.20157152 7.65937926 12.94844055 13.25712585 C14.44795243 15.89789889 14.44795243 15.89789889 17.09831238 16.32673645 C18.05095474 16.33339828 19.00359711 16.34006012 19.98510742 16.34692383 C21.06600143 16.36656693 22.14689545 16.38621002 23.26054382 16.40644836 C25.00909416 16.40054939 25.00909416 16.40054939 26.79296875 16.39453125 C27.98731033 16.40965256 29.18165192 16.42477386 30.41218567 16.44035339 C34.2333133 16.48340004 38.05365355 16.49208533 41.875 16.5 C44.46291181 16.52313091 47.05080471 16.54849328 49.63867188 16.57617188 C55.98835138 16.6391927 62.33753513 16.67139536 68.6875 16.6875 C68.6875 11.4075 68.6875 6.1275 68.6875 0.6875 C73.9675 0.6875 79.2475 0.6875 84.6875 0.6875 C84.6875 5.9675 84.6875 11.2475 84.6875 16.6875 C89.9675 16.6875 95.2475 16.6875 100.6875 16.6875 C100.6875 11.4075 100.6875 6.1275 100.6875 0.6875 C105.9675 0.6875 111.2475 0.6875 116.6875 0.6875 C116.6875 5.9675 116.6875 11.2475 116.6875 16.6875 C118.08484375 16.64109375 119.4821875 16.5946875 120.921875 16.546875 C122.76039529 16.50935418 124.5989387 16.47295435 126.4375 16.4375 C127.35789062 16.40398437 128.27828125 16.37046875 129.2265625 16.3359375 C130.11601562 16.32304687 131.00546875 16.31015625 131.921875 16.296875 C132.73881836 16.27592773 133.55576172 16.25498047 134.39746094 16.23339844 C137.73684123 16.89557833 138.76290969 17.87263775 140.6875 20.6875 C141.27213093 23.68934559 141.24809442 26.6368481 141.21875 29.6875 C141.2225769 30.56019531 141.22640381 31.43289062 141.23034668 32.33203125 C141.2330649 34.17449092 141.22570994 36.01698924 141.20898438 37.859375 C141.18757248 40.67795934 141.20878801 43.49399485 141.234375 46.3125 C141.23173171 48.10417229 141.22660669 49.89584299 141.21875 51.6875 C141.22684692 52.52925781 141.23494385 53.37101562 141.24328613 54.23828125 C141.22437317 55.41970703 141.22437317 55.41970703 141.20507812 56.625 C141.20189575 57.31464844 141.19871338 58.00429688 141.19543457 58.71484375 C140.44964402 61.61125692 138.96119084 62.79137454 136.6875 64.6875 C134.30674934 65.17296219 134.30674934 65.17296219 131.61526489 65.15264893 C130.5919104 65.15500046 129.56855591 65.15735199 128.51419067 65.15977478 C127.39720795 65.14217606 126.28022522 65.12457733 125.12939453 65.10644531 C123.94851257 65.10393265 122.76763062 65.10141998 121.55096436 65.09883118 C118.31510693 65.08947717 115.07986374 65.06301212 111.84416437 65.03155231 C108.45437649 65.00487535 105.06464799 65.00706142 101.67477417 65.00823975 C90.13108056 65.00696971 78.58782083 64.95921129 67.04443359 64.87646484 C60.6666109 64.83105318 54.28934514 64.81442671 47.91137016 64.82844043 C44.53813581 64.83440372 41.16647855 64.82483208 37.79352188 64.77872467 C34.02955752 64.73324442 30.26853858 64.73668571 26.50439453 64.75097656 C24.83499313 64.71243309 24.83499313 64.71243309 23.13186646 64.67311096 C17.437766 64.66094162 17.437766 64.66094162 12.70412827 67.44843292 C11.18811572 69.46390746 9.9366988 71.50058001 8.6875 73.6875 C0.56839747 82.36802983 -9.88608316 88.44584238 -21.94921875 89.0234375 C-38.71003072 89.32527066 -50.53383316 85.99897098 -63.0625 74.375 C-73.05541038 63.81645319 -75.82689781 52.26922077 -75.73217773 38.15722656 C-75.32139743 24.03483761 -69.475381 12.95884274 -59.25 3.28125 C-42.59283172 -10.42061423 -18.05009418 -11.9794347 0 0 Z M-52.3125 20.6875 C-58.26934175 29.45976447 -59.12110965 37.15279681 -58.3125 47.6875 C-56.12872185 56.93424063 -51.15351899 63.11888233 -43.1875 68.0625 C-35.32708088 72.64162267 -26.26387226 73.09301976 -17.41796875 71.00390625 C-7.78525536 67.43787871 -2.90786929 61.64079293 2.3046875 52.98046875 C3.6875 50.6875 3.6875 50.6875 4.6875 49.6875 C6.24328596 49.57947843 7.80392858 49.54066475 9.36341858 49.52928162 C10.37449173 49.5194928 11.38556488 49.50970398 12.42727661 49.49961853 C14.10501663 49.49098534 14.10501663 49.49098534 15.81665039 49.48217773 C16.98722488 49.47227814 18.15779938 49.46237854 19.36384583 49.45217896 C22.58267929 49.42592945 25.80150725 49.40409298 29.02038503 49.38417697 C32.38100344 49.36235429 35.74157607 49.33494747 39.10215759 49.30812073 C45.4698902 49.2581434 51.83764815 49.21322335 58.20543045 49.17009836 C65.4532298 49.12076896 72.70098324 49.06583495 79.94873822 49.01041877 C94.86161628 48.89652139 109.77453823 48.78989815 124.6875 48.6875 C124.6875 43.4075 124.6875 38.1275 124.6875 32.6875 C123.19967514 32.69717804 121.71185028 32.70685608 120.17893982 32.71682739 C106.15648947 32.80152254 92.13466032 32.8342938 78.11201382 32.81447029 C70.90267803 32.805607 63.69427029 32.8153253 56.48510742 32.86914062 C50.19977681 32.91601216 43.91552398 32.92765959 37.63007408 32.8974179 C34.30285319 32.88262888 30.97820385 32.89045339 27.65112114 32.92999649 C23.93161074 32.97121186 20.21726141 32.9501557 16.49780273 32.91455078 C15.40088104 32.9411528 14.30395935 32.96775482 13.17379761 32.99516296 C8.58067539 32.89530508 5.81254308 32.80819256 2.46742439 29.47600937 C0.67953571 26.94797594 -0.85113003 24.41452073 -2.3125 21.6875 C-6.24548213 15.72021676 -12.58814212 11.92895263 -19.3125 9.6875 C-32.47264717 8.71444669 -43.23148485 10.35532276 -52.3125 20.6875 Z " fill="#000000" transform="translate(219.3125,199.3125)"/>
<path d="M0 0 C5.28 0 10.56 0 16 0 C16 5.28 16 10.56 16 16 C10.72 16 5.44 16 0 16 C0 10.72 0 5.44 0 0 Z " fill="#000000" transform="translate(176,232)"/>
</svg>
