<?xml version="1.0" encoding="UTF-8"?>
<svg version="1.1" xmlns="http://www.w3.org/2000/svg" width="512" height="512">
<path d="M0 0 C0.70761467 -0.00235223 1.41522933 -0.00470446 2.14428687 -0.00712797 C4.52144117 -0.01379839 6.89854057 -0.01336034 9.27570343 -0.01294994 C10.9949211 -0.01624979 12.71413799 -0.01997561 14.4333539 -0.02409142 C19.1628182 -0.03410585 23.8922698 -0.03782732 28.6217432 -0.04048073 C33.72079825 -0.04438545 38.81984327 -0.05396369 43.91889191 -0.0626936 C56.2358492 -0.0824535 68.55280731 -0.09252372 80.86977649 -0.10142139 C86.67094396 -0.10580515 92.47211053 -0.11117174 98.27327728 -0.11641026 C117.55931916 -0.13342223 136.84536047 -0.14791616 156.13140869 -0.155159 C161.13592784 -0.15706887 166.14044699 -0.15898921 171.14496613 -0.16094494 C173.01072527 -0.16167055 173.01072527 -0.16167055 174.91417652 -0.16241082 C195.0612677 -0.17071022 215.20829949 -0.19604579 235.35536474 -0.22852562 C256.04272402 -0.2616044 276.73005312 -0.27960851 297.41743898 -0.28280324 C309.03148106 -0.28496759 320.64543653 -0.29370541 332.25945282 -0.31926441 C342.15100865 -0.34098257 352.04245684 -0.3490163 361.93403381 -0.33929763 C366.97867702 -0.33475618 372.02309819 -0.3366303 377.06771088 -0.35605907 C381.69190818 -0.37371443 386.31572183 -0.37267375 390.93992335 -0.35716178 C392.60688982 -0.35478932 394.27388303 -0.3590904 395.94080871 -0.37099043 C409.1007369 -0.4590686 421.91847808 0.61618661 431.893013 10.13422108 C437.76316312 15.94963786 442.5817706 23.13287916 443.0206635 31.59556407 C443.02191 32.52479743 443.0231565 33.45403078 443.02444077 34.41142273 C443.02828191 35.48672247 443.03212306 36.56202221 443.0360806 37.6699068 C443.03521412 38.85052843 443.03434763 40.03115006 443.0334549 41.2475481 C443.03791158 43.1297507 443.03791158 43.1297507 443.0424583 45.0499776 C443.05052573 48.53525351 443.05231773 52.02050883 443.05305576 55.50579298 C443.05490678 59.26394508 443.0624544 63.0220865 443.06919098 66.78023243 C443.08277335 74.99934453 443.08879897 83.21845174 443.09320164 91.43757319 C443.09596441 96.57016367 443.10020185 101.70275225 443.10470581 106.83534145 C443.11689872 121.04725209 443.12719775 135.25916121 443.1305809 149.47107697 C443.13080047 150.38069669 443.13102003 151.29031641 443.13124625 152.22750037 C443.13146453 153.13929281 443.13168281 154.05108526 443.1319077 154.99050778 C443.13235117 156.83813552 443.13279773 158.68576326 443.13324738 160.533391 C443.13346881 161.44987755 443.13369024 162.3663641 443.13391837 163.31062297 C443.13786561 178.15792254 443.15531724 193.00517301 443.1786069 207.85245361 C443.20232754 223.09762296 443.21478309 238.34276767 443.21594882 253.58795577 C443.21686522 262.14685351 443.22260861 270.70568727 443.24076843 279.26456738 C443.25617908 286.55342082 443.26128422 293.84219053 443.25303033 301.13105717 C443.24912713 304.84862721 443.25003712 308.56602868 443.26408768 312.28357792 C443.27919548 316.31783193 443.27095028 320.35170713 443.26050568 324.38597584 C443.27259028 326.14017787 443.27259028 326.14017787 443.28491902 327.92981833 C443.21346639 339.73049866 440.1661177 347.52385268 432.07660675 356.04828358 C424.04399454 363.6752083 414.66840394 366.2530049 403.786026 366.26844215 C403.07841133 366.27079438 402.37079667 366.27314661 401.64173913 366.27557012 C399.26458483 366.28224054 396.88748543 366.28180249 394.51032257 366.2813921 C392.7911049 366.28469194 391.07188801 366.28841777 389.3526721 366.29253358 C384.6232078 366.30254801 379.8937562 366.30626948 375.1642828 366.30892289 C370.06522775 366.3128276 364.96618273 366.32240584 359.86713409 366.33113575 C347.5501768 366.35089565 335.23321869 366.36096587 322.91624951 366.36986354 C317.11508204 366.3742473 311.31391547 366.37961389 305.51274872 366.38485241 C286.22670684 366.40186438 266.94066554 366.41635831 247.65461731 366.42360115 C242.65009816 366.42551103 237.64557901 366.42743136 232.64105988 366.42938709 C230.77530073 366.4301127 230.77530073 366.4301127 228.87184948 366.43085297 C208.7247583 366.43915237 188.57772651 366.46448794 168.43066126 366.49696777 C147.74330198 366.53004655 127.05597288 366.54805066 106.36858702 366.55124539 C94.75454494 366.55340975 83.14058947 366.56214757 71.52657318 366.58770657 C61.63501735 366.60942473 51.74356916 366.61745845 41.85199219 366.60773978 C36.80734898 366.60319833 31.76292781 366.60507246 26.71831512 366.62450123 C22.09411782 366.64215658 17.47030417 366.6411159 12.84610265 366.62560394 C11.17913618 366.62323147 9.51214297 366.62753255 7.84521729 366.63943259 C-5.31471089 366.72751076 -18.13245208 365.65225554 -28.106987 356.13422108 C-33.97713712 350.31880429 -38.7957446 343.13556299 -39.2346375 334.67287809 C-39.235884 333.74364473 -39.23713049 332.81441137 -39.23841476 331.85701942 C-39.24225591 330.78171968 -39.24609705 329.70641994 -39.2500546 328.59853536 C-39.24918812 327.41791373 -39.24832163 326.2372921 -39.24742889 325.02089405 C-39.25040002 323.76609232 -39.25337114 322.51129058 -39.25643229 321.21846455 C-39.26449973 317.73318864 -39.26629173 314.24793332 -39.26702976 310.76264918 C-39.26888078 307.00449708 -39.2764284 303.24635565 -39.28316498 299.48820972 C-39.29674735 291.26909763 -39.30277297 283.04999041 -39.30717564 274.83086896 C-39.30993841 269.69827849 -39.31417585 264.5656899 -39.31867981 259.4331007 C-39.33087272 245.22119007 -39.34117175 231.00928094 -39.3445549 216.79736519 C-39.34477447 215.88774547 -39.34499403 214.97812574 -39.34522025 214.04094179 C-39.34543853 213.12914934 -39.34565681 212.21735689 -39.3458817 211.27793437 C-39.34632517 209.43030663 -39.34677173 207.58267889 -39.34722137 205.73505116 C-39.3474428 204.81856461 -39.34766423 203.90207806 -39.34789237 202.95781919 C-39.3518396 188.11051962 -39.36929124 173.26326915 -39.3925809 158.41598854 C-39.41630154 143.1708192 -39.42875709 127.92567448 -39.42992282 112.68048638 C-39.43083922 104.12158865 -39.43658261 95.56275488 -39.45474243 87.00387478 C-39.47015308 79.71502134 -39.47525822 72.42625163 -39.46700433 65.13738499 C-39.46310113 61.41981494 -39.46401112 57.70241347 -39.47806168 53.98486423 C-39.49316948 49.95061022 -39.48492428 45.91673503 -39.47447968 41.88246632 C-39.48253608 40.71299829 -39.49059248 39.54353027 -39.49889302 38.33862382 C-39.42744039 26.53794349 -36.3800917 18.74458947 -28.29058075 10.22015858 C-20.25796854 2.59323385 -10.88237794 0.01543726 0 0 Z M-22.106987 23.13422108 C-27.68711524 31.34313805 -27.25416277 40.34510238 -27.24069977 49.91823292 C-27.24296532 51.10138842 -27.24523088 52.28454392 -27.24756509 53.50355262 C-27.25278888 56.77489802 -27.25355193 60.04620874 -27.25237072 63.31755698 C-27.25216619 66.85072287 -27.2576904 70.38388065 -27.26242828 73.91704273 C-27.27072405 80.83434516 -27.27348264 87.75163907 -27.27404066 94.66894607 C-27.27451632 100.29321812 -27.27657354 105.91748737 -27.27974129 111.54175854 C-27.28854481 127.49762953 -27.29316112 143.4534938 -27.29241081 159.40936724 C-27.29237086 160.2690109 -27.2923309 161.12865456 -27.29228973 162.01434803 C-27.29224885 162.8750447 -27.29220797 163.73574137 -27.29216585 164.62251975 C-27.29175943 178.57009477 -27.30132872 192.51764279 -27.3154281 206.46521 C-27.32980055 220.79629908 -27.33669781 235.127375 -27.33583432 249.45847148 C-27.33550266 257.50034583 -27.33823627 265.54219187 -27.34901237 273.58405972 C-27.35812879 280.43106542 -27.36028324 287.27802998 -27.35350295 294.12503914 C-27.35024355 297.61588978 -27.35016004 301.10666153 -27.3588562 304.59750462 C-27.36657755 308.38815946 -27.3619301 312.17860789 -27.35422516 315.96925831 C-27.35936872 317.06373006 -27.36451228 318.15820181 -27.36981171 319.28583938 C-27.32481845 329.32175184 -26.76660456 338.13561601 -19.606987 345.72406483 C-10.68634306 354.16976707 0.08864532 353.56602708 11.63178253 353.515172 C13.34080618 353.51863136 15.0498276 353.52339779 16.75884438 353.52935374 C21.44144732 353.54185521 26.12386639 353.53569721 30.80646992 353.52639508 C35.86175839 353.51960146 40.91701546 353.53008738 45.97229767 353.53833485 C55.87020724 353.551671 65.76804855 353.54879495 75.66596079 353.54009692 C83.71058366 353.53332034 91.75518741 353.53240355 99.79981232 353.53566837 C100.94499395 353.53612807 102.09017559 353.53658777 103.2700597 353.5370614 C105.59651232 353.53802058 107.92296494 353.53899322 110.24941754 353.53997917 C132.06187691 353.54853273 153.87429844 353.53869947 175.6867516 353.52257808 C194.40070664 353.50917493 213.11460585 353.51150304 231.82855988 353.52533436 C253.56325131 353.54139077 275.29790959 353.54770875 297.03260612 353.53849757 C299.35047531 353.53754192 301.66834449 353.53659881 303.98621368 353.53566837 C305.12663404 353.53520555 306.26705439 353.53474272 307.44203293 353.53426587 C315.47650265 353.53167617 323.51095133 353.53604656 331.54541779 353.54310703 C341.33744297 353.55152289 351.12939602 353.54924003 360.92141294 353.5332648 C365.91693816 353.5253833 370.91234312 353.5222885 375.90786743 353.53221226 C380.48230888 353.54116205 385.05651876 353.53622153 389.63093925 353.5202796 C391.28424913 353.51693302 392.93757864 353.51862311 394.59087586 353.52590697 C409.4112505 353.7626527 409.4112505 353.7626527 422.205513 346.94672108 C422.82039581 346.41691639 423.43527863 345.8871117 424.06879425 345.34125233 C430.0354138 338.12253703 430.47090846 331.73376258 430.40094757 322.68500233 C430.40718753 321.44241154 430.4134275 320.19982075 430.41985655 318.91957569 C430.43301449 315.48670552 430.42832912 312.05471557 430.41591167 308.6218996 C430.406841 304.91357421 430.42084087 301.20532432 430.43183136 297.49701405 C430.44959973 290.23890052 430.44578414 282.98095264 430.4341808 275.72283268 C430.42514011 269.82300173 430.42392522 263.92321713 430.42827606 258.02338123 C430.42919546 256.76290706 430.42919546 256.76290706 430.43013343 255.47696877 C430.43141236 253.76977887 430.43270921 252.062589 430.4340238 250.35539913 C430.44542467 234.35437172 430.43232364 218.35343604 430.41082233 202.35242367 C430.39295179 188.62860188 430.39605604 174.90491543 430.41449738 161.18109608 C430.43591281 145.23656963 430.44432607 129.29212354 430.43204832 113.34758472 C430.43077415 111.64674347 430.42951667 109.9459022 430.42827606 108.24506092 C430.42765896 107.408257 430.42704186 106.57145308 430.42640606 105.70929146 C430.42295517 99.81787465 430.42877585 93.92650889 430.43819427 88.03509998 C430.44942312 80.85350504 430.44635566 73.67208495 430.4250713 66.49050999 C430.4145727 62.8276835 430.41041846 59.16514831 430.42366791 55.5023241 C430.43782224 51.52919864 430.42089947 47.55654817 430.40094757 43.58343983 C430.40987046 42.42935123 430.41879334 41.27526264 430.42798662 40.08620167 C430.35213363 32.30566608 429.13888805 27.06124335 424.06879425 20.92718983 C423.14647003 20.1324828 423.14647003 20.1324828 422.205513 19.32172108 C421.60352081 18.77902576 421.00152863 18.23633045 420.38129425 17.67718983 C411.54240695 12.19624715 402.14637946 12.70924825 392.15424347 12.75327015 C390.44521982 12.74981079 388.7361984 12.74504437 387.02718163 12.73908842 C382.34457868 12.72658695 377.66215961 12.73274494 372.97955608 12.74204707 C367.92426762 12.74884069 362.86901054 12.73835477 357.81372833 12.73010731 C347.91581876 12.71677115 338.01797745 12.71964721 328.12006521 12.72834523 C320.07544234 12.73512182 312.03083859 12.7360386 303.98621368 12.73277378 C302.84103205 12.73231408 301.69585041 12.73185438 300.5159663 12.73138075 C298.18951368 12.73042157 295.86306106 12.72944893 293.53660846 12.72846298 C271.72414909 12.71990943 249.91172756 12.72974268 228.0992744 12.74586408 C209.38531936 12.75926722 190.67142015 12.75693912 171.95746613 12.7431078 C150.22277469 12.72705138 128.48811641 12.7207334 106.75341988 12.72994459 C104.43555069 12.73090023 102.11768151 12.73184334 99.79981232 12.73277378 C98.65939196 12.73323661 97.51897161 12.73369943 96.34399307 12.73417629 C88.30952335 12.73676599 80.27507467 12.7323956 72.24060822 12.72533512 C62.44858303 12.71691926 52.65662998 12.71920212 42.86461306 12.73517735 C37.86908784 12.74305885 32.87368288 12.74615365 27.87815857 12.7362299 C23.30371712 12.72728011 18.72950724 12.73222062 14.15508676 12.74816255 C12.50177687 12.75150913 10.84844736 12.74981905 9.19515014 12.74253519 C-3.14277991 12.69235514 -13.41460504 13.28154379 -22.106987 23.13422108 Z " fill="#000000" transform="translate(54.10698699951172,72.86577892303467)"/>
<path d="M0 0 C1.05111609 3.15334826 1.12070472 5.35512283 1.11352539 8.66479492 C1.11341209 10.40626045 1.11341209 10.40626045 1.11329651 12.1829071 C1.10813522 13.43610245 1.10297394 14.68929779 1.09765625 15.98046875 C1.0962413 17.26359451 1.09482635 18.54672028 1.09336853 19.86872864 C1.08955405 23.27670241 1.07973291 26.68463343 1.06866455 30.09259033 C1.05842743 33.57148663 1.05386598 37.05038985 1.04882812 40.52929688 C1.03810967 47.35288212 1.02104609 54.17643901 1 61 C2.09874199 60.99000725 2.09874199 60.99000725 3.21968079 60.97981262 C10.12056803 60.91971767 17.0214162 60.87403383 23.92249775 60.84456348 C27.47049936 60.82890307 31.01828487 60.80765849 34.56616211 60.77368164 C38.64438967 60.73486993 42.72239001 60.72029398 46.80078125 60.70703125 C48.07585037 60.69154739 49.35091949 60.67606354 50.66462708 60.66011047 C51.84562485 60.65988388 53.02662262 60.65965729 54.2434082 60.65942383 C55.28487503 60.65276199 56.32634186 60.64610016 57.39936829 60.63923645 C60 61 60 61 61.83268738 62.3445282 C64.79429806 66.54465666 63.42547205 73.15248701 63 78 C59.41680345 97.87965545 49.09655982 113.88308122 32.703125 125.6484375 C16.94622621 135.79258476 -2.14680188 138.51873241 -20.5078125 135.6015625 C-38.09423494 131.61857484 -54.25891836 120.97014137 -64.06640625 105.8046875 C-74.13834283 89.23696442 -77.78481929 70.91766681 -74.3515625 51.67578125 C-70.13666702 34.43793948 -59.93591902 18.78422502 -45 9 C-33.4860912 2.15304553 -12.63386868 -8.42257912 0 0 Z M-45.9375 26.80859375 C-57.87138941 39.48835125 -62.68465233 54.37376997 -62.31640625 71.44921875 C-62.00481044 77.70069114 -60.36541516 83.22744711 -58 89 C-57.67257812 89.85722656 -57.34515625 90.71445313 -57.0078125 91.59765625 C-51.06713706 105.2785548 -39.22765459 114.33056496 -25.98828125 120.375 C-12.54835863 125.33107902 3.94987265 124.81011217 17 119 C32.17999186 111.66634755 42.19062809 99.76796571 48.0546875 84.17578125 C49.06261337 80.78965014 49.53294946 77.49718959 50 74 C48.94217316 73.98786972 48.94217316 73.98786972 47.86297607 73.97549438 C41.21237175 73.89750793 34.56196235 73.81020513 27.91161728 73.71247292 C24.49271441 73.66255706 21.07384172 73.61622688 17.65478516 73.578125 C13.72280523 73.53414924 9.7911375 73.47451681 5.859375 73.4140625 C4.63321472 73.40251129 3.40705444 73.39096008 2.14373779 73.37905884 C1.00285706 73.35918915 -0.13802368 73.33931946 -1.31347656 73.31884766 C-2.81905121 73.29886215 -2.81905121 73.29886215 -4.3550415 73.2784729 C-7 73 -7 73 -11 71 C-11.33 51.2 -11.66 31.4 -12 11 C-24.36276159 11 -37.17420704 18.56170912 -45.9375 26.80859375 Z " fill="#000000" transform="translate(374,129)"/>
<path d="M0 0 C0.8037355 -0.00761353 1.60747101 -0.01522705 2.43556213 -0.02307129 C4.13254699 -0.03385867 5.82959816 -0.03673091 7.52661133 -0.03222656 C10.11717912 -0.0312544 12.70478177 -0.07288215 15.29492188 -0.1171875 C16.94660843 -0.12239506 18.59830524 -0.12508268 20.25 -0.125 C21.40646278 -0.1495929 21.40646278 -0.1495929 22.58628845 -0.17468262 C26.11953178 -0.12948778 28.40258104 0.28508848 31.3977356 2.18968201 C35.4296967 6.56428572 34.35634166 12.99383621 34.29077148 18.54907227 C34.29263636 19.89306084 34.29667478 21.23704789 34.30271912 22.58102417 C34.31268496 26.22373999 34.29153966 29.86567636 34.26423907 33.50827909 C34.2403885 37.32206786 34.24335387 41.13584171 34.24293518 44.94969177 C34.23830892 51.35290707 34.21467846 57.75582477 34.1784668 64.15893555 C34.13671647 71.56110574 34.1191508 78.96300809 34.11584705 86.36528927 C34.11224695 94.24838544 34.09337278 102.13138529 34.06872678 110.01444125 C34.06249979 112.28523278 34.05886247 114.55601698 34.05569267 116.82681465 C34.04978948 120.39489625 34.03346929 123.96278673 34.00908852 127.53078842 C33.99810481 129.46463708 33.99680969 131.39853314 33.99578857 133.33241272 C33.98581345 134.48342468 33.97583832 135.63443665 33.96556091 136.82032776 C33.96091041 137.8204316 33.9562599 138.82053545 33.95146847 139.85094547 C33.68227758 142.56063985 33.16567738 144.19389988 31.69140625 146.46875 C28.38693732 148.12098447 24.70386731 147.65334463 21.0703125 147.671875 C19.78676125 147.68042511 19.78676125 147.68042511 18.47727966 147.68914795 C16.66577391 147.69860099 14.85425093 147.70513314 13.04272461 147.70898438 C10.26841359 147.7186992 7.49484047 147.74972291 4.72070312 147.78125 C2.96224399 147.78777909 1.20377955 147.79302993 -0.5546875 147.796875 C-1.38600693 147.8092218 -2.21732635 147.8215686 -3.07383728 147.83428955 C-8.80267157 147.81208029 -8.80267157 147.81208029 -11.027421 146.30231476 C-12.82318711 143.73228393 -12.6889288 141.8981496 -12.6962738 138.77526855 C-12.70617844 137.58908432 -12.71608307 136.40290009 -12.72628784 135.18077087 C-12.72178619 133.8778157 -12.71728455 132.57486053 -12.71264648 131.23242188 C-12.71834809 129.84769641 -12.72531154 128.46297565 -12.73344421 127.07826233 C-12.75141299 123.31589428 -12.75020049 119.55375896 -12.74450183 115.79136086 C-12.74141569 112.65250636 -12.74749591 109.51369694 -12.75354058 106.37484884 C-12.76759605 98.97170367 -12.76601572 91.56867388 -12.75463867 84.16552734 C-12.74315263 76.52245118 -12.75723874 68.87972571 -12.78403515 61.23669577 C-12.80616857 54.67865571 -12.81283499 48.12072593 -12.80695873 41.56265116 C-12.80358271 37.64397187 -12.80604682 33.72551747 -12.82320976 29.80686951 C-12.83863983 26.12299786 -12.834768 22.4396472 -12.81590462 18.75579643 C-12.81044211 16.75609919 -12.82476215 14.75637878 -12.83959961 12.75672913 C-12.82976547 11.57054489 -12.81993134 10.38436066 -12.80979919 9.16223145 C-12.80958991 8.12911079 -12.80938063 7.09599014 -12.809165 6.03156281 C-12.30859375 3.46875 -12.30859375 3.46875 -10.51297092 1.63915253 C-7.13709405 -0.15325163 -3.73341095 0.00097279 0 0 Z M0.69140625 13.46875 C0.69140625 53.39875 0.69140625 93.32875 0.69140625 134.46875 C7.29140625 134.46875 13.89140625 134.46875 20.69140625 134.46875 C20.69140625 94.53875 20.69140625 54.60875 20.69140625 13.46875 C14.09140625 13.46875 7.49140625 13.46875 0.69140625 13.46875 Z " fill="#000000" transform="translate(252.30859375,254.53125)"/>
<path d="M0 0 C0.85570084 -0.00570007 1.71140167 -0.01140015 2.59303284 -0.01727295 C4.40453859 -0.02672599 6.21606157 -0.03325814 8.02758789 -0.03710938 C10.80189891 -0.0468242 13.57547203 -0.07784791 16.34960938 -0.109375 C18.10806851 -0.11590409 19.86653295 -0.12115493 21.625 -0.125 C22.45631943 -0.1373468 23.28763885 -0.1496936 24.14414978 -0.16241455 C29.9189674 -0.14002702 29.9189674 -0.14002702 32.09815407 1.48582458 C34.3617448 4.52096702 33.79328635 8.29722479 33.76708984 11.94140625 C33.7723468 12.83435394 33.77760376 13.72730164 33.78302002 14.64730835 C33.79624078 17.60359101 33.78747456 20.55933671 33.77734375 23.515625 C33.77936389 25.56681421 33.78227482 27.61800271 33.78604126 29.66918945 C33.79046743 33.96995882 33.78402407 38.27054139 33.77001953 42.57128906 C33.75292756 48.08975595 33.76276717 53.60778514 33.78073692 59.12623596 C33.7915668 63.36237905 33.78813206 67.59841802 33.78035355 71.83456421 C33.77834934 73.86957857 33.78081852 75.90460232 33.78779221 77.93960571 C33.79539354 80.78160721 33.78382095 83.6228955 33.76708984 86.46484375 C33.77619888 87.73199722 33.77619888 87.73199722 33.78549194 89.02474976 C33.72298213 94.74328139 33.72298213 94.74328139 32.09617043 96.91744995 C29.07467423 99.17957265 25.32882526 98.64964735 21.6953125 98.63671875 C20.41744118 98.64458153 20.41744118 98.64458153 19.11375427 98.65260315 C17.31241953 98.65902504 15.51104286 98.65768417 13.7097168 98.64916992 C10.95480536 98.64066636 8.20197178 98.66940669 5.44726562 98.70117188 C3.6966152 98.70278416 1.94596111 98.70220583 0.1953125 98.69921875 C-0.62770859 98.71045273 -1.45072968 98.72168671 -2.2986908 98.73326111 C-3.06951492 98.72388016 -3.84033905 98.71449921 -4.63452148 98.70483398 C-5.30942123 98.70466782 -5.98432098 98.70450165 -6.67967224 98.70433044 C-9.7261428 97.91784094 -10.7982946 96.76526859 -12.62109375 94.203125 C-13.00537063 91.22443962 -13.14815223 88.61890729 -13.10693359 85.64257812 C-13.11073029 84.78035141 -13.11452698 83.91812469 -13.11843872 83.0297699 C-13.12584541 80.18093435 -13.10446024 77.33311984 -13.08203125 74.484375 C-13.07964678 72.50427368 -13.07874151 70.52417007 -13.07925415 68.54406738 C-13.07612593 64.39463127 -13.05955894 60.24554062 -13.03271484 56.09619141 C-12.99873509 50.77632598 -12.99108628 45.45684021 -12.99260521 40.13687897 C-12.99206144 36.04824191 -12.98109314 31.95968792 -12.96660233 27.87107849 C-12.96023629 25.90946583 -12.95629588 23.94784375 -12.95481491 21.98622131 C-12.95047988 19.24520834 -12.93297443 16.50459829 -12.91162109 13.76367188 C-12.91252747 12.95212143 -12.91343384 12.14057098 -12.91436768 11.3044281 C-12.83406375 4.25707119 -12.83406375 4.25707119 -10.62109375 1.203125 C-7.31662482 -0.44910947 -3.63355481 0.01853037 0 0 Z M0.37890625 13.203125 C0.37890625 36.963125 0.37890625 60.723125 0.37890625 85.203125 C6.97890625 85.203125 13.57890625 85.203125 20.37890625 85.203125 C20.37890625 61.443125 20.37890625 37.683125 20.37890625 13.203125 C13.77890625 13.203125 7.17890625 13.203125 0.37890625 13.203125 Z " fill="#000000" transform="translate(132.62109375,303.796875)"/>
<path d="M0 0 C17.51591345 4.21982546 33.24269166 14.12448717 43.19921875 29.34375 C50.78790992 42.21953021 57.07179125 57.09265783 54.19921875 72.34375 C50.41578324 75.30990153 47.47592944 75.72192615 42.74414062 75.73193359 C41.45930786 75.74139008 40.1744751 75.75084656 38.85070801 75.7605896 C37.45645844 75.75521957 36.06221169 75.74906654 34.66796875 75.7421875 C33.22977552 75.74420998 31.79158329 75.74712288 30.35339355 75.75088501 C27.34405725 75.7553002 24.33498869 75.74890357 21.32568359 75.73486328 C17.47545814 75.71777152 13.62586011 75.72761707 9.77565765 75.74558067 C6.80730493 75.7564405 3.83910006 75.75296217 0.8707428 75.7451973 C-0.54857966 75.74320135 -1.9679157 75.74563325 -3.38722229 75.75263596 C-5.37337982 75.76028575 -7.35958465 75.7465516 -9.34570312 75.73193359 C-11.03850403 75.72835342 -11.03850403 75.72835342 -12.76550293 75.72470093 C-16.29536057 75.28167647 -18.13092169 74.71429983 -20.80078125 72.34375 C-21.42224121 69.34570312 -21.42224121 69.34570312 -21.41601562 65.625 C-21.42156464 64.94663086 -21.42711365 64.26826172 -21.43283081 63.56933594 C-21.44464287 61.3267555 -21.42034062 59.08618907 -21.39453125 56.84375 C-21.39282046 55.28580823 -21.3928855 53.72786358 -21.39465332 52.16992188 C-21.39299922 48.9046678 -21.37428603 45.6400996 -21.34277344 42.375 C-21.30309476 38.18818711 -21.29872738 34.00227284 -21.30623627 29.81530762 C-21.30930487 26.59822344 -21.29718952 23.38134157 -21.28010559 20.16430664 C-21.27307092 18.620537 -21.26995162 17.07674442 -21.27079773 15.53295898 C-21.2690012 13.37571732 -21.24763429 11.21955515 -21.22070312 9.0625 C-21.20807434 7.22075195 -21.20807434 7.22075195 -21.19519043 5.34179688 C-20.80078125 2.34375 -20.80078125 2.34375 -19.45129395 0.45092773 C-14.3892503 -2.94473352 -5.63507872 -0.97296323 0 0 Z M-7.80078125 12.34375 C-7.80078125 28.84375 -7.80078125 45.34375 -7.80078125 62.34375 C8.36921875 62.34375 24.53921875 62.34375 41.19921875 62.34375 C39.24810892 46.73487135 32.74090893 34.26834231 20.6015625 24.12109375 C12.87251558 18.40285579 2.07188836 12.34375 -7.80078125 12.34375 Z " fill="#000000" transform="translate(405.80078125,104.65625)"/>
<path d="M0 0 C0.80610718 0.00091644 1.61221436 0.00183289 2.44274902 0.0027771 C4.14402163 0.00880867 5.84528383 0.0245415 7.54638672 0.04931641 C10.14720894 0.08581064 12.74660475 0.09033572 15.34765625 0.08984375 C17.00261645 0.09967611 18.65756702 0.11133363 20.3125 0.125 C21.47670471 0.12833847 21.47670471 0.12833847 22.66442871 0.13174438 C29.57421465 0.25292675 29.57421465 0.25292675 32.65625 2.4609375 C34.0628236 5.2740847 33.79907861 7.62838875 33.81738281 10.77490234 C33.82483017 11.74593651 33.82483017 11.74593651 33.83242798 12.73658752 C33.84705259 14.8816941 33.85385211 17.02672672 33.859375 19.171875 C33.86512629 20.6615906 33.87088403 22.15130618 33.87664795 23.64102173 C33.88715884 26.76654404 33.89300089 29.89204062 33.89648438 33.01757812 C33.90196878 37.02149789 33.92599494 41.02507752 33.95445633 45.02889061 C33.97308548 48.1069742 33.97828845 51.18497591 33.97982025 54.26311111 C33.9828468 55.73909998 33.99087545 57.2150874 34.00400543 58.69102097 C34.0210722 60.75700456 34.01918476 62.82215798 34.01269531 64.88818359 C34.01816376 66.65118301 34.01816376 66.65118301 34.02374268 68.44979858 C33.61798368 71.77448171 33.08776722 73.17733163 30.65625 75.4609375 C27.55679562 75.85314063 24.81782672 75.99798732 21.71875 75.95703125 C20.4040271 75.9592141 20.4040271 75.9592141 19.06274414 75.96144104 C17.21008988 75.95978144 15.35742192 75.94821323 13.50488281 75.92749023 C10.6667229 75.89854431 7.83043136 75.90687757 4.9921875 75.91992188 C3.19269924 75.91368422 1.39321689 75.90529307 -0.40625 75.89453125 C-1.25630615 75.89746689 -2.1063623 75.90040253 -2.98217773 75.90342712 C-8.80578736 75.81003255 -8.80578736 75.81003255 -11.06629944 74.34313965 C-12.96099702 71.5514826 -12.73257305 69.29395589 -12.74780273 65.94165039 C-12.75466599 65.28439468 -12.76152924 64.62713898 -12.76860046 63.94996643 C-12.78689962 61.77762234 -12.78302676 59.60599837 -12.77734375 57.43359375 C-12.7819043 55.92288477 -12.7872095 54.41217787 -12.79322815 52.901474 C-12.80216548 49.7347674 -12.79972949 46.56831289 -12.78979492 43.40161133 C-12.77830787 39.3448537 -12.79850845 35.28896685 -12.82771206 31.23232365 C-12.84606584 28.11216205 -12.84578326 24.9922094 -12.84007454 21.87200737 C-12.8399212 20.37648739 -12.84597589 18.88095336 -12.85836601 17.3854847 C-12.87325889 15.29297551 -12.86261435 13.20207816 -12.84545898 11.10961914 C-12.84529282 9.91953751 -12.84512665 8.72945587 -12.84495544 7.50331116 C-11.62784285 0.11530021 -6.4557287 -0.11953502 0 0 Z M0.65625 13.4609375 C0.65625 29.6309375 0.65625 45.8009375 0.65625 62.4609375 C7.25625 62.4609375 13.85625 62.4609375 20.65625 62.4609375 C20.65625 46.2909375 20.65625 30.1209375 20.65625 13.4609375 C14.05625 13.4609375 7.45625 13.4609375 0.65625 13.4609375 Z " fill="#000000" transform="translate(192.34375,326.5390625)"/>
<path d="M0 0 C3.08674818 -0.31630043 5.96857107 -0.44393611 9.05859375 -0.43359375 C10.40873314 -0.44145653 10.40873314 -0.44145653 11.78614807 -0.44947815 C13.69181282 -0.45590815 15.59751721 -0.45454874 17.50317383 -0.44604492 C20.422756 -0.43754294 23.34037738 -0.46626887 26.25976562 -0.49804688 C28.10937441 -0.49965911 29.95898667 -0.49908094 31.80859375 -0.49609375 C33.12119423 -0.51294472 33.12119423 -0.51294472 34.46031189 -0.53013611 C35.68156517 -0.51606468 35.68156517 -0.51606468 36.92749023 -0.50170898 C37.64315659 -0.50154282 38.35882294 -0.50137665 39.09617615 -0.50120544 C41 0 41 0 42.73126221 1.72581482 C44.19635941 4.35197002 44.37453062 5.89752451 44.37231445 8.88867188 C44.38165764 10.34037781 44.38165764 10.34037781 44.39118958 11.82141113 C44.38197983 12.86003296 44.37277008 13.89865479 44.36328125 14.96875 C44.36402901 16.57743958 44.36402901 16.57743958 44.36479187 18.21862793 C44.36245266 20.48480076 44.35273317 22.75097625 44.33618164 25.01708984 C44.31258914 28.48688985 44.31562215 31.95592141 44.32226562 35.42578125 C44.31668877 37.62760875 44.30957884 39.82943301 44.30078125 42.03125 C44.30214836 43.58918274 44.30214836 43.58918274 44.30354309 45.17858887 C44.29401108 46.14639282 44.28447906 47.11419678 44.2746582 48.11132812 C44.27005081 48.9608606 44.26544342 49.81039307 44.26069641 50.68566895 C43.9743029 53.22812588 43.36052048 54.84229618 42 57 C38.69553107 58.65223447 35.01246106 58.18459463 31.37890625 58.203125 C30.095355 58.21167511 30.095355 58.21167511 28.78587341 58.22039795 C26.97436766 58.22985099 25.16284468 58.23638314 23.35131836 58.24023438 C20.57700734 58.2499492 17.80343422 58.28097291 15.02929688 58.3125 C13.27083774 58.31902909 11.5123733 58.32427993 9.75390625 58.328125 C8.92258682 58.3404718 8.0912674 58.3528186 7.23475647 58.36553955 C1.48965935 58.34326724 1.48965935 58.34326724 -0.7197876 56.79437256 C-2.42913315 54.39851797 -2.3743461 52.86462204 -2.37231445 49.93359375 C-2.37854324 48.90242432 -2.38477203 47.87125488 -2.39118958 46.80883789 C-2.38197983 45.69629639 -2.37277008 44.58375488 -2.36328125 43.4375 C-2.36377975 42.29466553 -2.36427826 41.15183105 -2.36479187 39.97436523 C-2.36245013 37.55678571 -2.35271584 35.13920381 -2.33618164 32.72167969 C-2.31259388 29.01475289 -2.31561964 25.30854523 -2.32226562 21.6015625 C-2.31668888 19.25520403 -2.30957902 16.9088486 -2.30078125 14.5625 C-2.30169266 13.4499585 -2.30260406 12.33741699 -2.30354309 11.19116211 C-2.28924507 9.64440796 -2.28924507 9.64440796 -2.2746582 8.06640625 C-2.27005081 7.15834229 -2.26544342 6.25027832 -2.26069641 5.31469727 C-2 3 -2 3 0 0 Z M11 12 C11 22.89 11 33.78 11 45 C17.6 45 24.2 45 31 45 C31 34.11 31 23.22 31 12 C24.4 12 17.8 12 11 12 Z " fill="#000000" transform="translate(63,344)"/>
<path d="M0 0 C1.64044281 -0.01062721 1.64044281 -0.01062721 3.31402588 -0.02146912 C4.51412292 -0.0189917 5.71421997 -0.01651428 6.95068359 -0.01396179 C8.84605865 -0.02162819 8.84605865 -0.02162819 10.77972412 -0.02944946 C14.24660885 -0.04285022 17.71338464 -0.04341704 21.18029022 -0.04088616 C24.07308902 -0.03981735 26.96586568 -0.04469742 29.85865974 -0.04949158 C36.68166887 -0.06059011 43.50462293 -0.061022 50.32763672 -0.05497742 C57.37081114 -0.04893386 64.41378598 -0.0612574 71.45692635 -0.08254749 C77.50115802 -0.10014747 83.54532608 -0.10616746 89.58958244 -0.10290974 C93.20082907 -0.10109444 96.81193327 -0.10375759 100.42315674 -0.11762428 C104.44808982 -0.13250119 108.47261489 -0.12324666 112.49755859 -0.11161804 C113.69765564 -0.11926178 114.89775269 -0.12690552 116.13421631 -0.13478088 C117.77465912 -0.12425941 117.77465912 -0.12425941 119.44824219 -0.11352539 C120.40024506 -0.11369313 121.35224792 -0.11386087 122.33309937 -0.1140337 C124.72412109 0.26069641 124.72412109 0.26069641 126.52651978 1.60049152 C128.41815361 4.22281641 128.17199873 6.12555296 127.72412109 9.26069641 C125.69307646 11.85176598 124.49315097 13.10558611 121.22846222 13.76406097 C120.28605431 13.76556908 119.34364639 13.76707718 118.37268066 13.76863098 C117.28753677 13.77991028 116.20239288 13.79118958 115.08436584 13.80281067 C113.30599586 13.79066528 113.30599586 13.79066528 111.49169922 13.77827454 C110.23932968 13.78528381 108.98696014 13.79229309 107.69664001 13.79951477 C104.26456014 13.81410557 100.83344457 13.81068358 97.40141869 13.79799843 C93.80914391 13.78786794 90.2169102 13.79726423 86.62463379 13.80354309 C80.59212856 13.81081939 74.55981924 13.8012324 68.52734375 13.78218079 C61.55395511 13.76041186 54.58103426 13.76746326 47.60765696 13.78948641 C41.61941223 13.80764105 35.6313083 13.81019849 29.64304495 13.79973173 C26.06697008 13.79349707 22.49111505 13.79266017 18.91505432 13.80587769 C14.92869903 13.81958263 10.9428673 13.80058525 6.95654297 13.77827454 C5.77096298 13.78637146 4.585383 13.79446838 3.36387634 13.80281067 C1.73616051 13.78589172 1.73616051 13.78589172 0.07556152 13.76863098 C-0.86684639 13.76712288 -1.8092543 13.76561478 -2.78022003 13.76406097 C-6.05991364 13.10255969 -7.27616471 11.90208424 -9.27587891 9.26069641 C-9.21337891 5.63569641 -9.21337891 5.63569641 -8.27587891 2.26069641 C-4.94065188 0.03721173 -3.8891067 0.00838635 0 0 Z " fill="#000000" transform="translate(326.27587890625,378.7393035888672)"/>
<path d="M0 0 C1.65306404 -0.01475121 1.65306404 -0.01475121 3.33952332 -0.02980042 C5.15369499 -0.01529846 5.15369499 -0.01529846 7.0045166 -0.00050354 C8.27785355 -0.00590652 9.55119049 -0.01130951 10.8631134 -0.01687622 C14.35700024 -0.03085248 17.85039583 -0.0196464 21.34425545 -0.00316501 C24.99838789 0.01067259 28.65249144 0.0042269 32.30664062 0.0007019 C38.44348072 -0.00200126 44.58012535 0.0114843 50.71691895 0.03465271 C57.81464509 0.06126326 64.91204437 0.06301003 72.0098033 0.05126435 C78.83407751 0.04048973 85.65823335 0.0466711 92.48249817 0.06081963 C95.38835952 0.06658222 98.29413431 0.06649464 101.19999695 0.06175423 C105.25611204 0.05610125 109.31173784 0.07529066 113.36779785 0.09715271 C114.57724564 0.09265106 115.78669342 0.08814941 117.03279114 0.08351135 C118.13483383 0.09341599 119.23687653 0.10332062 120.37231445 0.11352539 C121.33169167 0.11595529 122.29106888 0.11838518 123.27951813 0.12088871 C125.68615723 0.50120544 125.68615723 0.50120544 127.49092865 1.8418417 C129.37974338 4.4641273 129.13380693 6.36765752 128.68615723 9.50120544 C126.65991566 12.08353497 125.46232865 13.34541732 122.20611572 13.99898338 C121.27108215 13.99789385 120.33604858 13.99680431 119.37268066 13.99568176 C117.75758606 14.00826523 117.75758606 14.00826523 116.10986328 14.02110291 C114.93363403 14.00986389 113.75740479 13.99862488 112.54553223 13.98704529 C110.68160828 13.99274033 110.68160828 13.99274033 108.7800293 13.99855042 C105.37478555 14.004691 101.97051265 13.99294896 98.56538391 13.97264433 C95.00115566 13.95506549 91.43694343 13.95859857 87.87268066 13.95936584 C81.88723986 13.95749322 75.90200194 13.94013497 69.91662598 13.91282654 C62.99787667 13.88137608 56.07934954 13.87083038 49.16053391 13.87229764 C41.79316812 13.87364901 34.42588793 13.85976376 27.05854797 13.84140444 C24.93632685 13.83714328 22.81411955 13.83572228 20.69189453 13.83492661 C16.73677732 13.83254289 12.78184451 13.81311272 8.82678223 13.79173279 C7.65055298 13.79263916 6.47432373 13.79354553 5.26245117 13.79447937 C4.18572144 13.7859494 3.1089917 13.77741943 1.99963379 13.76863098 C0.59708344 13.76360345 0.59708344 13.76360345 -0.83380127 13.75847435 C-3.50032993 13.48186006 -5.1101982 13.02546939 -7.31384277 11.50120544 C-8.30567142 7.93062232 -8.92728555 5.6581446 -7.1498642 2.30596828 C-4.7027414 -0.09949182 -3.39777796 0.00074121 0 0 Z " fill="#000000" transform="translate(325.3138427734375,311.49879455566406)"/>
<path d="M0 0 C1.86414299 -0.01051392 1.86414299 -0.01051392 3.76594543 -0.02124023 C7.16697925 -0.03581512 10.56703797 -0.03241977 13.96801686 -0.01972389 C17.52958928 -0.00958284 21.09112061 -0.01899242 24.6526947 -0.02526855 C30.63214585 -0.03254084 36.61139921 -0.02296744 42.59082031 -0.00390625 C49.50231512 0.01787186 56.41333811 0.010803 63.32482153 -0.01121187 C69.26213177 -0.02936611 75.19930002 -0.03192445 81.13662905 -0.0214572 C84.68139057 -0.01522359 88.22593032 -0.01438292 91.77067757 -0.02760315 C95.72100282 -0.04130769 99.67079973 -0.02231143 103.62109375 0 C104.79575195 -0.00809692 105.97041016 -0.01619385 107.18066406 -0.02453613 C108.79359093 -0.00761719 108.79359093 -0.00761719 110.43910217 0.00964355 C111.8397043 0.01190571 111.8397043 0.01190571 113.26860142 0.01421356 C116.51962724 0.67480591 117.72084668 1.93847178 119.74584961 4.51757812 C120.19349931 7.65112605 120.43943576 9.55465627 118.55062103 12.17694187 C116.09306813 14.00248303 114.47961399 13.89753925 111.43200684 13.90525818 C109.77894279 13.92011513 109.77894279 13.92011513 108.09248352 13.93527222 C106.27831184 13.92851974 106.27831184 13.92851974 104.42749023 13.92163086 C102.51748482 13.93192574 102.51748482 13.93192574 100.56889343 13.94242859 C97.07510663 13.96039274 93.58157053 13.95918576 90.08775139 13.9534862 C87.17257513 13.9503994 84.25744737 13.95648102 81.342278 13.96252495 C74.46650705 13.97657889 67.59086031 13.97500138 60.71508789 13.96362305 C53.61731731 13.95213704 46.51992436 13.9662233 39.42220354 13.99301952 C33.33124898 14.01515544 27.24041315 14.02181882 21.14942122 14.01594311 C17.51019213 14.01256768 13.87120522 14.01502716 10.23200989 14.03219414 C6.17583176 14.05049267 2.12039173 14.03649818 -1.93579102 14.01928711 C-3.1452388 14.02895508 -4.35468658 14.03862305 -5.6007843 14.04858398 C-6.702827 14.03874985 -7.80486969 14.02891571 -8.94030762 14.01878357 C-10.37937344 14.01846964 -10.37937344 14.01846964 -11.84751129 14.01814938 C-14.25415039 13.51757812 -14.25415039 13.51757812 -16.05501556 11.64250278 C-17.58005467 8.94006004 -17.86482599 7.57095614 -17.25415039 4.51757812 C-12.66931107 -0.99841612 -6.58783203 -0.04548834 0 0 Z " fill="#000000" transform="translate(334.254150390625,277.482421875)"/>
<path d="M0 0 C1.23300842 -0.00379669 2.46601685 -0.00759338 3.73638916 -0.01150513 C7.11058745 -0.01763896 10.48380294 -0.00592098 13.85788465 0.01440096 C17.39141033 0.03199828 20.92492026 0.02844638 24.45848083 0.02767944 C30.39086772 0.02955102 36.32304969 0.04689648 42.25537109 0.07421875 C49.11222568 0.10568258 55.96885603 0.11621436 62.82577759 0.11474764 C70.12983123 0.11339634 77.43379853 0.12727944 84.73782611 0.14564085 C86.84111087 0.14990145 88.94438168 0.15132292 91.04767036 0.15211868 C94.96675659 0.15450233 98.88565671 0.17393189 102.8046875 0.1953125 C103.96999496 0.19440613 105.13530243 0.19349976 106.33592224 0.19256592 C107.40279266 0.20109589 108.46966309 0.20962585 109.56886292 0.21841431 C110.95840353 0.22344184 110.95840353 0.22344184 112.37601566 0.22857094 C115.00157156 0.50297191 116.62165943 1.06883906 118.83764648 2.48583984 C120.23699662 5.28454011 120.09030053 7.39082776 119.83764648 10.48583984 C118.65413666 12.15301609 118.65413666 12.15301609 116.83764648 13.48583984 C114.43100739 13.86615658 114.43100739 13.86615658 111.52380371 13.8735199 C109.87073967 13.88837685 109.87073967 13.88837685 108.1842804 13.90353394 C106.37010872 13.89678146 106.37010872 13.89678146 104.51928711 13.88989258 C102.60928169 13.90018745 102.60928169 13.90018745 100.66069031 13.91069031 C97.16690351 13.92865446 93.6733674 13.92744748 90.17954826 13.92174792 C87.264372 13.91866112 84.34924425 13.92474274 81.43407488 13.93078667 C74.55830392 13.94484061 67.68265719 13.94326309 60.80688477 13.93188477 C53.70911418 13.92039876 46.61172123 13.93448502 39.51400042 13.96128124 C33.42304586 13.98341716 27.33221003 13.99008053 21.24121809 13.98420483 C17.60198901 13.9808294 13.9630021 13.98328888 10.32380676 14.00045586 C6.26762864 14.01875439 2.21218861 14.0047599 -1.84399414 13.98754883 C-3.05344193 13.9972168 -4.26288971 14.00688477 -5.50898743 14.0168457 C-6.61103012 14.00701157 -7.71307281 13.99717743 -8.84851074 13.98704529 C-10.28757656 13.98673136 -10.28757656 13.98673136 -11.75571442 13.98641109 C-14.16235352 13.48583984 -14.16235352 13.48583984 -15.96321869 11.6107645 C-17.4882578 8.90832176 -17.77302912 7.53921786 -17.16235352 4.48583984 C-12.58070507 -1.01359089 -6.57514084 -0.06352546 0 0 Z " fill="#000000" transform="translate(334.162353515625,344.51416015625)"/>
<path d="M0 0 C1.06831558 -0.0112793 2.13663116 -0.02255859 3.23731995 -0.03417969 C4.98763771 -0.0220343 4.98763771 -0.0220343 6.77331543 -0.00964355 C8.00617783 -0.01665283 9.23904022 -0.02366211 10.50926208 -0.03088379 C13.88763011 -0.04547371 17.26501838 -0.04205322 20.64333153 -0.02936745 C24.17955207 -0.01923622 27.71573092 -0.02863345 31.25195312 -0.03491211 C37.19030265 -0.0421882 43.12845315 -0.03260199 49.06677246 -0.0135498 C55.93110049 0.00821909 62.7949533 0.00116768 69.65926981 -0.02085543 C75.55409769 -0.03901069 81.44878255 -0.04156721 87.34362936 -0.03110075 C90.86381412 -0.02486642 94.38377554 -0.02402825 97.90394592 -0.0372467 C101.82803808 -0.05095279 105.75159846 -0.03195329 109.67565918 -0.00964355 C110.84253769 -0.01774048 112.0094162 -0.0258374 113.21165466 -0.03417969 C114.27997025 -0.02290039 115.34828583 -0.01162109 116.44897461 0 C117.37663383 0.0015081 118.30429306 0.0030162 119.26006317 0.00457001 C122.50155851 0.66665323 123.70370709 1.93716604 125.7244873 4.50793457 C126.1725014 7.64403327 126.41965606 9.54638862 124.52451324 12.16771889 C122.08681427 13.98271629 120.51191996 13.88526302 117.48657227 13.8888855 C115.85875069 13.90157471 115.85875069 13.90157471 114.19804382 13.91452026 C113.00729752 13.90844757 111.81655121 13.90237488 110.58972168 13.89611816 C109.33589188 13.90137512 108.08206207 13.90663208 106.79023743 13.91204834 C103.35005064 13.92300196 99.91040398 13.9204176 96.47024727 13.91091108 C92.87216585 13.90332202 89.2741077 13.91035799 85.67602539 13.91506958 C79.63338064 13.92052935 73.59084584 13.91332979 67.54821777 13.89904785 C60.55956317 13.88272083 53.57117111 13.88800919 46.58252287 13.90452707 C40.58499003 13.9181357 34.58753629 13.92006467 28.589993 13.91221106 C25.00670346 13.90753108 21.42353737 13.9069185 17.84025574 13.91682053 C13.8464841 13.92708575 9.85300717 13.91286286 5.85925293 13.89611816 C4.07313347 13.9052272 4.07313347 13.9052272 2.25093079 13.91452026 C1.1657164 13.90606079 0.08050201 13.89760132 -1.03759766 13.8888855 C-2.45454044 13.88718888 -2.45454044 13.88718888 -3.90010834 13.88545799 C-6.2755127 13.50793457 -6.2755127 13.50793457 -8.07553864 12.16771889 C-9.97068145 9.54638862 -9.7235268 7.64403327 -9.2755127 4.50793457 C-6.41712286 0.8715873 -4.58046064 0.00744649 0 0 Z " fill="#000000" transform="translate(129.2755126953125,123.4920654296875)"/>
<path d="M0 0 C1.05011261 -0.00426498 2.10022522 -0.00852997 3.18215942 -0.01292419 C4.90981789 -0.01224442 4.90981789 -0.01224442 6.67237854 -0.0115509 C7.88558777 -0.01490952 9.098797 -0.01826813 10.34877014 -0.02172852 C13.67728642 -0.02960806 17.00574033 -0.0329065 20.33426166 -0.0335443 C23.1126349 -0.03449379 25.89100216 -0.03817251 28.6693731 -0.0417164 C35.22392617 -0.04985974 41.77846552 -0.05230072 48.33302307 -0.05158997 C55.09552263 -0.05098903 61.85794245 -0.06154424 68.62042183 -0.07733363 C74.42602077 -0.09040605 80.23159364 -0.095774 86.03720719 -0.09513456 C89.50481822 -0.0948795 92.97235838 -0.09773482 96.43995476 -0.10831261 C100.30652361 -0.11978545 104.17298292 -0.11524859 108.03956604 -0.10920715 C109.18931412 -0.11482666 110.33906219 -0.12044617 111.52365112 -0.12623596 C113.10304977 -0.11994423 113.10304977 -0.11994423 114.71435547 -0.11352539 C115.62856483 -0.11407016 116.54277418 -0.11461493 117.48468685 -0.1151762 C120.10084015 0.15212114 121.71232079 0.72316615 123.92066956 2.13371277 C125.32001969 4.93241303 125.1733236 7.03870069 124.92066956 10.13371277 C123.73241425 11.80130959 123.73241425 11.80130959 121.92066956 13.13371277 C119.5452652 13.51123619 119.5452652 13.51123619 116.68275452 13.5146637 C115.05493294 13.52735291 115.05493294 13.52735291 113.39422607 13.54029846 C112.20347977 13.53422577 111.01273346 13.52815308 109.78590393 13.52189636 C108.53207413 13.52715332 107.27824432 13.53241028 105.98641968 13.53782654 C102.54623289 13.54878016 99.10658623 13.5461958 95.66642952 13.53668928 C92.0683481 13.52910022 88.47028995 13.53613619 84.87220764 13.54084778 C78.82956289 13.54630754 72.78702809 13.53910799 66.74440002 13.52482605 C59.75574542 13.50849903 52.76735336 13.51378738 45.77870512 13.53030527 C39.78117228 13.5439139 33.78371854 13.54584287 27.78617525 13.53798926 C24.20288571 13.53330928 20.61971962 13.5326967 17.03643799 13.54259872 C13.04266635 13.55286395 9.04918942 13.53864106 5.05543518 13.52189636 C3.26931572 13.5310054 3.26931572 13.5310054 1.44711304 13.54029846 C0.36189865 13.53183899 -0.72331573 13.52337952 -1.84141541 13.5146637 C-3.25835819 13.51296708 -3.25835819 13.51296708 -4.70392609 13.51123619 C-7.07933044 13.13371277 -7.07933044 13.13371277 -8.88716888 11.79740334 C-10.7208153 9.23850498 -10.39772954 7.19034412 -10.07933044 4.13371277 C-7.23301775 -0.13575627 -4.81001642 0.00882092 0 0 Z " fill="#000000" transform="translate(130.07933044433594,184.8662872314453)"/>
<path d="M0 0 C5.92841361 4.65894603 8.84452568 10.20220764 9.94921875 17.62109375 C10.38277814 24.67727289 8.69823492 31.01613861 4.32421875 36.62109375 C-0.89564707 42.05898836 -6.93811484 44.38097216 -14.40625 44.83984375 C-21.43546111 44.58462277 -27.39822503 42.33568701 -32.51953125 37.4921875 C-37.61418111 31.43551599 -39.50035828 24.55526838 -38.98828125 16.74609375 C-37.63036416 10.24420262 -35.0581784 5.11278368 -29.98828125 0.74609375 C-20.42407933 -5.31676257 -9.82205362 -6.19426171 0 0 Z M-21.98828125 11.74609375 C-24.99907243 14.75688493 -25.81890145 17.51159886 -25.98828125 21.74609375 C-24.45385274 25.86482291 -22.89213227 28.62686034 -18.98828125 30.74609375 C-15.24464396 31.88546162 -13.49542215 31.9350286 -9.80078125 30.55859375 C-6.20984319 28.24443367 -4.61589422 26.40478516 -3.11328125 22.43359375 C-2.93335624 18.56520598 -4.17319596 16.12590775 -5.98828125 12.74609375 C-10.90950153 7.65517622 -16.31923539 8.09270864 -21.98828125 11.74609375 Z " fill="#000000" transform="translate(95.98828125,187.25390625)"/>
<path d="M0 0 C5.95438863 4.67935894 8.85191137 10.23345415 9.94921875 17.68359375 C10.40557627 24.94079136 8.02204513 31.44747411 3.5859375 37.17578125 C-0.83739011 41.58813286 -6.64117999 44.41101474 -12.890625 44.80859375 C-21.08502717 44.56444024 -27.05532379 42.50051313 -32.98828125 36.74609375 C-37.83734571 30.74856666 -39.64953281 24.41661186 -38.98828125 16.74609375 C-37.57318615 9.63202473 -34.34689041 4.60197625 -28.98828125 -0.25390625 C-19.88841304 -5.89582454 -9.05418784 -5.71000844 0 0 Z M-24.92578125 15.62109375 C-26.17475972 19.29455983 -26.16384372 21.06266468 -24.98828125 24.74609375 C-22.90085424 28.27866254 -21.43107952 29.54558133 -17.67578125 31.24609375 C-13.09859338 31.86672939 -10.95875762 31.03675319 -6.98828125 28.74609375 C-3.93102884 25.79074975 -3.15702547 22.9646992 -2.98828125 18.74609375 C-4.73805656 13.59969577 -7.19470436 11.23875373 -11.98828125 8.74609375 C-17.79258081 7.58523384 -21.79851191 10.98062957 -24.92578125 15.62109375 Z " fill="#000000" transform="translate(95.98828125,126.25390625)"/>
<path d="M0 0 C1.38331261 -0.01029488 1.38331261 -0.01029488 2.79457092 -0.02079773 C5.84822916 -0.03912535 8.9013766 -0.03522006 11.95507812 -0.02954102 C14.07352873 -0.03409965 16.19197785 -0.03940426 18.3104248 -0.04542542 C22.75242111 -0.05436802 27.19423773 -0.05191992 31.63623047 -0.04199219 C37.33638197 -0.03049564 43.03591463 -0.05071896 48.7359848 -0.07990932 C53.11110389 -0.09822967 57.48607351 -0.09798728 61.86122131 -0.0922718 C63.96323007 -0.09211811 66.06524865 -0.0982021 68.16722107 -0.11056328 C71.1027646 -0.12539439 74.03714969 -0.11485464 76.97265625 -0.09765625 C77.84547745 -0.10732422 78.71829865 -0.11699219 79.61756897 -0.12695312 C85.47163554 -0.05491295 85.47163554 -0.05491295 88.04968262 2.2440033 C89.41687231 5.39695423 89.08417478 7.17912819 87.98632812 10.40405273 C83.75933557 13.87605653 79.56249348 13.82598391 74.328125 13.77636719 C73.03697533 13.78184319 73.03697533 13.78184319 71.71974182 13.78742981 C68.88131838 13.79551968 66.04346861 13.78193815 63.20507812 13.76733398 C61.22880046 13.76681519 59.25252227 13.76733364 57.27624512 13.7688446 C53.13704715 13.76875495 48.99804422 13.75833943 44.85888672 13.74023438 C39.555975 13.71754758 34.2533482 13.7170039 28.95040131 13.72375202 C24.87031527 13.72709517 20.79029407 13.72045536 16.71022034 13.71062279 C14.75501342 13.70677648 12.79979929 13.70562021 10.84458923 13.70720863 C8.11109706 13.70757992 5.37796871 13.69494114 2.64453125 13.67871094 C1.83814713 13.68118835 1.031763 13.68366577 0.20094299 13.68621826 C-3.94610216 13.64696544 -7.33813182 13.4184802 -11.01367188 11.40405273 C-12.41302201 8.60535247 -12.26632592 6.49906481 -12.01367188 3.40405273 C-8.87017496 -0.72601707 -4.79229609 -0.02471667 0 0 Z " fill="#000000" transform="translate(132.013671875,216.595947265625)"/>
<path d="M0 0 C1.38331261 -0.01029488 1.38331261 -0.01029488 2.79457092 -0.02079773 C5.84822916 -0.03912535 8.9013766 -0.03522006 11.95507812 -0.02954102 C14.07352873 -0.03409965 16.19197785 -0.03940426 18.3104248 -0.04542542 C22.75242111 -0.05436802 27.19423773 -0.05191992 31.63623047 -0.04199219 C37.33638197 -0.03049564 43.03591463 -0.05071896 48.7359848 -0.07990932 C53.11110389 -0.09822967 57.48607351 -0.09798728 61.86122131 -0.0922718 C63.96323007 -0.09211811 66.06524865 -0.0982021 68.16722107 -0.11056328 C71.1027646 -0.12539439 74.03714969 -0.11485464 76.97265625 -0.09765625 C77.84547745 -0.10732422 78.71829865 -0.11699219 79.61756897 -0.12695312 C85.46755436 -0.05496317 85.46755436 -0.05496317 88.06140137 2.24009705 C89.36733954 5.29546584 88.87656521 7.25398305 87.98632812 10.40405273 C85.33062197 13.05975889 83.35517839 12.65412991 79.74198914 12.68621826 C78.86557266 12.68374084 77.98915619 12.68126343 77.08618164 12.67871094 C76.16411926 12.68382187 75.24205688 12.6889328 74.29205322 12.69419861 C71.23304824 12.70813991 68.17426742 12.70713442 65.11523438 12.70483398 C62.99535538 12.70871845 60.87547717 12.7130526 58.75559998 12.71781921 C54.30766276 12.72529122 49.85980489 12.72498307 45.41186523 12.71972656 C39.70394535 12.713931 33.99634985 12.73086042 28.28848362 12.75407124 C23.90909415 12.76878315 19.52978326 12.76968374 15.15037346 12.76656151 C13.04557592 12.76707601 10.94077412 12.77233783 8.83600044 12.78237343 C5.89574056 12.7946711 2.95611835 12.78798626 0.01586914 12.77636719 C-0.8585231 12.78401093 -1.73291534 12.79165466 -2.63380432 12.79953003 C-8.57050676 12.74751527 -8.57050676 12.74751527 -10.73735142 11.06816387 C-12.70575992 8.50168419 -12.40484319 6.53342326 -12.01367188 3.40405273 C-8.85150988 -0.71544296 -4.8022902 -0.02476821 0 0 Z " fill="#000000" transform="translate(132.013671875,155.595947265625)"/>
</svg>
