<?xml version="1.0" encoding="UTF-8"?>
<svg version="1.1" xmlns="http://www.w3.org/2000/svg" width="512" height="512">
<path d="M0 0 C110.88 0 221.76 0 336 0 C336 39.6 336 79.2 336 120 C330.72 120 325.44 120 320 120 C320 85.68 320 51.36 320 16 C285.68 16 251.36 16 216 16 C216 49 216 82 216 116 C208.125 109.25 208.125 109.25 204.53344727 105.64697266 C203.7331459 104.84659576 202.93284454 104.04621887 202.10829163 103.22158813 C201.26946945 102.37760468 200.43064728 101.53362122 199.56640625 100.6640625 C198.68846909 99.78471039 197.81053192 98.90535828 196.9059906 97.99935913 C194.12245588 95.21025942 191.34243231 92.41768982 188.5625 89.625 C186.66783335 87.7247458 184.7724037 85.82525347 182.87695312 83.92578125 C178.24864839 79.28649396 173.62321579 74.64435833 169 70 C165.46819018 71.5057334 163.21356764 73.54918156 160.52270508 76.26611328 C159.64532181 77.14687531 158.76793854 78.02763733 157.8639679 78.93508911 C156.91578944 79.8967978 155.96764468 80.85853971 155.01953125 81.8203125 C154.04166368 82.80445264 153.06327774 83.78807796 152.08439636 84.77120972 C149.51428229 87.35460264 146.94980378 89.94351176 144.38690186 92.53405762 C140.27525518 96.68890089 136.15678053 100.83695028 132.03513145 104.98186874 C130.59409266 106.43316524 129.15649288 107.88780618 127.7191925 109.34280396 C126.41730232 110.65449051 126.41730232 110.65449051 125.08911133 111.99267578 C124.32174149 112.76829865 123.55437164 113.54392151 122.76374817 114.3430481 C121 116 121 116 120 116 C120 83 120 50 120 16 C85.68 16 51.36 16 16 16 C16 50.32 16 84.64 16 120 C10.72 120 5.44 120 0 120 C0 80.4 0 40.8 0 0 Z M136 16 C136 35.47 136 54.94 136 75 C140.49743967 71.14505171 144.78742339 67.35400893 148.93359375 63.1640625 C149.4563942 62.63984711 149.97919464 62.11563171 150.51783752 61.57553101 C152.16012345 59.9277213 153.7988665 58.27644099 155.4375 56.625 C156.56161467 55.49586045 157.68596174 54.36695222 158.81054688 53.23828125 C161.54305235 50.49484812 164.27239009 47.74830015 167 45 C169.80911274 46.27926297 171.8455049 47.60109956 174.00854492 49.79736328 C174.56559616 50.35779327 175.1226474 50.91822327 175.69657898 51.49563599 C176.2852626 52.09777924 176.87394623 52.69992249 177.48046875 53.3203125 C178.09392654 53.93897186 178.70738434 54.55763123 179.33943176 55.19503784 C181.2936052 57.16699558 183.240944 59.14552483 185.1875 61.125 C187.14564244 63.11071516 189.10520941 65.09497052 191.06770325 67.0763855 C192.28797111 68.30896079 193.50555677 69.54419809 194.72026062 70.78225708 C196.128125 72.20691242 197.56144297 73.60634343 199 75 C199.33 75 199.66 75 200 75 C200 55.53 200 36.06 200 16 C178.88 16 157.76 16 136 16 Z " fill="#000000" transform="translate(88,104)"/>
<path d="M0 0 C5.28 0 10.56 0 16 0 C16 39.6 16 79.2 16 120 C116.32 120 216.64 120 320 120 C320 80.4 320 40.8 320 0 C325.28 0 330.56 0 336 0 C336 44.88 336 89.76 336 136 C225.12 136 114.24 136 0 136 C0 91.12 0 46.24 0 0 Z " fill="#000000" transform="translate(88,288)"/>
<path d="M0 0 C5.28 0 10.56 0 16 0 C16 7.92 16 15.84 16 24 C142.72 24 269.44 24 400 24 C400 16.08 400 8.16 400 0 C405.28 0 410.56 0 416 0 C416 21.12 416 42.24 416 64 C410.72 64 405.44 64 400 64 C400 56.08 400 48.16 400 40 C273.28 40 146.56 40 16 40 C16 47.92 16 55.84 16 64 C10.72 64 5.44 64 0 64 C0 42.88 0 21.76 0 0 Z " fill="#000000" transform="translate(48,224)"/>
<path d="M0 0 C5.28 0 10.56 0 16 0 C16 36.96 16 73.92 16 112 C-20.96 112 -57.92 112 -96 112 C-96 106.72 -96 101.44 -96 96 C-64.32 96 -32.64 96 0 96 C0 64.32 0 32.64 0 0 Z " fill="#000000" transform="translate(480,384)"/>
<path d="M0 0 C5.28 0 10.56 0 16 0 C16 31.68 16 63.36 16 96 C47.68 96 79.36 96 112 96 C112 101.28 112 106.56 112 112 C75.04 112 38.08 112 0 112 C0 75.04 0 38.08 0 0 Z " fill="#000000" transform="translate(16,384)"/>
<path d="M0 0 C36.96 0 73.92 0 112 0 C112 36.96 112 73.92 112 112 C106.72 112 101.44 112 96 112 C96 80.32 96 48.64 96 16 C64.32 16 32.64 16 0 16 C0 10.72 0 5.44 0 0 Z " fill="#000000" transform="translate(384,16)"/>
<path d="M0 0 C36.96 0 73.92 0 112 0 C112 5.28 112 10.56 112 16 C80.32 16 48.64 16 16 16 C16 47.68 16 79.36 16 112 C10.72 112 5.44 112 0 112 C0 75.04 0 38.08 0 0 Z " fill="#000000" transform="translate(16,16)"/>
<path d="M0 0 C15.84 0 31.68 0 48 0 C48 5.28 48 10.56 48 16 C32.16 16 16.32 16 0 16 C0 10.72 0 5.44 0 0 Z " fill="#000000" transform="translate(136,368)"/>
<path d="M0 0 C15.84 0 31.68 0 48 0 C48 5.28 48 10.56 48 16 C32.16 16 16.32 16 0 16 C0 10.72 0 5.44 0 0 Z " fill="#000000" transform="translate(136,336)"/>
</svg>
