<?xml version="1.0" encoding="UTF-8"?>
<svg version="1.1" xmlns="http://www.w3.org/2000/svg" width="512" height="512">
<path d="M0 0 C0.94611145 -0.00852997 1.8922229 -0.01705994 2.86700439 -0.02584839 C3.89309311 -0.02494202 4.91918182 -0.02403564 5.97636414 -0.02310181 C7.0663974 -0.02981903 8.15643066 -0.03653625 9.27949524 -0.04345703 C12.88251811 -0.06245272 16.48535485 -0.06636212 20.08842468 -0.06851196 C22.59560218 -0.074939 25.10277892 -0.08166729 27.60995483 -0.08868408 C32.86638087 -0.10066093 38.12275976 -0.10445021 43.37919617 -0.10317993 C49.44081554 -0.10197944 55.50207832 -0.12306636 61.56360751 -0.15466726 C67.40968007 -0.18405078 73.25561239 -0.19115386 79.10175133 -0.18996048 C81.58201236 -0.19231782 84.06227614 -0.20114876 86.54249001 -0.21662521 C90.01553876 -0.23626683 93.48767503 -0.23045327 96.96073914 -0.21841431 C97.98075516 -0.22965332 99.00077118 -0.24089233 100.05169678 -0.25247192 C106.26207562 -0.19789376 110.98707911 0.69577673 116.16264343 4.26742554 C120.908497 9.13816999 122.41752852 13.71267632 122.38969421 20.43466187 C122.38946762 22.26599419 122.38946762 22.26599419 122.38923645 24.13432312 C122.37891388 25.44281723 122.36859131 26.75131134 122.35795593 28.09945679 C122.35422265 29.45994356 122.35137717 30.82043303 122.34938049 32.18092346 C122.34176881 35.75003571 122.32214177 39.31898345 122.29997253 42.88803101 C122.27946078 46.53465551 122.27036741 50.18130677 122.26029968 53.82797241 C122.23889334 60.97452381 122.20478741 68.12096389 122.16264343 75.26742554 C123.56788269 75.24385986 123.56788269 75.24385986 125.00151062 75.21981812 C128.5352603 75.16815893 132.06859871 75.13082132 135.60258484 75.10263062 C137.12120465 75.08770442 138.6397826 75.06735594 140.1582489 75.04110718 C155.65064822 74.78034402 169.0619717 76.52249159 180.91264343 87.51742554 C194.57274617 102.27291387 193.57534549 119.71819099 193.35014343 138.57992554 C193.33506798 140.78499451 193.32138464 142.99007347 193.30912781 145.19515991 C193.27635251 150.55280252 193.2263808 155.91006643 193.16264343 161.26742554 C193.75300888 161.39593903 194.34337433 161.52445251 194.95162964 161.65686035 C200.86093746 162.9544384 206.66761335 164.44584371 212.47514343 166.14242554 C213.35492859 166.38605835 214.23471375 166.62969116 215.14115906 166.88070679 C223.32081621 169.27808542 223.32081621 169.27808542 226.16264343 173.26742554 C227.19154562 178.06896907 227.19166214 182.64657895 227.17826843 187.54867554 C227.17601257 188.62182007 227.17375671 189.6949646 227.1714325 190.80062866 C227.1685321 191.61467163 227.16563171 192.4287146 227.16264343 193.26742554 C228.41166946 193.26051209 228.41166946 193.26051209 229.68592834 193.25345898 C249.95916657 193.14297454 270.2323528 193.06026638 290.50582886 193.00836468 C300.31000082 192.98259739 310.11397166 192.94747507 319.91801453 192.89022827 C328.46453233 192.84034814 337.01090446 192.80812379 345.55756378 192.79698306 C350.08184852 192.7904721 354.60571654 192.7752004 359.12986755 192.73877525 C363.39151524 192.70474279 367.65257603 192.69438709 371.91434669 192.70188713 C373.47519944 192.70051581 375.03607257 192.69062618 376.59680748 192.67139816 C391.36390251 192.49845099 391.36390251 192.49845099 396.67575836 196.7057848 C403.60494577 203.98334886 402.73311136 212.89969861 402.68022156 222.37875366 C402.68564767 224.01225914 402.69277307 225.64575972 402.70146179 227.2792511 C402.71964005 231.69871798 402.71265047 236.11780981 402.69994545 240.53728294 C402.6897892 245.17133947 402.6992184 249.80536477 402.70549011 254.43942261 C402.71275889 262.22020203 402.70319905 270.00082938 402.68412781 277.78158569 C402.66236053 286.76579428 402.66941245 295.74963972 402.69143343 304.73383951 C402.7096094 312.45978345 402.71213502 320.18561833 402.70167875 327.91157675 C402.69545589 332.52057437 402.69457488 337.12940152 402.70782471 341.73838806 C402.71941463 346.07238756 402.71130044 350.40592073 402.68824768 354.73987007 C402.68297731 356.32649017 402.68444564 357.9131498 402.69329834 359.49975395 C402.77896855 376.41900685 402.77896855 376.41900685 396.67575836 382.82906628 C390.26240549 387.90885705 382.03319281 386.93042834 374.29154968 386.83505249 C372.68447921 386.83364056 371.07740552 386.83443683 369.47033691 386.83726501 C365.12562241 386.83869494 360.78160329 386.80937439 356.43704987 386.77439523 C351.89005087 386.7430607 347.34303453 386.74019541 342.79594421 386.73426819 C334.19351905 386.71875055 325.59141299 386.67775035 316.98912811 386.62752074 C307.19231804 386.57156243 297.39549244 386.54412448 287.59856224 386.51904356 C267.45307812 386.46683257 247.30788091 386.37893085 227.16264343 386.26742554 C227.16626892 387.00348022 227.16989441 387.73953491 227.17362976 388.49789429 C227.17644958 389.4737146 227.17926941 390.44953491 227.18217468 391.45492554 C227.18580017 392.41785522 227.18942566 393.38078491 227.19316101 394.37289429 C227.0801009 405.09641968 227.0801009 405.09641968 224.99565125 407.75692749 C222.58371417 409.74449471 220.30994141 410.39994637 217.32279968 411.31039429 C216.17746765 411.66166382 215.03213562 412.01293335 213.85209656 412.37484741 C212.65520203 412.73127319 211.4583075 413.08769897 210.22514343 413.45492554 C208.43560242 414.00696655 208.43560242 414.00696655 206.60990906 414.57015991 C197.70743123 417.26742554 197.70743123 417.26742554 193.16264343 417.26742554 C193.17263618 418.12947601 193.17263618 418.12947601 193.18283081 419.00894165 C193.24971739 425.04458972 193.2946629 431.08013081 193.32743835 437.11605835 C193.34243195 439.36219568 193.36283364 441.6083042 193.38896179 443.8543396 C193.42576275 447.10148268 193.44246459 450.34823538 193.45561218 453.59555054 C193.47883797 455.07755951 193.47883797 455.07755951 193.50253296 456.58950806 C193.50591977 470.93966552 189.45652101 482.51365016 179.64311218 492.93539429 C166.92844576 504.88918304 151.37748044 504.7112692 134.97294617 504.65560913 C132.94963804 504.65968054 130.92633214 504.6650256 128.9030304 504.67153931 C123.43824462 504.68515004 117.97362983 504.67994035 112.50884128 504.67040205 C106.7738137 504.66277404 101.03880016 504.66985966 95.30377197 504.67456055 C85.67638029 504.68000853 76.0490578 504.67285117 66.42167664 504.65853882 C55.30964441 504.64220955 44.19777732 504.64750675 33.08574909 504.66401803 C23.52361659 504.67765465 13.96153365 504.67954206 4.39939457 504.67170203 C-1.30228215 504.66703808 -7.00388139 504.66636552 -12.70555305 504.67631149 C-18.06631154 504.68501073 -23.42685812 504.67890531 -28.78759384 504.66162872 C-30.74868735 504.65767985 -32.70979886 504.65877033 -34.67088509 504.66541672 C-51.18868834 504.71621447 -65.14741635 503.22820619 -77.72798157 491.53695679 C-87.55268576 480.96630283 -89.28844306 469.44576542 -89.23176575 455.52296448 C-89.23666011 454.0305669 -89.24285243 452.53817312 -89.25022364 451.04578573 C-89.26657722 446.9618601 -89.26431461 442.87812809 -89.25884867 438.79418123 C-89.2561728 434.38300182 -89.27072071 429.97187337 -89.28294373 425.56071472 C-89.30397647 416.92513751 -89.30853981 408.28962747 -89.30675584 399.65402766 C-89.30544712 392.63297887 -89.30925797 385.611951 -89.31668091 378.59090614 C-89.31878015 376.56685188 -89.32087775 374.54279761 -89.32297373 372.51874334 C-89.32401726 371.51124527 -89.32506078 370.50374721 -89.32613593 369.4657189 C-89.34502964 350.42010551 -89.34399078 331.37453064 -89.33716661 312.32891176 C-89.33159188 294.91670793 -89.35241515 277.50465126 -89.38552707 260.09248181 C-89.41928423 242.20176994 -89.43442988 224.31112853 -89.42981005 206.42038423 C-89.4275674 196.38087604 -89.43277864 186.34150387 -89.45770264 176.30202293 C-89.47874191 167.75473429 -89.4822817 159.20765624 -89.46340305 150.66035887 C-89.45426137 146.3023202 -89.45305382 141.94467392 -89.4737587 137.58666611 C-89.49253118 133.59108799 -89.48789585 129.59622191 -89.46521288 125.60067037 C-89.46104285 124.1612996 -89.46517309 122.72187355 -89.47880882 121.28256132 C-89.60032389 107.50959689 -85.86363182 96.59023805 -76.25141907 86.62289429 C-64.26733142 75.51088814 -50.21772309 74.9674823 -34.77485657 75.14242554 C-33.22603423 75.15247546 -31.67720558 75.16159775 -30.12837219 75.16976929 C-26.36454228 75.19162347 -22.60102034 75.22604211 -18.83735657 75.26742554 C-18.84623901 74.52097778 -18.85512146 73.77453003 -18.86427307 73.00546265 C-18.94467875 65.94426022 -19.0054521 58.88321842 -19.04460526 51.82168579 C-19.06541172 48.19190823 -19.0936001 44.56251139 -19.13911438 40.93295288 C-19.18282316 37.42511291 -19.20654578 33.91763734 -19.21686554 30.4095459 C-19.2277691 28.4309791 -19.25895491 26.45255733 -19.2905426 24.47421265 C-19.29233237 17.24306019 -18.81895563 12.37778224 -14.83735657 6.26742554 C-10.48853822 2.03011535 -6.07051901 0.0248643 0 0 Z M-5.83735657 15.26742554 C-6.75565132 18.02230978 -6.96113381 19.62674769 -6.95761108 22.46253967 C-6.95898858 23.31472171 -6.96036608 24.16690374 -6.96178532 25.04490948 C-6.95818721 25.98031976 -6.9545891 26.91573004 -6.95088196 27.87948608 C-6.95100249 28.88097844 -6.95112303 29.8824708 -6.95124722 30.91431141 C-6.95049994 34.16094484 -6.94288006 37.4075211 -6.93501282 40.65414429 C-6.93354283 42.6566261 -6.93252247 44.6591083 -6.93196106 46.66159058 C-6.9267148 54.09270808 -6.91275364 61.52381737 -6.89985657 68.95492554 C-6.87923157 85.55805054 -6.85860657 102.16117554 -6.83735657 119.26742554 C31.77264343 119.26742554 70.38264343 119.26742554 110.16264343 119.26742554 C110.31733093 94.17711304 110.31733093 94.17711304 110.47514343 68.57992554 C110.54342346 60.66052979 110.54342346 60.66052979 110.61308289 52.58114624 C110.62980608 47.84442191 110.62980608 47.84442191 110.63986206 43.10768127 C110.64753505 40.999514 110.66511057 38.89136854 110.69052124 36.78334045 C110.7271104 33.58795107 110.7321741 30.39390116 110.73027039 27.19833374 C110.7572562 25.7919601 110.7572562 25.7919601 110.78478718 24.35717487 C110.75118669 20.14541529 110.5103537 17.83445198 108.27256775 14.18519592 C103.78458148 11.41762788 100.0166909 11.58181118 94.83622742 11.65219116 C93.79829041 11.64664215 92.76035339 11.64109314 91.69096375 11.63537598 C88.26308405 11.62357343 84.83652426 11.64786093 81.40873718 11.67367554 C79.02650004 11.67538639 76.64426102 11.67532121 74.26202393 11.67355347 C69.27111281 11.67520702 64.2806507 11.69391376 59.2898407 11.72543335 C52.88816814 11.76513207 46.48708324 11.76947623 40.08531094 11.76197052 C35.16713057 11.75890326 30.24908266 11.7710124 25.33093452 11.7881012 C22.9701985 11.79513865 20.60944746 11.79825483 18.2487011 11.79740906 C14.95207881 11.79920387 11.65616494 11.8205588 8.35966492 11.84750366 C6.89222588 11.84310776 6.89222588 11.84310776 5.3951416 11.83862305 C4.04726059 11.85564774 4.04726059 11.85564774 2.67214966 11.87301636 C1.50383936 11.87860943 1.50383936 11.87860943 0.31192684 11.88431549 C-2.43623692 12.37417604 -3.80954163 13.37376883 -5.83735657 15.26742554 Z M-62.83735657 92.26742554 C-63.64688782 92.79723022 -64.45641907 93.32703491 -65.29048157 93.87289429 C-70.99841376 98.89835632 -75.31203045 104.68834075 -76.83735657 112.26742554 C-76.93069092 114.26855804 -76.96823358 116.27254517 -76.97157764 118.2758503 C-76.97603549 119.51425293 -76.98049333 120.75265557 -76.98508626 122.02858555 C-76.98499697 123.40516544 -76.98480712 124.78174533 -76.98452759 126.1583252 C-76.98782719 127.61895561 -76.99155296 129.07958512 -76.99566907 130.54021347 C-77.00568623 134.55943002 -77.0094054 138.57863164 -77.01205838 142.59785891 C-77.01596226 146.93067846 -77.02554054 151.2634862 -77.03427124 155.59629822 C-77.05403313 166.06269475 -77.06410146 176.52909225 -77.07299903 186.99550277 C-77.07738233 191.92438973 -77.08274903 196.85327561 -77.0879879 201.78216171 C-77.10499981 218.16696767 -77.11949403 234.55177295 -77.12673664 250.93658638 C-77.12864653 255.18846767 -77.13056687 259.44034896 -77.13252258 263.69223022 C-77.13300632 264.74901336 -77.13349006 265.80579649 -77.13398846 266.89460336 C-77.14228897 284.01422218 -77.16762641 301.13377114 -77.20010326 318.25335945 C-77.23317485 335.82974866 -77.25118549 353.40610236 -77.25438088 370.98252285 C-77.25654587 380.85100377 -77.26529293 390.7193828 -77.29084206 400.5878334 C-77.31255039 408.99216968 -77.3205988 417.39637931 -77.31087527 425.80074044 C-77.30633098 430.08757018 -77.30822425 434.37413864 -77.32763672 438.66093254 C-77.34527206 442.58927626 -77.34426789 446.51716814 -77.32873943 450.44551669 C-77.3263639 451.86279863 -77.3306841 453.28011188 -77.34256808 454.69734599 C-77.43745264 466.76530674 -75.4326593 475.50444279 -66.97016907 484.35726929 C-56.27095902 493.93952883 -41.18978085 492.55798833 -27.77680969 492.5262146 C-25.85069649 492.528928 -23.92458433 492.53249089 -21.99847412 492.53683472 C-16.7898572 492.54591943 -11.58131988 492.54243065 -6.37270164 492.53607655 C-0.90946114 492.53099624 4.55377276 492.53571363 10.01701355 492.53884888 C19.18975543 492.54248261 28.36246505 492.53770499 37.53520203 492.52816772 C48.12458808 492.51728433 58.71389711 492.52081033 69.30328131 492.53182054 C78.41185078 492.54091031 87.52039713 492.54217042 96.62896967 492.5369432 C102.06179217 492.5338328 107.49457853 492.53338856 112.92739868 492.54001617 C118.03610764 492.5458136 123.14471773 492.54174897 128.25341606 492.53022766 C130.12301406 492.52759388 131.99262044 492.52832414 133.86221504 492.53275299 C154.42058663 492.77128088 154.42058663 492.77128088 171.91264343 483.01742554 C177.47456076 477.12534873 180.28348204 470.41731967 180.29686451 462.34802055 C180.30355128 460.48202794 180.30355128 460.48202794 180.31037313 458.5783385 C180.31028383 457.19026684 180.31009397 455.80219518 180.30981445 454.41412354 C180.31311307 452.94539388 180.31683863 451.47666514 180.32095593 450.00793755 C180.33098446 445.9617279 180.3346941 441.91553308 180.33734524 437.86931276 C180.3412458 433.509228 180.35082435 429.14915501 180.35955811 424.78907776 C180.37933012 414.25404431 180.38938991 403.71900989 180.3982859 393.18396252 C180.40266781 388.2240624 180.40803489 383.26416335 180.41327477 378.30426407 C180.4302882 361.81827198 180.44478247 345.33228057 180.45202351 328.84628105 C180.45393344 324.56706618 180.45585376 320.28785132 180.45780945 316.00863647 C180.45829319 314.9450443 180.45877693 313.88145212 180.45927533 312.78562988 C180.46757598 295.55534118 180.49291299 278.3251219 180.52539013 261.09486352 C180.55845468 243.4088996 180.57647174 225.72297097 180.57966775 208.03697598 C180.58183346 198.10535512 180.59059105 188.17383547 180.61612892 178.24224472 C180.6378277 169.78405707 180.6458904 161.32599521 180.63616214 152.86778288 C180.63161498 148.55273092 180.63352773 144.23793855 180.65292358 139.92292213 C180.6705386 135.96991934 180.66957125 132.01736582 180.65402629 128.06435837 C180.65164767 126.63697023 180.65598706 125.20955112 180.66785494 123.78221034 C180.75793093 112.23003304 178.8950501 104.50508664 170.95561218 95.99008179 C164.39376379 89.68556078 157.81687889 87.94710332 148.92045593 88.07211304 C148.15208405 88.07494293 147.38371216 88.07777283 146.59205627 88.08068848 C144.15708823 88.09181243 141.72249882 88.11690193 139.28764343 88.14242554 C137.62879461 88.15246543 135.96993997 88.16158951 134.31108093 88.16976929 C130.26134134 88.19001799 126.21241225 88.22918008 122.16264343 88.26742554 C122.16264343 98.49742554 122.16264343 108.72742554 122.16264343 119.26742554 C127.66703464 119.5563439 127.66703464 119.5563439 133.17192078 119.83554077 C138.94042121 120.15631443 138.94042121 120.15631443 141.16264343 121.26742554 C141.26029968 127.41976929 141.26029968 127.41976929 141.16264343 129.26742554 C140.16264343 130.26742554 140.16264343 130.26742554 137.27532101 130.39047337 C135.97098393 130.38955157 134.66664686 130.38862978 133.32278442 130.38768005 C132.23731963 130.38896169 132.23731963 130.38896169 131.12992626 130.39026922 C128.68694997 130.39192616 126.24404121 130.38639919 123.80107117 130.38095093 C122.05710349 130.38066908 120.3131357 130.38082675 118.56916809 130.38139343 C113.81936849 130.38168149 109.0695939 130.37578351 104.31980014 130.36881948 C99.36165921 130.36258723 94.40351777 130.36198224 89.44537354 130.36079407 C80.04954515 130.35768037 70.65372834 130.34946647 61.25790507 130.33944458 C50.56401194 130.32828463 39.87011827 130.32277329 29.17622077 130.31774914 C7.17168852 130.30728388 -14.83283329 130.2896837 -36.83735657 130.26742554 C-38.86860657 125.54867554 -38.86860657 125.54867554 -38.58735657 123.01742554 C-37.83735657 121.26742554 -37.83735657 121.26742554 -35.83735657 120.26742554 C-32.9566792 120.03455641 -30.09723138 119.84796613 -27.21235657 119.70492554 C-23.06673157 119.48836304 -23.06673157 119.48836304 -18.83735657 119.26742554 C-18.83735657 109.03742554 -18.83735657 98.80742554 -18.83735657 88.26742554 C-23.65808103 88.17506466 -28.47567728 88.09559672 -33.29658508 88.04769897 C-34.9327592 88.02771222 -36.56886308 88.00051311 -38.20478821 87.96566772 C-51.09881673 87.49821051 -51.09881673 87.49821051 -62.83735657 92.26742554 Z M193.16264343 174.26742554 C193.16264343 250.49742554 193.16264343 326.72742554 193.16264343 405.26742554 C200.09264343 403.28742554 207.02264343 401.30742554 214.16264343 399.26742554 C216.09722042 380.22363837 217.53487279 361.14731181 218.93193054 342.05795288 C219.20881507 338.28392649 219.49329555 334.51059073 219.7844696 330.73764038 C222.09367088 302.74091406 222.09367088 302.74091406 221.43501282 274.7024231 C221.09342807 270.39451315 220.80840902 266.08374405 220.52275085 261.77182007 C219.84049624 251.56427933 219.10923771 241.36056524 218.37089539 231.1569519 C218.09104336 227.273964 217.81546232 223.39067753 217.53987122 219.50738525 C217.27234919 215.74454427 217.00239273 211.98188104 216.73167419 208.2192688 C216.60341098 206.43322679 216.47583549 204.64713525 216.34898376 202.86099243 C216.17211929 200.37649563 215.99203006 197.89225276 215.81108093 195.40805054 C215.76014282 194.68388947 215.70920471 193.95972839 215.65672302 193.21362305 C215.33529579 188.8579181 214.82522721 184.5809093 214.16264343 180.26742554 C211.03912116 179.26276825 207.91359491 178.26449627 204.78764343 177.26742554 C203.89819031 176.98125366 203.00873718 176.69508179 202.09233093 176.40023804 C201.24154968 176.12953491 200.39076843 175.85883179 199.51420593 175.57992554 C198.72868347 175.32855835 197.94316101 175.07719116 197.13383484 174.81820679 C195.18272238 174.17772294 195.18272238 174.17772294 193.16264343 174.26742554 Z M228.16264343 205.26742554 C228.82264343 215.49742554 229.48264343 225.72742554 230.16264343 236.26742554 C282.96264343 236.26742554 335.76264343 236.26742554 390.16264343 236.26742554 C390.16264343 227.35742554 390.16264343 218.44742554 390.16264343 209.26742554 C386.73908209 205.06848834 386.73908209 205.06848834 383.20290756 204.77523422 C382.0414484 204.77892139 380.87998924 204.78260857 379.68333435 204.78640747 C378.71040589 204.78128092 378.71040589 204.78128092 377.71782231 204.77605081 C375.54630919 204.76946663 373.37603466 204.79145441 371.20463562 204.81332397 C369.64741546 204.81445235 368.09019317 204.81381879 366.53297424 204.81155396 C362.30588696 204.81040547 358.07925295 204.83393626 353.85227108 204.86184978 C349.43469473 204.88684119 345.01710818 204.88920365 340.59947205 204.89395142 C332.23425347 204.90638786 323.8692438 204.93921847 315.50411725 204.97934937 C305.98065599 205.02404631 296.4571848 205.04604889 286.93364477 205.06613111 C267.34316847 205.1079506 247.75297856 205.18131126 228.16264343 205.26742554 Z M231.16264343 248.26742554 C231.62146548 259.83622294 231.62146548 259.83622294 233.16264343 271.26742554 C284.97264343 271.26742554 336.78264343 271.26742554 390.16264343 271.26742554 C390.16264343 263.67742554 390.16264343 256.08742554 390.16264343 248.26742554 C337.69264343 248.26742554 285.22264343 248.26742554 231.16264343 248.26742554 Z M234.16264343 283.26742554 C233.17264343 297.35430054 232.18264343 311.44117554 231.16264343 325.95492554 C230.84940125 330.39921021 230.53615906 334.84349487 230.21342468 339.42245483 C229.9337742 343.41405393 229.9337742 343.41405393 229.65458679 347.40568542 C229.53022689 349.18051066 229.40517995 350.95528785 229.27958679 352.73002625 C229.08924244 355.42166222 228.90109365 358.11344368 228.71342468 360.80526733 C228.65721451 361.59295596 228.60100433 362.38064459 228.54309082 363.19220257 C228.2872987 366.89352635 228.13926174 370.55832715 228.16264343 374.26742554 C248.69415767 374.36081684 269.22563694 374.4313792 289.7573204 374.47467422 C299.29028671 374.4953101 308.82312114 374.52345025 318.35600281 374.56918335 C326.66369693 374.60901977 334.97129556 374.63485089 343.27908254 374.64377952 C347.67909772 374.6489997 352.07883968 374.66129016 356.4787674 374.69034576 C360.61887508 374.7174645 364.75859657 374.72587779 368.89878464 374.71985626 C370.41937991 374.7209581 371.93998789 374.72893331 373.46050644 374.74424744 C375.53525871 374.76412132 377.60854895 374.75937605 379.68333435 374.7484436 C381.42552309 374.75397436 381.42552309 374.75397436 383.20290756 374.75961685 C386.82466854 374.15733362 388.00461611 373.19740713 390.16264343 370.26742554 C390.53667996 367.3251093 390.66955912 364.7650606 390.616745 361.82699585 C390.6174682 360.53273241 390.6174682 360.53273241 390.61820602 359.21232224 C390.61522354 356.42297677 390.58477915 353.63470437 390.55326843 350.84555054 C390.5473863 349.12208572 390.5433062 347.39861377 390.5410614 345.67514038 C390.52010136 339.28912636 390.46425633 332.90326538 390.41264343 326.51742554 C390.33014343 312.24492554 390.24764343 297.97242554 390.16264343 283.26742554 C338.68264343 283.26742554 287.20264343 283.26742554 234.16264343 283.26742554 Z " fill="#000000" transform="translate(99.83735656738281,4.732574462890625)"/>
<path d="M0 0 C1.23965488 -0.00551503 1.23965488 -0.00551503 2.50435328 -0.01114148 C5.28950912 -0.02220499 8.07462769 -0.02602667 10.85980225 -0.02983093 C12.85033793 -0.03609357 14.84087243 -0.04274019 16.83140564 -0.04974365 C22.25093465 -0.06717193 27.67045482 -0.07771038 33.09000492 -0.08594918 C36.47409532 -0.09109543 39.85818297 -0.09717133 43.24227142 -0.10346031 C53.8248857 -0.12251743 64.40749298 -0.13674749 74.99012113 -0.14507228 C87.21599239 -0.1548478 99.44168274 -0.18117346 111.66749024 -0.22157317 C121.11043525 -0.25170882 130.55332832 -0.26653873 139.99632049 -0.26985329 C145.63935471 -0.27220668 151.28219578 -0.28120471 156.92517853 -0.30631447 C162.2340962 -0.32955551 167.54269302 -0.33384434 172.85164833 -0.32355309 C174.80033496 -0.32305665 176.74903717 -0.32940871 178.6976757 -0.34310913 C181.35832558 -0.36076894 184.01781662 -0.35375124 186.6784668 -0.34057617 C187.44948801 -0.35154542 188.22050923 -0.36251466 189.01489472 -0.37381631 C194.19404331 -0.31190616 197.09320675 0.90000971 201.09320068 4.14717102 C206.10212797 9.56222755 206.24418818 13.84417917 206.27020264 21.00166321 C206.27677383 21.78918976 206.28334503 22.57671631 206.29011536 23.3881073 C206.3097988 25.99008793 206.32150012 28.59201095 206.33148193 31.19404602 C206.33555746 32.08506264 206.33963299 32.97607925 206.34383202 33.89409637 C206.36467202 38.61061367 206.37898247 43.32710205 206.3883667 48.0436554 C206.39942454 52.90362764 206.43382312 57.76314123 206.4735384 62.62295151 C206.49973997 66.3703036 206.50806169 70.11754698 206.51164818 73.8649826 C206.51650526 75.65586188 206.52809414 77.44673659 206.54668617 79.23752594 C206.57115281 81.75041609 206.57009923 84.2621268 206.56317139 86.77510071 C206.58238647 87.87267197 206.58238647 87.87267197 206.60198975 88.99241638 C206.54769533 94.42807886 205.07537124 98.59154489 202.09320068 103.14717102 C197.03664226 107.95706806 192.8663036 108.29595342 186.14880371 108.29434204 C185.33038537 108.29801873 184.51196703 108.30169542 183.66874814 108.30548352 C180.91667134 108.31652763 178.16463228 108.32036543 175.41253662 108.32417297 C173.44318013 108.33043705 171.47382483 108.3370838 169.50447083 108.34408569 C164.14691542 108.36149989 158.78936895 108.3720485 153.43179226 108.38029122 C150.08537834 108.38544026 146.7389672 108.39151603 143.39255524 108.39780235 C132.92473858 108.41685521 122.45692898 108.43108641 111.98909831 108.43941432 C99.9013474 108.4491895 87.81377947 108.47551603 75.72609305 108.51591522 C66.38587148 108.5460619 57.04570241 108.56088181 47.70543313 108.56419533 C42.12553815 108.56654736 36.54583863 108.57552784 30.96599579 108.60065651 C25.71615657 108.62391697 20.46664181 108.62817853 15.21676445 108.61789513 C13.29107268 108.61739917 11.36536506 108.62373709 9.43972206 108.63745117 C6.80793652 108.65514396 4.17731868 108.64807706 1.54553223 108.63491821 C0.40606569 108.65137208 0.40606569 108.65137208 -0.75642037 108.66815835 C-6.2157746 108.60238629 -9.4045963 107.26524465 -13.90679932 104.14717102 C-18.28158381 98.50600154 -19.05765321 94.23330374 -19.06793213 87.28266907 C-19.07289703 86.48232239 -19.07786194 85.68197571 -19.08297729 84.8573761 C-19.09758996 82.20787192 -19.10439965 79.55842763 -19.10992432 76.90888977 C-19.11567679 75.06667072 -19.12143451 73.22445168 -19.12719727 71.38223267 C-19.1377049 67.51782451 -19.14354903 63.65343715 -19.14703369 59.78901672 C-19.15251596 54.84258761 -19.17653927 49.89643409 -19.20500565 44.95009136 C-19.22365042 41.14362796 -19.22883862 37.33723068 -19.23036957 33.53072548 C-19.23339279 31.70750739 -19.24141018 29.88429038 -19.25455475 28.06111717 C-19.27165274 25.50715182 -19.26972589 22.9538563 -19.26324463 20.39985657 C-19.27245941 19.65003006 -19.28167419 18.90020355 -19.29116821 18.12765503 C-19.24811983 12.69912183 -18.12685906 8.52540296 -14.37164307 4.50263977 C-9.21879959 0.56223005 -6.3667611 -0.00150497 0 0 Z M-5.90679932 13.14717102 C-6.01778576 15.66169398 -6.0641862 18.14901283 -6.06793213 20.664505 C-6.07289703 21.45147766 -6.07786194 22.23845032 -6.08297729 23.04927063 C-6.09763477 25.66394409 -6.10440647 28.2785569 -6.10992432 30.89326477 C-6.11567235 32.70308434 -6.12143012 34.51290388 -6.12719727 36.32272339 C-6.13771715 40.12171209 -6.1435535 43.92067956 -6.14703369 47.71968079 C-6.15252372 52.59706073 -6.17655835 57.47416224 -6.20500565 62.35145473 C-6.2235917 66.0908491 -6.22883544 69.83017583 -6.23036957 73.5696125 C-6.23340524 75.36822598 -6.24146434 77.16683802 -6.25455475 78.96540642 C-6.27153321 81.47730322 -6.26975554 83.98851226 -6.26324463 86.5004425 C-6.27245941 87.24909073 -6.28167419 87.99773895 -6.29116821 88.76907349 C-6.3078369 91.05038785 -6.3078369 91.05038785 -5.90679932 94.14717102 C-2.23238457 96.59678085 0.51270212 96.42674419 4.76080322 96.40113831 C5.54937541 96.40425829 6.33794759 96.40737827 7.1504159 96.41059279 C9.80134134 96.41859072 12.45203902 96.4122422 15.10296631 96.40596008 C16.99999628 96.40866915 18.8970252 96.4122296 20.79405212 96.4165802 C25.95302841 96.42571651 31.11192491 96.42215483 36.27090263 96.41582203 C41.66272069 96.41076846 47.05453178 96.41545169 52.4463501 96.41859436 C61.50198598 96.42223588 70.55758928 96.41743002 79.61322021 96.40791321 C90.0918325 96.39702831 100.57036697 96.40055376 111.04897738 96.41156602 C120.03585366 96.42063359 129.02270648 96.42192677 138.00958586 96.41668868 C143.38136795 96.41356606 148.75311343 96.41316764 154.12489319 96.41976166 C159.17439236 96.42552678 164.22379092 96.42155352 169.27327919 96.40997314 C171.12968593 96.40732209 172.98610109 96.4080992 174.8425045 96.41249847 C177.37031783 96.41793784 179.89780573 96.4111395 182.42559814 96.40113831 C183.16576628 96.40559975 183.90593442 96.41006119 184.66853189 96.41465783 C188.36716072 96.38613971 189.9295448 96.25627494 193.09320068 94.14717102 C193.37964751 91.51459349 193.47163812 89.1180526 193.43377686 86.48457336 C193.43421494 85.6942421 193.43465302 84.90391083 193.43510437 84.08963013 C193.43301 81.47054052 193.40964895 78.85208665 193.38616943 76.23310852 C193.38057577 74.41993052 193.37630459 72.60674799 193.37330627 70.79356384 C193.36183937 66.01602205 193.33235644 61.23875288 193.29919434 56.46131897 C193.26853312 51.58841134 193.2548094 46.71545976 193.23968506 41.84248352 C193.20748841 32.27725942 193.15626989 22.71223787 193.09320068 13.14717102 C190.01811345 11.6096274 186.79253347 12.01023321 183.41850281 12.02018738 C182.61712326 12.01862739 181.81574371 12.0170674 180.99007994 12.01546013 C178.28997874 12.01145391 175.58993322 12.01463832 172.88983154 12.01777649 C170.96014879 12.01642229 169.0304663 12.01464226 167.1007843 12.01246643 C161.84893055 12.0078946 156.59709637 12.00968056 151.34524226 12.01284552 C145.86039472 12.01537004 140.3755489 12.01303136 134.89070129 12.01145935 C125.6794708 12.00963808 116.46824832 12.01204302 107.25701904 12.01679993 C96.59152362 12.02224408 85.92604731 12.02047861 75.26055235 12.01497352 C66.11916913 12.01044311 56.97779169 12.00979144 47.83640772 12.01241219 C42.36966899 12.01397515 36.90293926 12.01416817 31.4362011 12.0108757 C26.29892642 12.00799797 21.16167651 12.00997086 16.02440453 12.01576996 C14.13329357 12.01709802 12.24218055 12.01670267 10.3510704 12.01450729 C7.78098994 12.01179762 5.21099016 12.01517463 2.64091492 12.02018738 C1.88256613 12.01795666 1.12421735 12.01572593 0.3428883 12.01342762 C-3.06983824 11.72081166 -3.06983824 11.72081166 -5.90679932 13.14717102 Z " fill="#000000" transform="translate(57.90679931640625,160.8528289794922)"/>
<path d="M0 0 C7.41327235 5.34301067 13.03243356 12.39292051 14.5859375 21.55859375 C15.43693438 30.79988797 14.36825082 39.072367 9.0078125 46.84765625 C3.88250314 53.01187967 -1.62078278 57.43569318 -9.4140625 59.55859375 C-20.46760278 60.55294988 -30.05473789 59.88908673 -39.1640625 52.93359375 C-45.83756123 46.73451436 -49.41404186 39.11890804 -49.80883789 30.12695312 C-50.01418926 20.1855999 -47.99192444 12.95266364 -41.3984375 5.18359375 C-30.23495911 -5.73894626 -13.53577583 -8.08204091 0 0 Z M-33.2265625 15.49609375 C-37.20885628 21.07130504 -38.32000479 25.77535086 -37.4140625 32.55859375 C-35.25784709 39.40702791 -31.29839751 43.29273166 -25.1640625 46.87109375 C-19.68723114 48.24030159 -14.42722038 48.28029186 -9.1015625 46.37109375 C-3.93658307 42.88773553 0.43302677 38.73063763 2.12890625 32.59375 C3.25402958 26.2551839 2.01001216 21.00388768 -1.4140625 15.55859375 C-7.39942055 9.72670642 -12.12555038 8.19252424 -20.3671875 8.28125 C-26.01353893 8.79521276 -29.47557113 11.30062074 -33.2265625 15.49609375 Z " fill="#000000" transform="translate(459.4140625,310.44140625)"/>
<path d="M0 0 C0.84129959 -0.00960754 1.68259918 -0.01921509 2.5493927 -0.02911377 C3.90879219 -0.03548859 3.90879219 -0.03548859 5.2956543 -0.04199219 C6.23160934 -0.04769226 7.16756439 -0.05339233 8.13188171 -0.05926514 C10.11313752 -0.06871201 12.09440901 -0.07524788 14.07568359 -0.07910156 C17.09785591 -0.08879656 20.11934502 -0.11981857 23.14135742 -0.15136719 C25.06778568 -0.15789857 26.9942188 -0.16314851 28.9206543 -0.16699219 C30.27094475 -0.18551239 30.27094475 -0.18551239 31.64851379 -0.20440674 C36.79690247 -0.18624545 40.35331587 0.2868801 44.80737305 3.16113281 C50.6336312 9.31107197 51.1495801 14.92016614 51.11987305 23.03613281 C51.13598633 23.90882813 51.15209961 24.78152344 51.16870117 25.68066406 C51.17395639 32.67010673 50.01538248 37.40112102 45.55737305 42.97363281 C40.20670167 47.22984868 34.14710751 47.46364553 27.5300293 47.42675781 C26.7598497 47.42867126 25.9896701 47.43058472 25.19615173 47.43255615 C23.57672802 47.43390944 21.95729313 47.43027322 20.33789062 47.421875 C17.8802005 47.41117776 15.42324366 47.42179172 12.96557617 47.43457031 C11.38289229 47.43324828 9.80020886 47.43068498 8.2175293 47.42675781 C7.49332291 47.43080627 6.76911652 47.43485474 6.02296448 47.43902588 C-0.13555329 47.38336631 -6.00880403 46.85966175 -11.00512695 42.97363281 C-15.95679715 36.6071997 -16.69483995 31.06567167 -16.63012695 23.22363281 C-16.65010742 22.36833984 -16.67008789 21.51304687 -16.69067383 20.63183594 C-16.68612295 14.66564114 -15.57012365 10.13450785 -12.19262695 5.16113281 C-8.33432739 1.49104299 -5.28918111 0.0488608 0 0 Z M-3.19262695 14.16113281 C-3.63914167 16.05652917 -3.63914167 16.05652917 -3.5559082 18.22363281 C-3.55526367 19.02027344 -3.55461914 19.81691406 -3.55395508 20.63769531 C-3.5378418 21.47042969 -3.52172852 22.30316406 -3.50512695 23.16113281 C-3.50834961 23.99386719 -3.51157227 24.82660156 -3.51489258 25.68457031 C-3.72229834 30.42884954 -3.72229834 30.42884954 -1.19262695 34.16113281 C1.58090382 34.34871187 4.25277949 34.41673979 7.02612305 34.39160156 C7.83980347 34.39114334 8.65348389 34.39068512 9.49182129 34.39021301 C11.21339373 34.38718992 12.93496341 34.37930191 14.65649414 34.36694336 C17.29672907 34.34870633 19.93661301 34.34643353 22.5769043 34.34667969 C24.24748026 34.34176376 25.91805383 34.33593511 27.58862305 34.32910156 C28.3813562 34.32798874 29.17408936 34.32687592 29.99084473 34.32572937 C34.03000304 34.3825055 34.03000304 34.3825055 37.80737305 33.16113281 C37.89424801 30.03630719 37.94771873 26.91179035 37.99487305 23.78613281 C38.02000977 22.89667969 38.04514648 22.00722656 38.07104492 21.09082031 C38.08554687 19.81464844 38.08554687 19.81464844 38.1003418 18.51269531 C38.12390747 17.33441162 38.12390747 17.33441162 38.14794922 16.13232422 C38.03555908 15.48183105 37.92316895 14.83133789 37.80737305 14.16113281 C34.10176584 11.69072801 31.2507835 11.87207497 26.96362305 11.89550781 C26.19812134 11.89359436 25.43261963 11.89168091 24.6439209 11.88970947 C23.02668936 11.88834948 21.40944684 11.89203295 19.79223633 11.90039062 C17.31656375 11.91109308 14.8416168 11.90048937 12.3659668 11.88769531 C10.79435061 11.88901694 9.22273488 11.8915794 7.65112305 11.89550781 C6.91043579 11.89145935 6.16974854 11.88741089 5.40661621 11.88323975 C1.66288236 11.91740467 0.00272472 12.03089836 -3.19262695 14.16113281 Z " fill="#000000" transform="translate(218.192626953125,424.8388671875)"/>
<path d="M0 0 C0.84129959 -0.00960754 1.68259918 -0.01921509 2.5493927 -0.02911377 C3.90879219 -0.03548859 3.90879219 -0.03548859 5.2956543 -0.04199219 C6.23160934 -0.04769226 7.16756439 -0.05339233 8.13188171 -0.05926514 C10.11313752 -0.06871201 12.09440901 -0.07524788 14.07568359 -0.07910156 C17.09785591 -0.08879656 20.11934502 -0.11981857 23.14135742 -0.15136719 C25.06778568 -0.15789857 26.9942188 -0.16314851 28.9206543 -0.16699219 C30.27094475 -0.18551239 30.27094475 -0.18551239 31.64851379 -0.20440674 C37.51252368 -0.18372105 41.9003956 0.57178236 46.4519043 4.62597656 C51.21201115 10.62785042 51.01450644 15.58450181 51.05737305 22.97363281 C51.07799805 23.85083984 51.09862305 24.72804688 51.11987305 25.63183594 C51.16195889 32.66543197 50.04671882 37.3619506 45.55737305 42.97363281 C40.20670167 47.22984868 34.14710751 47.46364553 27.5300293 47.42675781 C26.7598497 47.42867126 25.9896701 47.43058472 25.19615173 47.43255615 C23.57672802 47.43390944 21.95729313 47.43027322 20.33789062 47.421875 C17.8802005 47.41117776 15.42324366 47.42179172 12.96557617 47.43457031 C11.38289229 47.43324828 9.80020886 47.43068498 8.2175293 47.42675781 C7.49332291 47.43080627 6.76911652 47.43485474 6.02296448 47.43902588 C-0.13555329 47.38336631 -6.00880403 46.85966175 -11.00512695 42.97363281 C-15.84671492 36.748734 -16.67721166 31.38847444 -16.56762695 23.72363281 C-16.57922852 22.91603516 -16.59083008 22.1084375 -16.6027832 21.27636719 C-16.57411541 15.34691224 -15.93918593 9.19361416 -11.77612305 4.59716797 C-7.99494812 1.31735142 -4.92223103 0.04547096 0 0 Z M-3.19262695 14.16113281 C-3.63914167 16.05652917 -3.63914167 16.05652917 -3.5559082 18.22363281 C-3.55526367 19.02027344 -3.55461914 19.81691406 -3.55395508 20.63769531 C-3.5378418 21.47042969 -3.52172852 22.30316406 -3.50512695 23.16113281 C-3.50834961 23.99386719 -3.51157227 24.82660156 -3.51489258 25.68457031 C-3.72229834 30.42884954 -3.72229834 30.42884954 -1.19262695 34.16113281 C1.66451769 34.34874312 4.42303291 34.41670599 7.2800293 34.39160156 C8.11827744 34.39114334 8.95652557 34.39068512 9.82017517 34.39021301 C11.5930218 34.38719005 13.36586575 34.37930244 15.13867188 34.36694336 C17.86231827 34.34868346 20.58562496 34.34643367 23.30932617 34.34667969 C25.02873017 34.34176473 26.74813186 34.33593651 28.4675293 34.32910156 C29.69718163 34.32743233 29.69718163 34.32743233 30.95167542 34.32572937 C34.68392453 34.65171772 34.68392453 34.65171772 37.80737305 33.16113281 C38.08424192 30.02370514 38.03910934 26.87184004 38.05737305 23.72363281 C38.07799805 22.83869141 38.09862305 21.95375 38.11987305 21.04199219 C38.1250293 20.19572266 38.13018555 19.34945313 38.13549805 18.47753906 C38.14484375 17.69838135 38.15418945 16.91922363 38.16381836 16.11645508 C38.04619141 15.47119873 37.92856445 14.82594238 37.80737305 14.16113281 C34.10176584 11.69072801 31.2507835 11.87207497 26.96362305 11.89550781 C26.19812134 11.89359436 25.43261963 11.89168091 24.6439209 11.88970947 C23.02668936 11.88834948 21.40944684 11.89203295 19.79223633 11.90039062 C17.31656375 11.91109308 14.8416168 11.90048937 12.3659668 11.88769531 C10.79435061 11.88901694 9.22273488 11.8915794 7.65112305 11.89550781 C6.91043579 11.89145935 6.16974854 11.88741089 5.40661621 11.88323975 C1.66288236 11.91740467 0.00272472 12.03089836 -3.19262695 14.16113281 Z " fill="#000000" transform="translate(134.192626953125,424.8388671875)"/>
<path d="M0 0 C0.84129959 -0.00960754 1.68259918 -0.01921509 2.5493927 -0.02911377 C3.90879219 -0.03548859 3.90879219 -0.03548859 5.2956543 -0.04199219 C6.23160934 -0.04769226 7.16756439 -0.05339233 8.13188171 -0.05926514 C10.11313752 -0.06871201 12.09440901 -0.07524788 14.07568359 -0.07910156 C17.09785591 -0.08879656 20.11934502 -0.11981857 23.14135742 -0.15136719 C25.06778568 -0.15789857 26.9942188 -0.16314851 28.9206543 -0.16699219 C30.27094475 -0.18551239 30.27094475 -0.18551239 31.64851379 -0.20440674 C37.51252368 -0.18372105 41.9003956 0.57178236 46.4519043 4.62597656 C51.28504189 10.71993265 51.04192627 15.8970637 51.11987305 23.41113281 C51.16337891 24.78591797 51.16337891 24.78591797 51.20776367 26.18847656 C51.26468512 32.32723635 50.43185511 37.09039476 46.80737305 42.16113281 C40.80156355 47.14467686 35.26885656 47.31770442 27.7253418 47.32910156 C26.95233231 47.33242996 26.17932281 47.33575836 25.38288879 47.33918762 C23.75152173 47.34423562 22.1201444 47.34659661 20.48876953 47.34643555 C18.01341412 47.34861648 15.5385088 47.36677927 13.06323242 47.38574219 C11.47143706 47.3886778 9.87963959 47.39066147 8.2878418 47.39160156 C7.5573613 47.39878708 6.8268808 47.4059726 6.07426453 47.41337585 C-0.21783841 47.3858782 -6.11348292 46.92388536 -11.06762695 42.72363281 C-16.25951706 36.46282416 -16.39103539 31.15830554 -16.44262695 23.34863281 C-16.46325195 22.57970703 -16.48387695 21.81078125 -16.50512695 21.01855469 C-16.54477352 15.14590626 -15.89905542 9.15107411 -11.77563477 4.59570312 C-7.99361246 1.31763937 -4.92195487 0.04546841 0 0 Z M-3.19262695 14.16113281 C-3.63914167 16.05652917 -3.63914167 16.05652917 -3.5559082 18.22363281 C-3.55526367 19.02027344 -3.55461914 19.81691406 -3.55395508 20.63769531 C-3.5378418 21.47042969 -3.52172852 22.30316406 -3.50512695 23.16113281 C-3.50834961 23.99386719 -3.51157227 24.82660156 -3.51489258 25.68457031 C-3.72229834 30.42884954 -3.72229834 30.42884954 -1.19262695 34.16113281 C1.66451769 34.34874312 4.42303291 34.41670599 7.2800293 34.39160156 C8.11827744 34.39114334 8.95652557 34.39068512 9.82017517 34.39021301 C11.5930218 34.38719005 13.36586575 34.37930244 15.13867188 34.36694336 C17.86231827 34.34868346 20.58562496 34.34643367 23.30932617 34.34667969 C25.02873017 34.34176473 26.74813186 34.33593651 28.4675293 34.32910156 C29.69718163 34.32743233 29.69718163 34.32743233 30.95167542 34.32572937 C34.68392453 34.65171772 34.68392453 34.65171772 37.80737305 33.16113281 C38.08424192 30.02370514 38.03910934 26.87184004 38.05737305 23.72363281 C38.07799805 22.83869141 38.09862305 21.95375 38.11987305 21.04199219 C38.1250293 20.19572266 38.13018555 19.34945313 38.13549805 18.47753906 C38.14484375 17.69838135 38.15418945 16.91922363 38.16381836 16.11645508 C38.04619141 15.47119873 37.92856445 14.82594238 37.80737305 14.16113281 C34.10176584 11.69072801 31.2507835 11.87207497 26.96362305 11.89550781 C26.19812134 11.89359436 25.43261963 11.89168091 24.6439209 11.88970947 C23.02668936 11.88834948 21.40944684 11.89203295 19.79223633 11.90039062 C17.31656375 11.91109308 14.8416168 11.90048937 12.3659668 11.88769531 C10.79435061 11.88901694 9.22273488 11.8915794 7.65112305 11.89550781 C6.91043579 11.89145935 6.16974854 11.88741089 5.40661621 11.88323975 C1.66288236 11.91740467 0.00272472 12.03089836 -3.19262695 14.16113281 Z " fill="#000000" transform="translate(50.192626953125,424.8388671875)"/>
<path d="M0 0 C0.92145813 -0.01283524 1.84291626 -0.02567047 2.79229736 -0.03889465 C4.29068146 -0.04997505 4.29068146 -0.04997505 5.81933594 -0.0612793 C6.84549011 -0.06935104 7.87164429 -0.07742279 8.92889404 -0.08573914 C11.10443427 -0.09958694 13.2799963 -0.11030597 15.45556641 -0.11816406 C18.77646335 -0.13535698 22.09635979 -0.17923526 25.41699219 -0.22338867 C27.53026611 -0.23351724 29.64354851 -0.24203283 31.75683594 -0.2487793 C32.74766174 -0.26628738 33.73848755 -0.28379547 34.75933838 -0.30183411 C40.68656623 -0.28326958 44.03840145 0.23356536 48.55371094 4.17700195 C52.85883737 10.11510738 52.78878207 15.84484198 52.86621094 22.92700195 C52.9097168 24.23024414 52.9097168 24.23024414 52.95410156 25.55981445 C53.01317352 31.61241829 52.0047202 36.13583658 48.55371094 41.17700195 C44.69541138 44.84709178 41.6502651 46.28927397 36.36108398 46.33813477 C35.51978439 46.34774231 34.6784848 46.35734985 33.81169128 46.36724854 C32.45229179 46.37362335 32.45229179 46.37362335 31.06542969 46.38012695 C30.12947464 46.38582703 29.19351959 46.3915271 28.22920227 46.3973999 C26.24794647 46.40684678 24.26667497 46.41338265 22.28540039 46.41723633 C19.26322808 46.42693132 16.24173897 46.45795334 13.21972656 46.48950195 C11.2932983 46.49603334 9.36686519 46.50128328 7.44042969 46.50512695 C6.09013924 46.52364716 6.09013924 46.52364716 4.71257019 46.5425415 C-0.43581849 46.52438022 -3.99223188 46.05125467 -8.44628906 43.17700195 C-14.27254721 37.0270628 -14.78849611 31.41796863 -14.75878906 23.30200195 C-14.77490234 22.42930664 -14.79101562 21.55661133 -14.80761719 20.6574707 C-14.81294832 13.56705817 -13.72993369 8.73913983 -8.88378906 3.30200195 C-5.66987582 0.50012887 -4.15411253 0.05033649 0 0 Z M-1.44628906 14.17700195 C-1.88922448 17.15667772 -1.77043334 20.16812061 -1.75878906 23.17700195 C-1.77490234 24.00973633 -1.79101562 24.8424707 -1.80761719 25.70043945 C-1.80826172 26.49708008 -1.80890625 27.2937207 -1.80957031 28.11450195 C-1.81255127 28.84540039 -1.81553223 29.57629883 -1.81860352 30.3293457 C-1.58895884 32.59183699 -1.58895884 32.59183699 1.55371094 34.17700195 C4.20431963 34.3726597 6.74721427 34.45711272 9.39746094 34.44262695 C10.16296265 34.44454041 10.92846436 34.44645386 11.71716309 34.44842529 C13.33439462 34.44978528 14.95163714 34.44610182 16.56884766 34.43774414 C19.04452023 34.42704168 21.51946718 34.4376454 23.99511719 34.45043945 C25.56673337 34.44911782 27.13834911 34.44655536 28.70996094 34.44262695 C29.45064819 34.44667542 30.19133545 34.45072388 30.95446777 34.45489502 C34.69820162 34.42073009 36.35835927 34.3072364 39.55371094 32.17700195 C39.98470692 30.16575159 39.98470692 30.16575159 39.88183594 27.8605957 C39.87410156 26.59119141 39.87410156 26.59119141 39.86621094 25.29614258 C39.84558594 24.41120117 39.82496094 23.52625977 39.80371094 22.61450195 C39.79597656 21.28128906 39.79597656 21.28128906 39.78808594 19.92114258 C40.10631749 15.71973116 40.10631749 15.71973116 38.55371094 12.17700195 C35.76547356 12.06355046 33.00293749 12.01281933 30.21386719 12.0090332 C29.37657578 12.0057048 28.53928436 12.0023764 27.67662048 11.99894714 C25.90201366 11.99387439 24.12739727 11.99153892 22.3527832 11.99169922 C19.63118838 11.98951398 16.90999951 11.97136562 14.18847656 11.95239258 C12.46777483 11.94945853 10.74707116 11.94747381 9.02636719 11.9465332 C8.2086232 11.93934769 7.39087921 11.93216217 6.5483551 11.92475891 C2.07888274 11.75233986 2.07888274 11.75233986 -1.44628906 14.17700195 Z " fill="#000000" transform="translate(216.4462890625,359.822998046875)"/>
<path d="M0 0 C0.92145813 -0.01283524 1.84291626 -0.02567047 2.79229736 -0.03889465 C4.29068146 -0.04997505 4.29068146 -0.04997505 5.81933594 -0.0612793 C6.84549011 -0.06935104 7.87164429 -0.07742279 8.92889404 -0.08573914 C11.10443427 -0.09958694 13.2799963 -0.11030597 15.45556641 -0.11816406 C18.77646335 -0.13535698 22.09635979 -0.17923526 25.41699219 -0.22338867 C27.53026611 -0.23351724 29.64354851 -0.24203283 31.75683594 -0.2487793 C32.74766174 -0.26628738 33.73848755 -0.28379547 34.75933838 -0.30183411 C40.68656623 -0.28326958 44.03840145 0.23356536 48.55371094 4.17700195 C52.88613338 10.15275705 52.76239765 15.86812337 52.80371094 22.98950195 C52.82433594 23.86670898 52.84496094 24.74391602 52.86621094 25.64770508 C52.90379477 31.92890327 52.3094583 36.97631621 48.05371094 41.91918945 C44.09008699 44.91255129 41.29856993 46.29252289 36.36108398 46.33813477 C35.51978439 46.34774231 34.6784848 46.35734985 33.81169128 46.36724854 C32.45229179 46.37362335 32.45229179 46.37362335 31.06542969 46.38012695 C30.12947464 46.38582703 29.19351959 46.3915271 28.22920227 46.3973999 C26.24794647 46.40684678 24.26667497 46.41338265 22.28540039 46.41723633 C19.26322808 46.42693132 16.24173897 46.45795334 13.21972656 46.48950195 C11.2932983 46.49603334 9.36686519 46.50128328 7.44042969 46.50512695 C6.09013924 46.52364716 6.09013924 46.52364716 4.71257019 46.5425415 C-0.43747794 46.52437437 -3.98827864 46.04690279 -8.44628906 43.17700195 C-14.29699042 37.16378111 -14.78998911 30.72047532 -14.75878906 22.73950195 C-14.77490234 21.91901367 -14.79101562 21.09852539 -14.80761719 20.25317383 C-14.81312787 13.34829214 -13.59722748 8.59024994 -8.88378906 3.30200195 C-5.66987582 0.50012887 -4.15411253 0.05033649 0 0 Z M-1.44628906 14.17700195 C-1.88922448 17.15667772 -1.77043334 20.16812061 -1.75878906 23.17700195 C-1.77490234 24.00973633 -1.79101562 24.8424707 -1.80761719 25.70043945 C-1.80826172 26.49708008 -1.80890625 27.2937207 -1.80957031 28.11450195 C-1.81255127 28.84540039 -1.81553223 29.57629883 -1.81860352 30.3293457 C-1.58895884 32.59183699 -1.58895884 32.59183699 1.55371094 34.17700195 C4.20431963 34.3726597 6.74721427 34.45711272 9.39746094 34.44262695 C10.16296265 34.44454041 10.92846436 34.44645386 11.71716309 34.44842529 C13.33439462 34.44978528 14.95163714 34.44610182 16.56884766 34.43774414 C19.04452023 34.42704168 21.51946718 34.4376454 23.99511719 34.45043945 C25.56673337 34.44911782 27.13834911 34.44655536 28.70996094 34.44262695 C29.45064819 34.44667542 30.19133545 34.45072388 30.95446777 34.45489502 C34.69820162 34.42073009 36.35835927 34.3072364 39.55371094 32.17700195 C39.98470692 30.16575159 39.98470692 30.16575159 39.88183594 27.8605957 C39.87410156 26.59119141 39.87410156 26.59119141 39.86621094 25.29614258 C39.84558594 24.41120117 39.82496094 23.52625977 39.80371094 22.61450195 C39.79597656 21.28128906 39.79597656 21.28128906 39.78808594 19.92114258 C40.10631749 15.71973116 40.10631749 15.71973116 38.55371094 12.17700195 C35.76547356 12.06355046 33.00293749 12.01281933 30.21386719 12.0090332 C29.37657578 12.0057048 28.53928436 12.0023764 27.67662048 11.99894714 C25.90201366 11.99387439 24.12739727 11.99153892 22.3527832 11.99169922 C19.63118838 11.98951398 16.90999951 11.97136562 14.18847656 11.95239258 C12.46777483 11.94945853 10.74707116 11.94747381 9.02636719 11.9465332 C8.2086232 11.93934769 7.39087921 11.93216217 6.5483551 11.92475891 C2.07888274 11.75233986 2.07888274 11.75233986 -1.44628906 14.17700195 Z " fill="#000000" transform="translate(132.4462890625,359.822998046875)"/>
<path d="M0 0 C1.52649673 0.00062691 1.52649673 0.00062691 3.08383179 0.00126648 C5.22366145 0.0096094 7.36348556 0.03495017 9.50292969 0.07641602 C12.77131197 0.13667956 16.03582788 0.13798054 19.3046875 0.13085938 C21.39065356 0.14626463 23.47659808 0.16503014 25.5625 0.1875 C27.02050522 0.18947136 27.02050522 0.18947136 28.50796509 0.19148254 C34.18869076 0.32992471 37.71090695 0.9233421 42.1484375 4.82421875 C46.62369597 10.30170534 46.73599851 16.60492923 46.5859375 23.38671875 C46.59302734 24.29357422 46.60011719 25.20042969 46.60742188 26.13476562 C46.54817107 32.41990897 45.89898659 37.62957059 41.6484375 42.56640625 C37.68481356 45.55976808 34.89329649 46.93973968 29.95581055 46.98535156 C29.11451096 46.99495911 28.27321136 47.00456665 27.40641785 47.01446533 C26.04701836 47.02084015 26.04701836 47.02084015 24.66015625 47.02734375 C23.7242012 47.03304382 22.78824615 47.0387439 21.82392883 47.0446167 C19.84267303 47.05406358 17.86140153 47.06059944 15.88012695 47.06445312 C12.85795464 47.07414812 9.83646553 47.10517013 6.81445312 47.13671875 C4.88802486 47.14325014 2.96159175 47.14850007 1.03515625 47.15234375 C-0.3151342 47.17086395 -0.3151342 47.17086395 -1.69270325 47.1897583 C-6.84275138 47.17159116 -10.39355207 46.69411959 -14.8515625 43.82421875 C-20.57677367 37.93997393 -21.1794162 31.7045276 -21.1015625 23.88671875 C-21.10929687 23.11392578 -21.11703125 22.34113281 -21.125 21.54492188 C-21.10600437 15.92696379 -21.08459113 10.52647471 -17.33810425 5.99273682 C-11.75765463 0.62772955 -7.59428159 -0.18500765 0 0 Z M-7.8515625 14.82421875 C-8.29449792 17.80389451 -8.17570678 20.81533741 -8.1640625 23.82421875 C-8.18017578 24.65695312 -8.19628906 25.4896875 -8.21289062 26.34765625 C-8.21353516 27.14429688 -8.21417969 27.9409375 -8.21484375 28.76171875 C-8.21782471 29.49261719 -8.22080566 30.22351563 -8.22387695 30.9765625 C-7.99423228 33.23905379 -7.99423228 33.23905379 -4.8515625 34.82421875 C-2.2009538 35.01987649 0.34194083 35.10432952 2.9921875 35.08984375 C3.75768921 35.0917572 4.52319092 35.09367065 5.31188965 35.09564209 C6.92912119 35.09700208 8.54636371 35.09331861 10.16357422 35.08496094 C12.6392468 35.07425848 15.11419374 35.08486219 17.58984375 35.09765625 C19.16145994 35.09633462 20.73307567 35.09377216 22.3046875 35.08984375 C23.04537476 35.09389221 23.78606201 35.09794067 24.54919434 35.10211182 C28.29292818 35.06794689 29.95308583 34.9544532 33.1484375 32.82421875 C33.56323857 30.79534564 33.56323857 30.79534564 33.44140625 28.47265625 C33.43173828 27.621875 33.42207031 26.77109375 33.41210938 25.89453125 C33.38697266 25.00507813 33.36183594 24.115625 33.3359375 23.19921875 C33.32240234 22.30203125 33.30886719 21.40484375 33.29492188 20.48046875 C33.25950675 18.26112086 33.21012211 16.04296687 33.1484375 13.82421875 C29.94143962 12.22071981 26.45242541 12.66119515 22.9296875 12.65625 C22.11600708 12.6529216 21.30232666 12.6495932 20.46398926 12.64616394 C18.7424374 12.641098 17.02087571 12.63875551 15.29931641 12.63891602 C12.65901627 12.63672752 10.01913253 12.61856308 7.37890625 12.59960938 C5.70833477 12.59667584 4.03776129 12.59469078 2.3671875 12.59375 C1.57445435 12.58656448 0.78172119 12.57937897 -0.03503418 12.57197571 C-4.41078553 12.41640216 -4.41078553 12.41640216 -7.8515625 14.82421875 Z " fill="#000000" transform="translate(54.8515625,359.17578125)"/>
<path d="M0 0 C0.84129959 -0.00960754 1.68259918 -0.01921509 2.5493927 -0.02911377 C3.90879219 -0.03548859 3.90879219 -0.03548859 5.2956543 -0.04199219 C6.23160934 -0.04769226 7.16756439 -0.05339233 8.13188171 -0.05926514 C10.11313752 -0.06871201 12.09440901 -0.07524788 14.07568359 -0.07910156 C17.09785591 -0.08879656 20.11934502 -0.11981857 23.14135742 -0.15136719 C25.06778568 -0.15789857 26.9942188 -0.16314851 28.9206543 -0.16699219 C30.27094475 -0.18551239 30.27094475 -0.18551239 31.64851379 -0.20440674 C37.51252368 -0.18372105 41.9003956 0.57178236 46.4519043 4.62597656 C51.28504189 10.71993265 51.04192627 15.8970637 51.11987305 23.41113281 C51.16337891 24.78591797 51.16337891 24.78591797 51.20776367 26.18847656 C51.26313827 32.16041353 50.7148695 37.41081721 46.80737305 42.16113281 C41.54682517 46.78303643 36.89553119 46.78882756 30.22143555 46.79785156 C28.69780899 46.81426445 28.69780899 46.81426445 27.1434021 46.83100891 C25.00019389 46.84683691 22.85688462 46.85208117 20.71362305 46.84741211 C17.44887874 46.84862667 14.1886183 46.90841703 10.92456055 46.97167969 C8.83602978 46.9798226 6.74748201 46.98449383 4.65893555 46.98535156 C3.69098053 47.00893234 2.72302551 47.03251312 1.72573853 47.05680847 C-4.7212619 46.97013458 -8.02748675 45.46484551 -12.67955017 40.99337769 C-16.8513371 35.94159492 -16.53140263 29.45096763 -16.50512695 23.22363281 C-16.52124023 22.46373047 -16.53735352 21.70382812 -16.55395508 20.92089844 C-16.55892305 15.10339799 -15.85030935 9.09864356 -11.77587891 4.59521484 C-7.99307416 1.31814514 -4.92210513 0.04546979 0 0 Z M-3.19262695 14.16113281 C-3.63914167 16.05652917 -3.63914167 16.05652917 -3.5559082 18.22363281 C-3.55526367 19.02027344 -3.55461914 19.81691406 -3.55395508 20.63769531 C-3.5378418 21.47042969 -3.52172852 22.30316406 -3.50512695 23.16113281 C-3.50834961 23.99386719 -3.51157227 24.82660156 -3.51489258 25.68457031 C-3.72229834 30.42884954 -3.72229834 30.42884954 -1.19262695 34.16113281 C1.58090382 34.34871187 4.25277949 34.41673979 7.02612305 34.39160156 C7.83980347 34.39114334 8.65348389 34.39068512 9.49182129 34.39021301 C11.21339373 34.38718992 12.93496341 34.37930191 14.65649414 34.36694336 C17.29672907 34.34870633 19.93661301 34.34643353 22.5769043 34.34667969 C24.24748026 34.34176376 25.91805383 34.33593511 27.58862305 34.32910156 C28.3813562 34.32798874 29.17408936 34.32687592 29.99084473 34.32572937 C34.03000304 34.3825055 34.03000304 34.3825055 37.80737305 33.16113281 C37.86529149 30.0362103 37.90094051 26.91142515 37.93237305 23.78613281 C37.94913086 22.89667969 37.96588867 22.00722656 37.9831543 21.09082031 C37.98959961 20.24003906 37.99604492 19.38925781 38.00268555 18.51269531 C38.01315918 17.72717285 38.02363281 16.94165039 38.03442383 16.13232422 C37.98727431 13.92666781 37.98727431 13.92666781 35.80737305 12.16113281 C33.1175817 11.96134451 30.53300469 11.88132002 27.8425293 11.89550781 C27.0534166 11.89359436 26.26430389 11.89168091 25.45127869 11.88970947 C23.78099245 11.88834748 22.11069563 11.89204491 20.44042969 11.90039062 C17.88346535 11.91107601 15.32720587 11.90050342 12.77026367 11.88769531 C11.14851733 11.88901718 9.52677142 11.89158015 7.9050293 11.89550781 C7.13933121 11.89145935 6.37363312 11.88741089 5.58473206 11.88323975 C1.79088053 11.91673481 0.04144271 12.00508637 -3.19262695 14.16113281 Z " fill="#000000" transform="translate(50.192626953125,293.8388671875)"/>
<path d="M0 0 C0.84129959 -0.00960754 1.68259918 -0.01921509 2.5493927 -0.02911377 C3.90879219 -0.03548859 3.90879219 -0.03548859 5.2956543 -0.04199219 C6.23160934 -0.04769226 7.16756439 -0.05339233 8.13188171 -0.05926514 C10.11313752 -0.06871201 12.09440901 -0.07524788 14.07568359 -0.07910156 C17.09785591 -0.08879656 20.11934502 -0.11981857 23.14135742 -0.15136719 C25.06778568 -0.15789857 26.9942188 -0.16314851 28.9206543 -0.16699219 C30.27094475 -0.18551239 30.27094475 -0.18551239 31.64851379 -0.20440674 C37.51252368 -0.18372105 41.9003956 0.57178236 46.4519043 4.62597656 C51.21201115 10.62785042 51.01450644 15.58450181 51.05737305 22.97363281 C51.07799805 23.85083984 51.09862305 24.72804688 51.11987305 25.63183594 C51.16255666 32.76533511 50.12467318 37.5612351 45.24487305 43.03613281 C42.03095981 45.83800589 40.51519652 46.28779827 36.36108398 46.33813477 C35.43962585 46.35097 34.51816772 46.36380524 33.56878662 46.37702942 C32.07040253 46.38810982 32.07040253 46.38810982 30.54174805 46.39941406 C29.51559387 46.40748581 28.4894397 46.41555756 27.43218994 46.4238739 C25.25664971 46.4377217 23.08108769 46.44844073 20.90551758 46.45629883 C17.58462063 46.47349175 14.2647242 46.51737003 10.9440918 46.56152344 C8.83081787 46.571652 6.71753548 46.58016759 4.60424805 46.58691406 C3.61342224 46.60442215 2.62259644 46.62193024 1.60174561 46.63996887 C-4.32548224 46.62140435 -7.67731746 46.1045694 -12.19262695 42.16113281 C-16.49775339 36.22302738 -16.42769809 30.49329279 -16.50512695 23.41113281 C-16.53413086 22.54230469 -16.56313477 21.67347656 -16.59301758 20.77832031 C-16.65208954 14.72571648 -15.64363622 10.20229818 -12.19262695 5.16113281 C-8.33432739 1.49104299 -5.28918111 0.0488608 0 0 Z M-3.19262695 14.16113281 C-3.50165984 16.06341586 -3.50165984 16.06341586 -3.45825195 18.22363281 C-3.46083008 19.02027344 -3.4634082 19.81691406 -3.46606445 20.63769531 C-3.45833008 21.47042969 -3.4505957 22.30316406 -3.44262695 23.16113281 C-3.45036133 23.99386719 -3.4580957 24.82660156 -3.46606445 25.68457031 C-3.46348633 26.48121094 -3.4609082 27.27785156 -3.45825195 28.09863281 C-3.45599609 28.82953125 -3.45374023 29.56042969 -3.45141602 30.31347656 C-3.34711256 32.40810645 -3.34711256 32.40810645 -1.19262695 34.16113281 C1.58090382 34.34871187 4.25277949 34.41673979 7.02612305 34.39160156 C7.83980347 34.39114334 8.65348389 34.39068512 9.49182129 34.39021301 C11.21339373 34.38718992 12.93496341 34.37930191 14.65649414 34.36694336 C17.29672907 34.34870633 19.93661301 34.34643353 22.5769043 34.34667969 C24.24748026 34.34176376 25.91805383 34.33593511 27.58862305 34.32910156 C28.3813562 34.32798874 29.17408936 34.32687592 29.99084473 34.32572937 C34.03000304 34.3825055 34.03000304 34.3825055 37.80737305 33.16113281 C37.86529149 30.0362103 37.90094051 26.91142515 37.93237305 23.78613281 C37.94913086 22.89667969 37.96588867 22.00722656 37.9831543 21.09082031 C37.98959961 20.24003906 37.99604492 19.38925781 38.00268555 18.51269531 C38.01315918 17.72717285 38.02363281 16.94165039 38.03442383 16.13232422 C37.98727431 13.92666781 37.98727431 13.92666781 35.80737305 12.16113281 C33.03401877 11.96131256 30.36267662 11.88134081 27.58862305 11.89550781 C26.77494263 11.89359436 25.96126221 11.89168091 25.1229248 11.88970947 C23.40136404 11.88834754 21.67979302 11.89204454 19.95825195 11.90039062 C17.31788135 11.91109023 14.67819115 11.90049581 12.0378418 11.88769531 C10.36726737 11.88901691 8.69669337 11.8915793 7.02612305 11.89550781 C5.83702332 11.88943512 5.83702332 11.88943512 4.62390137 11.88323975 C0.24809878 11.75009158 0.24809878 11.75009158 -3.19262695 14.16113281 Z " fill="#000000" transform="translate(218.192626953125,293.8388671875)"/>
<path d="M0 0 C0.84129959 -0.00960754 1.68259918 -0.01921509 2.5493927 -0.02911377 C3.90879219 -0.03548859 3.90879219 -0.03548859 5.2956543 -0.04199219 C6.23160934 -0.04769226 7.16756439 -0.05339233 8.13188171 -0.05926514 C10.11313752 -0.06871201 12.09440901 -0.07524788 14.07568359 -0.07910156 C17.09785591 -0.08879656 20.11934502 -0.11981857 23.14135742 -0.15136719 C25.06778568 -0.15789857 26.9942188 -0.16314851 28.9206543 -0.16699219 C30.27094475 -0.18551239 30.27094475 -0.18551239 31.64851379 -0.20440674 C37.51252368 -0.18372105 41.9003956 0.57178236 46.4519043 4.62597656 C51.21201115 10.62785042 51.01450644 15.58450181 51.05737305 22.97363281 C51.07799805 23.85083984 51.09862305 24.72804688 51.11987305 25.63183594 C51.16255666 32.76533511 50.12467318 37.5612351 45.24487305 43.03613281 C42.05441928 45.81755404 40.51591854 46.28914131 36.39282227 46.38574219 C35.47781952 46.4082605 34.56281677 46.43077881 33.62008667 46.45397949 C29.41860227 46.52507911 25.21729537 46.58254408 21.01538086 46.62109375 C18.80389705 46.64766007 16.59253616 46.68853995 14.3815918 46.74414062 C11.18707372 46.82352536 7.9949223 46.85644855 4.79956055 46.87988281 C3.32880569 46.92937073 3.32880569 46.92937073 1.82833862 46.9798584 C-4.70160782 46.96098715 -7.99939178 45.51083681 -12.68449402 40.94558716 C-16.90515023 35.95161869 -16.52952597 29.99324316 -16.50512695 23.78613281 C-16.52124023 22.97402344 -16.53735352 22.16191406 -16.55395508 21.32519531 C-16.55873583 15.35881206 -15.97267871 9.22958559 -11.77587891 4.59741211 C-7.99524516 1.31697632 -4.92208343 0.04546959 0 0 Z M-3.19262695 14.16113281 C-3.50165984 16.06341586 -3.50165984 16.06341586 -3.45825195 18.22363281 C-3.46083008 19.02027344 -3.4634082 19.81691406 -3.46606445 20.63769531 C-3.45833008 21.47042969 -3.4505957 22.30316406 -3.44262695 23.16113281 C-3.45036133 23.99386719 -3.4580957 24.82660156 -3.46606445 25.68457031 C-3.46348633 26.48121094 -3.4609082 27.27785156 -3.45825195 28.09863281 C-3.45599609 28.82953125 -3.45374023 29.56042969 -3.45141602 30.31347656 C-3.34711256 32.40810645 -3.34711256 32.40810645 -1.19262695 34.16113281 C1.58090382 34.34871187 4.25277949 34.41673979 7.02612305 34.39160156 C7.83980347 34.39114334 8.65348389 34.39068512 9.49182129 34.39021301 C11.21339373 34.38718992 12.93496341 34.37930191 14.65649414 34.36694336 C17.29672907 34.34870633 19.93661301 34.34643353 22.5769043 34.34667969 C24.24748026 34.34176376 25.91805383 34.33593511 27.58862305 34.32910156 C28.3813562 34.32798874 29.17408936 34.32687592 29.99084473 34.32572937 C34.03000304 34.3825055 34.03000304 34.3825055 37.80737305 33.16113281 C37.86529149 30.0362103 37.90094051 26.91142515 37.93237305 23.78613281 C37.94913086 22.89667969 37.96588867 22.00722656 37.9831543 21.09082031 C37.98959961 20.24003906 37.99604492 19.38925781 38.00268555 18.51269531 C38.01315918 17.72717285 38.02363281 16.94165039 38.03442383 16.13232422 C37.98727431 13.92666781 37.98727431 13.92666781 35.80737305 12.16113281 C33.03401877 11.96131256 30.36267662 11.88134081 27.58862305 11.89550781 C26.77494263 11.89359436 25.96126221 11.89168091 25.1229248 11.88970947 C23.40136404 11.88834754 21.67979302 11.89204454 19.95825195 11.90039062 C17.31788135 11.91109023 14.67819115 11.90049581 12.0378418 11.88769531 C10.36726737 11.88901691 8.69669337 11.8915793 7.02612305 11.89550781 C5.83702332 11.88943512 5.83702332 11.88943512 4.62390137 11.88323975 C0.24809878 11.75009158 0.24809878 11.75009158 -3.19262695 14.16113281 Z " fill="#000000" transform="translate(134.192626953125,293.8388671875)"/>
<path d="M0 0 C1.00292336 -0.005476 1.00292336 -0.005476 2.02610779 -0.01106262 C4.23576271 -0.01916721 6.44468405 -0.00555963 8.65429688 0.0090332 C10.18981933 0.00955183 11.72534246 0.00903404 13.26086426 0.00752258 C16.47886061 0.0076123 19.69660641 0.01804078 22.91455078 0.03613281 C27.04068772 0.05882011 31.16645854 0.0593641 35.29264069 0.05261517 C38.46335101 0.04927464 41.63397777 0.05590683 44.80467224 0.0657444 C46.32612165 0.06959525 47.84758036 0.07074509 49.36903381 0.06915855 C51.49490081 0.06878794 53.62029738 0.08140655 55.74609375 0.09765625 C57.56119446 0.10456734 57.56119446 0.10456734 59.41296387 0.11161804 C62.37304688 0.37231445 62.37304688 0.37231445 65.37304688 2.37231445 C65.77148438 4.24731445 65.77148438 4.24731445 65.74804688 6.37231445 C65.75964844 7.42418945 65.75964844 7.42418945 65.77148438 8.49731445 C65.37304688 10.37231445 65.37304688 10.37231445 62.37304688 12.37231445 C59.41296387 12.62628174 59.41296387 12.62628174 55.74609375 12.63110352 C55.07747818 12.63460815 54.40886261 12.63811279 53.71998596 12.64172363 C51.5104839 12.6505241 49.30130218 12.64469791 47.09179688 12.63793945 C45.55627379 12.63928659 44.02075112 12.64122753 42.48522949 12.64373779 C39.26729267 12.64668676 36.04946689 12.64239875 32.83154297 12.63305664 C28.70542309 12.62166217 24.5795634 12.62822286 20.45345306 12.64020157 C17.28275591 12.64742632 14.11212051 12.64512942 10.94142151 12.63994598 C9.41996734 12.63861119 7.89850757 12.64025127 6.37705994 12.64490509 C4.25122207 12.64998048 2.1258064 12.64224622 0 12.63110352 C-1.81510071 12.62871674 -1.81510071 12.62871674 -3.66687012 12.62628174 C-6.62695312 12.37231445 -6.62695312 12.37231445 -9.62695312 10.37231445 C-10.28123965 4.37468796 -10.28123965 4.37468796 -8.5177002 1.67292786 C-5.69546992 -0.26843732 -3.40090489 -0.001769 0 0 Z " fill="#000000" transform="translate(123.626953125,94.627685546875)"/>
<path d="M0 0 C0.66861557 -0.00525696 1.33723114 -0.01051392 2.02610779 -0.01593018 C4.23574195 -0.02913166 6.44465542 -0.02039222 8.65429688 -0.01025391 C10.18982074 -0.01227462 11.72534368 -0.01518603 13.26086426 -0.01895142 C16.47885272 -0.02337494 19.69659136 -0.016943 22.91455078 -0.00292969 C27.04078303 0.01416248 31.16642991 0.00432141 35.29264069 -0.01364708 C38.46336279 -0.02448429 41.63394597 -0.02103892 44.80467224 -0.0132637 C46.3261268 -0.01126151 47.84759395 -0.01372167 49.36903381 -0.02070236 C51.49506066 -0.02831613 53.62013771 -0.01671523 55.74609375 0 C57.56119446 0.00358017 57.56119446 0.00358017 59.41296387 0.00723267 C62.37304688 0.38818359 62.37304688 0.38818359 64.2677002 1.68978882 C66.10829169 4.51790694 65.66945987 7.12764068 65.37304688 10.38818359 C62.53126622 13.22996424 60.64059921 12.64190913 56.66015625 12.64697266 C55.62578178 12.65222961 55.62578178 12.65222961 54.57051086 12.65759277 C52.28583782 12.66641188 50.00147319 12.66056046 47.71679688 12.65380859 C46.13260844 12.6551552 44.54842041 12.65709569 42.9642334 12.65960693 C39.64196849 12.66255843 36.31981103 12.65825977 32.99755859 12.64892578 C28.73343097 12.63753117 24.46955509 12.64409051 20.20543671 12.65607071 C16.93355402 12.66328864 13.66173127 12.6610017 10.3898468 12.65581512 C8.81732656 12.65447844 7.24480093 12.656127 5.67228699 12.66077423 C3.47668995 12.66583845 1.28150384 12.65813109 -0.9140625 12.64697266 C-2.79031311 12.64458588 -2.79031311 12.64458588 -4.70446777 12.64215088 C-7.62695312 12.38818359 -7.62695312 12.38818359 -9.62695312 10.38818359 C-10.18532149 4.24613154 -10.18532149 4.24613154 -8.52160645 1.68978882 C-5.69795915 -0.25002467 -3.40191007 0.00671005 0 0 Z " fill="#000000" transform="translate(123.626953125,33.61181640625)"/>
<path d="M0 0 C1.03437447 -0.00525696 1.03437447 -0.00525696 2.08964539 -0.01062012 C4.37431843 -0.01943923 6.65868306 -0.01358781 8.94335938 -0.00683594 C10.52754781 -0.00818254 12.11173584 -0.01012303 13.69592285 -0.01263428 C17.01818776 -0.01558578 20.34034522 -0.01128711 23.66259766 -0.00195312 C27.92672528 0.00944149 32.19060116 0.00288214 36.45471954 -0.00909805 C39.72660223 -0.01631599 42.99842498 -0.01402904 46.27030945 -0.00884247 C47.84282969 -0.00750578 49.41535532 -0.00915435 50.98786926 -0.01380157 C53.1834663 -0.01886579 55.37865241 -0.01115843 57.57421875 0 C59.45046936 0.00238678 59.45046936 0.00238678 61.36462402 0.00482178 C64.28710938 0.25878906 64.28710938 0.25878906 66.28710938 2.25878906 C66.84589215 8.40539962 66.84589215 8.40539962 65.17503357 10.95718384 C62.3806802 12.88371508 60.13948338 12.64020606 56.76782227 12.64697266 C56.11056656 12.65222961 55.45331085 12.65748657 54.77613831 12.66290283 C52.60377219 12.67610495 50.43213918 12.66736369 48.25976562 12.65722656 C46.74905761 12.6592475 45.23835055 12.6621591 43.72764587 12.66592407 C40.56093053 12.67034789 37.39446904 12.66391566 34.2277832 12.64990234 C30.17114797 12.63282477 26.1151088 12.64264177 22.05849552 12.66061974 C18.93834455 12.67146867 15.8183345 12.66800594 12.69817924 12.66023636 C11.20267097 12.65823665 9.70714985 12.66068561 8.21165657 12.66767502 C6.11935765 12.67530646 4.02801858 12.66366252 1.93579102 12.64697266 C0.74570938 12.64458588 -0.44437225 12.6421991 -1.67051697 12.63973999 C-4.99685351 12.22323264 -6.41884012 11.68195951 -8.71289062 9.25878906 C-9.08789062 5.69628906 -9.08789062 5.69628906 -8.71289062 2.25878906 C-5.87110997 -0.58299159 -3.98044296 0.00506352 0 0 Z " fill="#000000" transform="translate(122.712890625,64.7412109375)"/>
</svg>
