<?xml version="1.0" encoding="UTF-8"?>
<svg version="1.1" xmlns="http://www.w3.org/2000/svg" width="512" height="512">
<path d="M0 0 C1.88619725 1.59107795 3.53586295 3.29342933 5.21484375 5.1015625 C6.89767676 6.8911836 8.63054002 8.47164205 10.5 10.0625 C14.55934609 13.5611193 18.46651873 17.21013287 22.375 20.875 C27.36351257 25.5507359 32.3869886 30.17710902 37.484375 34.734375 C41.03268798 37.9300606 44.53577726 41.17375265 48.04125977 44.41625977 C51.70710918 47.80702272 55.38021607 51.18959077 59.0625 54.5625 C59.55347168 55.01222168 60.04444336 55.46194336 60.55029297 55.92529297 C61.53884515 56.83062602 62.52745177 57.73589963 63.51611328 58.64111328 C65.51099479 60.46794949 67.50494469 62.29580063 69.4987793 64.1237793 C70.49620289 65.03815184 71.49376058 65.95237813 72.49145508 66.86645508 C75.04375741 69.20505687 77.59393937 71.54590701 80.140625 73.890625 C81.17696595 74.84387763 82.21342268 75.79700441 83.25 76.75 C83.74733643 77.20753662 84.24467285 77.66507324 84.75708008 78.13647461 C88.30048164 81.38592082 91.90534158 84.55338448 95.57421875 87.66015625 C98.44444954 90.35738683 98.2168608 93.14030276 98.42578125 96.9296875 C98 99 98 99 94 103 C84.76 103 75.52 103 66 103 C66.33 134.68 66.66 166.36 67 199 C83.335 182.665 83.335 182.665 100 166 C97.26654963 162.58318704 95.34858945 160.27895919 92.125 157.625 C82.57242025 149.34251981 82.57242025 149.34251981 81.4921875 144.921875 C81.30563067 141.56385205 81.64325973 139.4631028 83.70378685 136.78822708 C86.51082805 134.60218129 87.84264709 134.52019702 91.3644104 134.5758667 C92.43269262 134.58373829 93.50097485 134.59160988 94.60162926 134.59972 C96.32950393 134.6446213 96.32950393 134.6446213 98.09228516 134.69042969 C99.29569864 134.70695965 100.49911213 134.72348961 101.73899269 134.74052048 C105.49373309 134.80130191 109.24625657 134.89489213 113 135 C114.11650688 135.02977432 115.23301376 135.05954865 116.38335419 135.09022522 C124.09981542 135.30871287 131.81122033 135.61913816 139.5234375 135.953125 C140.70601765 136.00329521 141.88859779 136.05346542 143.1070137 136.10515594 C149.32473237 136.36912147 155.54211458 136.63976356 161.75927734 136.91650391 C168.15941709 137.20008307 174.56029649 137.46033504 180.96161461 137.71571732 C185.92064058 137.91764878 190.8788275 138.13628463 195.83693314 138.35958099 C198.19937313 138.46308911 200.5620967 138.56032695 202.92506027 138.65110016 C206.20550047 138.77867747 209.48404223 138.92983415 212.76318359 139.08691406 C213.73137024 139.11928665 214.69955688 139.15165924 215.69708252 139.18501282 C220.99867314 139.46729459 224.20359012 139.91682418 228 144 C229.13051014 146.26102028 229.19195334 147.67464961 229.31007385 150.19015503 C229.35351929 151.06958267 229.39696472 151.94901031 229.44172668 152.85508728 C229.50646431 154.30716331 229.50646431 154.30716331 229.57250977 155.78857422 C229.62142365 156.80702927 229.67033752 157.82548431 229.72073364 158.87480164 C229.88232764 162.26789362 230.03713186 165.66125534 230.19140625 169.0546875 C230.30186822 171.42856813 230.41254351 173.80243885 230.52342224 176.17630005 C230.75591647 181.17826938 230.98491248 186.18038463 231.21166992 191.18261719 C231.49896296 197.51159059 231.79601466 203.84005961 232.09605503 210.16843987 C232.32800754 215.08990937 232.55381833 220.01164775 232.77802849 224.93347549 C232.88486141 227.2605217 232.99363347 229.5874799 233.10458565 231.91433334 C233.71305296 244.73986771 234.1485914 257.56742012 234.31616211 270.40673828 C234.34569505 271.60631102 234.37522799 272.80588375 234.40565586 274.04180717 C234.41297702 275.1553866 234.42029818 276.26896603 234.42784119 277.41629028 C234.44205077 278.3996744 234.45626036 279.38305851 234.47090054 280.39624214 C233.86035879 283.77212036 232.68394194 284.92368206 230 287 C226.53965971 287.77559351 225.26371533 288.00939649 222 287 C215.03047394 282.17664546 209.4459167 275.43470046 204 269 C198.9728911 273.23645472 194.15754054 277.62347552 189.42822266 282.18847656 C188.34645248 283.22906723 188.34645248 283.22906723 187.24282837 284.29067993 C180.63626303 290.65849508 174.07636056 297.07401889 167.53168678 303.50537491 C163.14636631 307.81316457 158.74628604 312.10312045 154.30712891 316.35546875 C149.99463133 320.48739737 145.7259306 324.66029721 141.48377609 328.86437225 C139.86940736 330.45004158 138.24037619 332.02093605 136.59627151 333.57575226 C126.01533994 343.24030865 126.01533994 343.24030865 121.59701347 356.36896896 C121.51959233 359.93975173 121.74994918 363.43677235 122 367 C121.64679357 370.43196841 121.03827002 373.75420147 120.3125 377.125 C120.13879883 377.95354492 119.96509766 378.78208984 119.78613281 379.63574219 C117.98606162 387.76258006 115.34489856 395.38853163 112 403 C111.71672852 403.65419922 111.43345703 404.30839844 111.14160156 404.98242188 C101.19859693 427.50525006 84.01682032 447.17355818 63 460 C61.9275 460.68320312 60.855 461.36640625 59.75 462.0703125 C31.88920956 479.03185853 -3.60217439 484.0163292 -35.38183594 476.83691406 C-43.17097979 474.86720732 -50.6495887 472.2301757 -58 469 C-58.98129883 468.57509277 -58.98129883 468.57509277 -59.98242188 468.14160156 C-90.07749484 454.85572789 -113.78418589 429.27843714 -125.87109375 398.80371094 C-130.0059947 387.83288503 -134.82690263 374.83174724 -133.71604919 362.95828247 C-133.18229633 355.79611763 -133.71790128 350.1565913 -138.19021606 344.3168335 C-142.67698317 339.14023905 -147.63242534 334.45277077 -152.59765625 329.7421875 C-154.3935466 327.97805254 -156.18568472 326.21009044 -157.97422791 324.43850708 C-162.1864472 320.28424831 -166.43446718 316.16975436 -170.70262665 312.07304966 C-176.04444513 306.94117227 -181.32668955 301.74922176 -186.61132812 296.55859375 C-196.02767147 287.32390212 -205.49477939 278.14314044 -215 269 C-217.60358719 271.60112737 -220.20304311 274.20560247 -222.7890625 276.82421875 C-223.73436241 277.7786583 -224.67967498 278.73308532 -225.625 279.6875 C-226.10195312 280.17283203 -226.57890625 280.65816406 -227.0703125 281.15820312 C-231.33787455 285.45540102 -233.80350057 287.19976303 -239.96484375 287.4609375 C-242.93577589 286.78805844 -244.07519749 285.31675488 -246 283 C-246.48286438 280.63999939 -246.48286438 280.63999939 -246.4543457 277.92553711 C-246.45097702 276.86210587 -246.44760834 275.79867462 -246.44413757 274.70301819 C-246.41745499 273.51067062 -246.3907724 272.31832306 -246.36328125 271.08984375 C-246.34832108 269.79988998 -246.3333609 268.50993622 -246.31794739 267.18089294 C-246.2534233 262.45275617 -246.13013169 257.72672896 -246 253 C-245.97441765 252.05970192 -245.9488353 251.11940384 -245.92247772 250.15061188 C-245.52086734 235.65969845 -245.00886914 221.17358272 -244.45581055 206.68774414 C-244.22749843 200.69236085 -244.0172705 194.69647964 -243.81099987 188.70030308 C-243.64777138 184.04080688 -243.47228684 179.38183109 -243.29335976 174.72291374 C-243.21037976 172.50995013 -243.13185012 170.29681475 -243.05797386 168.08352852 C-242.95415042 165.01019626 -242.83309203 161.9379987 -242.70776367 158.86547852 C-242.68114655 157.96529999 -242.65452942 157.06512146 -242.62710571 156.13766479 C-242.38581518 150.76434354 -241.67346059 146.7151045 -239 142 C-236.16736724 140.19965304 -233.847325 139.72034997 -230.52464294 139.56967163 C-229.63260666 139.52485153 -228.74057037 139.48003143 -227.82150269 139.43385315 C-226.84972076 139.39429001 -225.87793884 139.35472687 -224.87670898 139.31396484 C-223.84660202 139.26490494 -222.81649506 139.21584503 -221.75517273 139.16529846 C-218.33582688 139.00487079 -214.916054 138.85763859 -211.49609375 138.7109375 C-209.10023748 138.60231112 -206.70440953 138.49305831 -204.30860901 138.38320923 C-199.26741791 138.15405015 -194.22600005 137.93116452 -189.18432617 137.71289062 C-182.80137583 137.43625357 -176.4191092 137.14652413 -170.03695583 136.8521328 C-165.07349619 136.62435128 -160.10977315 136.40278796 -155.14595222 136.18303299 C-152.7985624 136.0786016 -150.45124166 135.97260278 -148.104002 135.86484909 C-140.40416516 135.51405991 -132.70474801 135.21897883 -125 135 C-123.7750243 134.96469429 -122.5500486 134.92938858 -121.28795242 134.893013 C-117.55530245 134.79854792 -113.8235639 134.73688142 -110.09008789 134.68603516 C-108.9383052 134.65636847 -107.7865225 134.62670177 -106.5998373 134.59613609 C-105.53173856 134.58863146 -104.46363981 134.58112682 -103.36317444 134.57339478 C-102.42200807 134.55896143 -101.48084169 134.54452808 -100.51115513 134.52965736 C-97.20338083 135.14920781 -96.04616424 136.3761943 -94 139 C-93.22440649 142.46034029 -92.99060351 143.73628467 -94 147 C-98.82335454 153.96952606 -105.56529954 159.5540833 -112 165 C-101.72152449 176.99155476 -90.16791038 187.83208962 -79 199 C-78.67 167.32 -78.34 135.64 -78 103 C-87.24 103 -96.48 103 -106 103 C-110 99 -110 99 -110.5625 95.125 C-110.25524884 89.76297161 -107.19245963 86.9818539 -103.4140625 83.56640625 C-102.13810618 82.44924799 -100.85323099 81.34224232 -99.5625 80.2421875 C-96.17691208 77.27979807 -92.90479004 74.20357093 -89.625 71.125 C-84.63675775 66.44898204 -79.61300351 61.82288393 -74.515625 57.265625 C-70.96731202 54.0699394 -67.46422274 50.82624735 -63.95874023 47.58374023 C-58.81509423 42.826075 -53.6515806 38.09040202 -48.48388672 33.35888672 C-46.48925962 31.53228349 -44.49557375 29.70465473 -42.50195312 27.87695312 C-41.00271209 26.50248638 -39.50330935 25.12819619 -38.00390625 23.75390625 C-35.48421104 21.44425402 -32.96557259 19.13345325 -30.44750977 16.82202148 C-29.44758665 15.90519626 -28.44678399 14.9893293 -27.44506836 14.07446289 C-24.93908073 11.78531183 -22.44669524 9.48409031 -19.9765625 7.15625 C-19.01492187 6.2590625 -18.05328125 5.361875 -17.0625 4.4375 C-15.78052734 3.22900391 -15.78052734 3.22900391 -14.47265625 1.99609375 C-9.35926264 -2.13178008 -6.0862451 -2.62338151 0 0 Z M-8.4453125 20.28515625 C-8.99960938 20.87167969 -9.55390625 21.45820312 -10.125 22.0625 C-12.50505157 24.51055304 -14.90622507 26.8425005 -17.5 29.0625 C-21.55934609 32.5611193 -25.46651873 36.21013287 -29.375 39.875 C-34.36351257 44.5507359 -39.3869886 49.17710902 -44.484375 53.734375 C-47.47055662 56.42379323 -50.42466529 59.14638427 -53.375 61.875 C-53.92196533 62.38071533 -54.46893066 62.88643066 -55.0324707 63.4074707 C-56.13901879 64.43064092 -57.24554546 65.45383431 -58.35205078 66.47705078 C-71.99534726 79.08547796 -71.99534726 79.08547796 -78.671875 84.7578125 C-79.11015625 85.16773437 -79.5484375 85.57765625 -80 86 C-80 86.33 -80 86.66 -80 87 C-79.02417969 87.03738281 -78.04835937 87.07476562 -77.04296875 87.11328125 C-75.77066406 87.17902344 -74.49835938 87.24476562 -73.1875 87.3125 C-71.92292969 87.37050781 -70.65835938 87.42851563 -69.35546875 87.48828125 C-66 88 -66 88 -64.31520367 89.1677599 C-62.45244575 91.76281026 -62.61510752 93.64829165 -62.60127258 96.82756042 C-62.58246536 98.65120369 -62.58246536 98.65120369 -62.5632782 100.51168823 C-62.5644523 101.86090115 -62.56591147 103.21011384 -62.56762695 104.55932617 C-62.55861197 105.97847855 -62.5482854 107.39762312 -62.53674316 108.8167572 C-62.5091157 112.67184894 -62.49988092 116.52679319 -62.49388909 120.38197112 C-62.4845203 124.40992461 -62.45831819 128.43776727 -62.43388367 132.46565247 C-62.39017369 140.09412999 -62.36165442 147.72258606 -62.33856028 155.35115081 C-62.31153266 164.03552019 -62.2676197 172.71977832 -62.22227156 181.40406835 C-62.1293609 199.26932022 -62.05770962 217.1346015 -62 235 C-61.4438501 234.8146167 -60.8877002 234.6292334 -60.31469727 234.43823242 C-56.48974609 233.1632487 -52.66479492 231.88826497 -48.83984375 230.61328125 C-48.19208984 230.39736328 -47.54433594 230.18144531 -46.87695312 229.95898438 C-45.54882812 229.51627604 -44.22070312 229.07356771 -42.89257812 228.63085938 C-42.25642578 228.41880859 -41.62027344 228.20675781 -40.96484375 227.98828125 C-39.98644531 227.66214844 -39.00804687 227.33601562 -38 227 C-37.99761165 226.30185779 -37.99522329 225.60371557 -37.99276257 224.88441753 C-37.93366614 207.90912259 -37.85815067 190.93398063 -37.76428509 173.95884228 C-37.71928997 165.74983693 -37.67988398 157.54087533 -37.65356445 149.33178711 C-37.63061435 142.17802474 -37.59725006 135.02440037 -37.55129844 127.87074739 C-37.52732565 124.08175586 -37.50862357 120.29290136 -37.50238609 116.50383568 C-37.49635341 112.93903676 -37.47642028 109.37458861 -37.44572449 105.80991936 C-37.43270736 103.87465362 -37.43451916 101.93930606 -37.4367218 100.0039978 C-37.42418365 98.85554886 -37.41164551 97.70709991 -37.39872742 96.52384949 C-37.39181397 95.02363141 -37.39181397 95.02363141 -37.38476086 93.49310589 C-36.94010593 90.6119089 -36.31704009 89.71242283 -34 88 C-32.0625 87.6015625 -32.0625 87.6015625 -30 87.625 C-28.9790625 87.61339844 -28.9790625 87.61339844 -27.9375 87.6015625 C-25.36692827 88.13018814 -24.60227256 88.93046203 -23 91 C-22.61523914 93.44625378 -22.61523914 93.44625378 -22.60127258 96.40995789 C-22.58873444 97.53316437 -22.57619629 98.65637085 -22.5632782 99.81361389 C-22.56471329 101.04647629 -22.56614838 102.27933868 -22.56762695 103.54956055 C-22.55233948 105.49605499 -22.55233948 105.49605499 -22.53674316 107.48187256 C-22.50912364 111.04152089 -22.49988202 114.60100948 -22.49388909 118.1607511 C-22.48451822 121.88041012 -22.45831594 125.59994921 -22.43388367 129.3195343 C-22.39017941 136.36364656 -22.36165664 143.40773559 -22.33856028 150.45194227 C-22.31152959 158.47127512 -22.26761682 166.49048756 -22.22227156 174.50973451 C-22.12936902 191.00644135 -22.05994284 207.50313547 -22 224 C-11.44 224 -0.88 224 10 224 C10.01458252 219.98674561 10.02916504 215.97349121 10.04418945 211.83862305 C10.09444691 198.60310055 10.16087461 185.36770111 10.23571491 172.13229656 C10.28070902 164.10489399 10.32011524 156.07753614 10.34643555 148.05004883 C10.36938647 141.05449774 10.40275168 134.05908776 10.44870156 127.06364852 C10.47267326 123.35849356 10.49137604 119.65347869 10.49761391 115.94824791 C10.50476701 111.81514883 10.53516717 107.68253832 10.56762695 103.54956055 C10.56547432 101.70026695 10.56547432 101.70026695 10.5632782 99.81361389 C10.58208542 98.12880417 10.58208542 98.12880417 10.60127258 96.40995789 C10.60588155 95.43193553 10.61049051 94.45391317 10.61523914 93.44625378 C11.06338682 90.59699575 11.71219464 89.70101932 14 88 C15.9375 87.6015625 15.9375 87.6015625 18 87.625 C19.0209375 87.61339844 19.0209375 87.61339844 20.0625 87.6015625 C22.6368603 88.13096724 23.39863441 88.92351363 25 91 C25.38476086 93.49310589 25.38476086 93.49310589 25.39872742 96.52384949 C25.41126556 97.67229843 25.42380371 98.82074738 25.4367218 100.0039978 C25.43528671 101.26491241 25.43385162 102.52582703 25.43237305 103.82495117 C25.44138852 105.16528733 25.45171521 106.50561522 25.46325684 107.84593201 C25.49087865 111.48615579 25.5001183 115.12622336 25.50611091 118.76653838 C25.51548118 122.57027763 25.54168341 126.37389958 25.56611633 130.17756653 C25.60982224 137.38105116 25.638344 144.58451308 25.66143972 151.78809005 C25.68846952 159.98879642 25.73238234 168.18938502 25.77772844 176.39000738 C25.87063327 193.25994433 25.9422872 210.12990671 26 227 C27.22976563 227.40992188 28.45953125 227.81984375 29.7265625 228.2421875 C36.484375 230.49479167 43.2421875 232.74739583 50 235 C50.00358253 233.89094189 50.00358253 233.89094189 50.00723743 232.75947857 C50.06633049 214.78276767 50.14184382 196.80619474 50.23571491 178.82963085 C50.28071251 170.1363515 50.32011794 161.44311348 50.34643555 152.74975586 C50.36938362 145.17409635 50.40274566 137.59856721 50.44870156 130.02301103 C50.47267705 126.01045524 50.49137737 121.9980289 50.49761391 117.98540306 C50.50364534 114.21049438 50.52357406 110.4359171 50.55427551 106.66113091 C50.56308706 105.27400256 50.56677189 103.88683096 50.56500816 102.49967575 C50.56336282 100.60893272 50.58177439 98.71820364 50.60127258 96.82756042 C50.60588155 95.76842029 50.61049051 94.70928015 50.61523914 93.61804485 C51 91 51 91 52.31520367 89.1677599 C55.07792379 87.25287339 57.88828383 87.46384019 61.1875 87.3125 C62.45980469 87.24675781 63.73210937 87.18101563 65.04296875 87.11328125 C66.50669922 87.05720703 66.50669922 87.05720703 68 87 C65.73276911 84.07087599 63.53794071 81.42803815 60.6875 79.0625 C56.55432772 75.53192106 52.58751867 71.84414129 48.625 68.125 C43.63673835 63.44900218 38.6130041 58.82288446 33.515625 54.265625 C29.40674023 50.56507661 25.35635875 46.801421 21.296875 43.046875 C17.18935742 39.24826591 13.06806341 35.46493958 8.9375 31.69140625 C6.9083697 29.83226957 4.8877596 27.96645346 2.875 26.08984375 C1.87501308 25.16404837 0.87501355 24.23826661 -0.125 23.3125 C-1.01445312 22.48363281 -1.90390625 21.65476562 -2.8203125 20.80078125 C-5.63266185 18.46220663 -5.63266185 18.46220663 -8.4453125 20.28515625 Z M-134.57714844 152.35131836 C-135.46513123 152.38872635 -136.35311401 152.42613434 -137.26800537 152.4646759 C-145.45859626 152.81045259 -153.64898737 153.16098387 -161.83932114 153.51279354 C-167.34298771 153.74919854 -172.84670727 153.98415706 -178.35058594 154.21557617 C-183.66982335 154.43925275 -188.98889496 154.66654201 -194.30786896 154.89639473 C-196.33476642 154.98337481 -198.36171894 155.06908147 -200.38872528 155.15348625 C-203.22773546 155.27196062 -206.0665092 155.3950772 -208.90527344 155.51928711 C-210.15860474 155.56999863 -210.15860474 155.56999863 -211.43725586 155.62173462 C-215.7000453 155.81331726 -219.7988512 156.18803696 -224 157 C-225.07546711 176.64715877 -226.09494992 196.29681618 -226.99127197 215.95303345 C-227.07933536 217.87722443 -227.16861885 219.80136002 -227.25921631 221.72543335 C-227.79565468 233.16107393 -228.12773264 244.55069527 -228 256 C-227.48228027 255.54939209 -226.96456055 255.09878418 -226.43115234 254.63452148 C-219.1857579 248.32834484 -219.1857579 248.32834484 -213.33984375 248.40234375 C-208.16277269 249.7247008 -204.62634072 254.29482579 -201 258 C-199.81664062 259.14855469 -199.81664062 259.14855469 -198.609375 260.3203125 C-195.28809932 263.56251019 -192.11642419 266.85723855 -189.10986328 270.39233398 C-183.99528615 276.24716308 -178.44850267 281.67548975 -172.94140625 287.15625 C-171.78533837 288.31044894 -170.62949394 289.46487172 -169.47386169 290.61950684 C-166.4561667 293.63341408 -163.43547913 296.64430403 -160.41412354 299.65454102 C-157.32176853 302.73660074 -154.23230132 305.82155233 -151.14257812 308.90625 C-145.09784888 314.94030804 -139.04994994 320.97117643 -133 327 C-131.0564864 324.08472959 -130.36521486 321.76535566 -129.5559082 318.40332031 C-124.13443407 296.18408595 -112.72311103 277.41171443 -97 261 C-96.35546875 260.30390625 -95.7109375 259.6078125 -95.046875 258.890625 C-92.17942009 255.88329424 -89.77386085 253.40335187 -86.0546875 251.46484375 C-82.14797144 249.3516201 -78.99503857 247.30299194 -77.17333984 243.0867157 C-75.41460118 236.60881301 -75.60435356 230.27205321 -78 224 C-84.5967481 214.10487784 -93.82659337 206.13155042 -102.51049805 198.10583496 C-105.7344238 195.10553766 -108.9012169 192.04620199 -112.07226562 188.99023438 C-115.63275119 185.56414445 -119.19824473 182.14498137 -122.80601501 178.76863098 C-123.34995407 178.25896286 -123.89389313 177.74929474 -124.45431519 177.22418213 C-125.92313976 175.85076178 -127.3952832 174.48089327 -128.86766052 173.11128235 C-131.49054715 170.51429706 -131.91458491 169.53384433 -132.5 165.875 C-131.86857719 160.98147319 -129.98546198 159.15070737 -126.62890625 155.69921875 C-124.91754853 154.08186296 -124.91754853 154.08186296 -124 152 C-127.52815762 152 -131.05259574 152.20162206 -134.57714844 152.35131836 Z M113 153 C113.63228516 153.72316406 113.63228516 153.72316406 114.27734375 154.4609375 C114.82519531 155.09257812 115.37304688 155.72421875 115.9375 156.375 C116.75541016 157.31472656 116.75541016 157.31472656 117.58984375 158.2734375 C120.11709157 161.36774092 120.40158442 163.95435457 120.33755493 167.94640541 C119.75295537 171.50295397 117.63578172 173.15838104 115.04296875 175.53198242 C114.51627594 176.0261113 113.98958313 176.52024017 113.44692993 177.02934265 C112.30596717 178.09658728 111.15643658 179.1547307 109.99942017 180.20454979 C108.16067906 181.87990647 106.35502217 183.58504482 104.55541992 185.30232239 C99.43898175 190.1785124 94.28903439 195.01618624 89.07128906 199.78393555 C72.12460008 213.87376761 72.12460008 213.87376761 63.88317871 233.14045715 C64.04143015 239.04189535 64.43973585 243.83639622 68.74682617 248.18139648 C70.90760414 249.88508335 72.87329836 251.40642759 75.28125 252.703125 C96.60576168 265.23517101 110.54499944 293.14509966 117 316 C117.31710937 317.11246094 117.63421875 318.22492188 117.9609375 319.37109375 C118.66559925 321.90852255 119.34759622 324.44872992 120 327 C125.03035813 322.79698201 129.70241237 318.40051158 134.27709961 313.70947266 C135.70646595 312.2538051 137.13590762 310.79821151 138.56541443 309.34268188 C139.31262693 308.57999622 140.05983944 307.81731056 140.82969475 307.03151321 C144.8147328 302.96960753 148.8179494 298.92566346 152.81835938 294.87890625 C157.89643353 289.74076279 162.96869311 284.59730202 168.01928711 279.43212891 C172.11430413 275.2451729 176.22854081 271.07799758 180.35644722 266.92347336 C181.92291748 265.33972412 183.48219216 263.74882385 185.03400993 262.15071487 C187.20232342 259.91965489 189.39432142 257.71473645 191.59350586 255.51416016 C192.54374634 254.5184198 192.54374634 254.5184198 193.51318359 253.50256348 C196.66990732 250.39554059 198.76798416 248.60612156 203.30909729 248.49935913 C207.27254874 249.03696901 208.61617473 249.63926294 211.375 252.4375 C213.94614684 255.05558131 213.94614684 255.05558131 217 257 C216.50012653 244.84736168 215.99622969 232.69489749 215.48720646 220.54263878 C215.25096897 214.89976207 215.01611381 209.25683493 214.78442383 203.61376953 C214.56074894 198.16716396 214.33343504 192.7207213 214.10360527 187.2743721 C214.0165916 185.19723516 213.93088572 183.12004301 213.84651375 181.04279709 C213.72804965 178.13172695 213.60492291 175.22088844 213.48071289 172.31005859 C213.44690521 171.45266083 213.41309753 170.59526306 213.37826538 169.71188354 C213.18916771 165.39794502 212.82613286 161.25080616 212 157 C204.0231058 155.98628905 196.0489747 155.59876432 188.01953125 155.24609375 C186.5605161 155.18038078 185.1015064 155.11454677 183.64250183 155.04859924 C180.58735796 154.91127504 177.53212121 154.77629241 174.47680664 154.64282227 C171.39036964 154.50774879 168.30413046 154.36909205 165.21801758 154.22680664 C147.80553644 153.42428249 130.43663016 152.75444708 113 153 Z M-87 274 C-87.73605469 274.72574219 -88.47210938 275.45148438 -89.23046875 276.19921875 C-104.53736775 292.23938237 -114.25314214 315.14999431 -117 337 C-117.1340625 338.00546875 -117.268125 339.0109375 -117.40625 340.046875 C-120.33083766 368.36220095 -111.95450146 397.09418113 -94.32519531 419.37109375 C-74.92292572 443.22001467 -48.22156513 458.80469213 -17.5390625 462.40625 C13.02258291 465.09030668 42.01587349 456.18325645 65.62109375 436.65917969 C86.82866934 418.67940747 102.0422228 392.93146208 105 365 C105.61085178 350.60665513 106.20877513 335.90794489 102 322 C101.79600586 321.32469238 101.59201172 320.64938477 101.38183594 319.95361328 C92.29015888 290.5677779 72.99697842 266.7833398 46 252 C1.39322662 228.5526947 -52.02535999 238.5204933 -87 274 Z " fill="#000000" transform="translate(262,17)"/>
<path d="M0 0 C0.66 -0.0103125 1.32 -0.020625 2 -0.03125 C4.95613104 0.75397231 6.09984561 2.12505125 8 4.5 C8.45410156 7.52441406 8.45410156 7.52441406 8.390625 11.015625 C8.37773437 12.26601563 8.36484375 13.51640625 8.3515625 14.8046875 C8.31804687 16.10664063 8.28453125 17.40859375 8.25 18.75 C8.23195313 20.06742187 8.21390625 21.38484375 8.1953125 22.7421875 C8.14816271 25.99552308 8.08236044 29.24739625 8 32.5 C9.19544434 32.4685791 9.19544434 32.4685791 10.41503906 32.43652344 C14.02656434 32.35336678 17.63788824 32.30133966 21.25 32.25 C23.13138672 32.19972656 23.13138672 32.19972656 25.05078125 32.1484375 C26.25605469 32.13554687 27.46132813 32.12265625 28.703125 32.109375 C29.81333008 32.08842773 30.92353516 32.06748047 32.06738281 32.04589844 C35.66766187 32.60338421 36.7830972 33.67198617 39 36.5 C40.37749054 39.98964271 40.11114829 41.22477566 38.6875 44.75 C37 47.5 37 47.5 35 48.5 C32.96767366 48.58527628 30.93252994 48.60716135 28.8984375 48.59765625 C27.80708496 48.59515869 26.71573242 48.59266113 25.59130859 48.59008789 C24.19992676 48.58098389 22.80854492 48.57187988 21.375 48.5625 C16.96125 48.541875 12.5475 48.52125 8 48.5 C8.33 61.37 8.66 74.24 9 87.5 C13.29 87.83 17.58 88.16 22 88.5 C32.52403637 91.97112098 40.07699248 97.77191192 45.3125 107.5625 C50.1551488 118.30777652 50.45306633 128.62138725 46.3203125 139.67578125 C41.80693735 149.33013106 34.80282902 154.26380689 25.75 159.3125 C22.09365843 160.4703415 19.07465633 160.8153756 15.265625 161.07421875 C14.09290039 161.15631592 12.92017578 161.23841309 11.71191406 161.32299805 C10.3695166 161.41061401 10.3695166 161.41061401 9 161.5 C8.9906543 162.29696289 8.98130859 163.09392578 8.97167969 163.91503906 C8.91798502 167.52732175 8.83433392 171.13830821 8.75 174.75 C8.73582031 176.00425781 8.72164063 177.25851562 8.70703125 178.55078125 C8.67480469 179.75605469 8.64257812 180.96132813 8.609375 182.203125 C8.58842773 183.31333008 8.56748047 184.42353516 8.54589844 185.56738281 C7.88657758 189.10931577 6.79792923 190.30172055 4 192.5 C2 193.03125 2 193.03125 0 193 C-0.99 193.01546875 -0.99 193.01546875 -2 193.03125 C-4.95613104 192.24602769 -6.09984561 190.87494875 -8 188.5 C-8.45410156 185.47558594 -8.45410156 185.47558594 -8.390625 181.984375 C-8.37773437 180.73398437 -8.36484375 179.48359375 -8.3515625 178.1953125 C-8.31804687 176.89335937 -8.28453125 175.59140625 -8.25 174.25 C-8.23195312 172.93257812 -8.21390625 171.61515625 -8.1953125 170.2578125 C-8.14816271 167.00447692 -8.08236044 163.75260375 -8 160.5 C-8.79696289 160.52094727 -9.59392578 160.54189453 -10.41503906 160.56347656 C-14.02656434 160.64663322 -17.63788824 160.69866034 -21.25 160.75 C-22.50425781 160.78351563 -23.75851563 160.81703125 -25.05078125 160.8515625 C-26.85869141 160.87089844 -26.85869141 160.87089844 -28.703125 160.890625 C-29.81333008 160.91157227 -30.92353516 160.93251953 -32.06738281 160.95410156 C-35.67763872 160.39507093 -36.79678949 159.35706654 -39 156.5 C-40.17590974 152.81548282 -40.33481338 151.21745725 -38.6875 147.6875 C-37 145.5 -37 145.5 -35 144.5 C-32.96767366 144.41472372 -30.93252994 144.39283865 -28.8984375 144.40234375 C-27.26140869 144.40609009 -27.26140869 144.40609009 -25.59130859 144.40991211 C-24.19992676 144.41901611 -22.80854492 144.42812012 -21.375 144.4375 C-16.96125 144.458125 -12.5475 144.47875 -8 144.5 C-8.33 131.63 -8.66 118.76 -9 105.5 C-13.29 105.17 -17.58 104.84 -22 104.5 C-31.57080579 101.35413557 -39.8913876 95.47391864 -44.93359375 86.6875 C-49.72727604 76.85430555 -50.53499781 66.81996025 -47.4375 56.3125 C-43.22818254 45.05331169 -35.9370042 39.36871388 -25.75 33.6875 C-22.09365843 32.5296585 -19.07465633 32.1846244 -15.265625 31.92578125 C-14.09290039 31.84368408 -12.92017578 31.76158691 -11.71191406 31.67700195 C-10.81698242 31.61859131 -9.92205078 31.56018066 -9 31.5 C-8.9906543 30.70303711 -8.98130859 29.90607422 -8.97167969 29.08496094 C-8.91798502 25.47267825 -8.83433392 21.86169179 -8.75 18.25 C-8.73582031 16.99574219 -8.72164062 15.74148438 -8.70703125 14.44921875 C-8.67480469 13.24394531 -8.64257812 12.03867187 -8.609375 10.796875 C-8.58842773 9.68666992 -8.56748047 8.57646484 -8.54589844 7.43261719 C-7.65990438 2.67297469 -4.91798743 -0.07684355 0 0 Z M-25 54.5 C-29.70543487 59.72826097 -31.60313986 63.8169484 -31.4375 70.8359375 C-30.52089588 76.41740188 -27.31389508 80.46745904 -23.13671875 84.13671875 C-17.81205506 87.86078213 -15.28949942 87.69005562 -8 88.5 C-8 75.3 -8 62.1 -8 48.5 C-14.64358896 48.5 -19.82993343 50.38744705 -25 54.5 Z M8 104.5 C8 117.7 8 130.9 8 144.5 C15.36711277 144.5 20.20746288 143.75996808 25.8359375 138.921875 C29.75144206 134.68167006 31.94530672 130.44572948 32.02734375 124.52734375 C31.54050034 118.04858147 28.94979429 113.01841771 24.125 108.6875 C18.4272017 104.69904119 15.10207031 104.5 8 104.5 Z " fill="#000000" transform="translate(256,271.5)"/>
</svg>
