<?xml version="1.0" encoding="UTF-8"?>
<svg version="1.1" xmlns="http://www.w3.org/2000/svg" width="512" height="512">
<path d="M0 0 C0.95674212 -0.00623996 1.91348425 -0.01247993 2.89921856 -0.01890898 C6.08972355 -0.03480254 9.2794607 -0.02224867 12.4699707 -0.00964355 C14.76356449 -0.01506627 17.0571548 -0.02218976 19.35073853 -0.03088379 C25.56969893 -0.04910208 31.78839357 -0.04205558 38.00735855 -0.02936745 C44.51923584 -0.01923216 51.03109056 -0.02863461 57.54296875 -0.03491211 C69.17817591 -0.04265276 80.81326191 -0.03023125 92.44844997 -0.00987476 C102.98856096 0.00799521 113.52849571 0.00489078 124.06860352 -0.0135498 C136.3215031 -0.03497712 148.57427725 -0.04291266 160.82719517 -0.03110075 C167.3085357 -0.02486839 173.78975494 -0.02402328 180.27108765 -0.0372467 C186.36478113 -0.04881108 192.45814216 -0.04076821 198.55179977 -0.01766968 C200.78667016 -0.0123858 203.02156858 -0.01389082 205.25642776 -0.02272034 C208.31016273 -0.0336717 211.36283633 -0.01991631 214.41650391 0 C215.29822612 -0.00892289 216.17994833 -0.01784577 217.0883894 -0.02703905 C223.8539327 0.05838706 229.33508751 1.71654901 234.2668457 6.50793457 C234.72188477 7.16793457 235.17692383 7.82793457 235.64575195 8.50793457 C236.11883789 9.16793457 236.59192383 9.82793457 237.0793457 10.50793457 C238.93846139 13.80159281 239.33332097 16.88012179 239.33129978 20.62335587 C239.33329083 21.43946783 239.33528188 22.2555798 239.33733326 23.09642243 C239.33442042 23.98747107 239.33150758 24.87851971 239.32850647 25.79656982 C239.32978811 27.22277259 239.32978811 27.22277259 239.33109564 28.67778754 C239.33274595 31.87151443 239.32723635 35.06518907 239.32177734 38.25891113 C239.32149535 40.54518635 239.32165345 42.83146165 239.32221985 45.11773682 C239.32250735 51.33218569 239.31661829 57.54661536 239.30964589 63.76105976 C239.30340444 70.25267248 239.30280793 76.74428562 239.30162048 83.23590088 C239.2988632 94.13419946 239.29261241 105.03249092 239.28369141 115.93078613 C239.27451231 127.15604619 239.26743391 138.38130433 239.26318359 149.60656738 C239.26278951 150.6444655 239.26278951 150.6444655 239.26238746 151.70333126 C239.26108242 155.17455324 239.25981872 158.64577524 239.25857556 162.11699724 C239.24820895 190.91398102 239.23052152 219.71095763 239.20825195 248.50793457 C241.17356873 248.49794182 241.17356873 248.49794182 243.17858887 248.48774719 C255.53763274 248.42688157 267.89664612 248.38193565 280.25580597 248.35249805 C286.60948442 248.33685505 292.96304168 248.31564136 299.31665039 248.28161621 C305.45042611 248.2489746 311.5840854 248.23107129 317.71794128 248.22330284 C320.05586072 248.217768 322.39377392 248.20695981 324.73164368 248.1907444 C328.01109494 248.16890676 331.29006758 248.16597036 334.56958008 248.1673584 C335.53199615 248.15657257 336.49441223 248.14578674 337.48599243 248.13467407 C344.73914755 248.16780292 351.34072983 249.33801273 357.02075195 254.25793457 C357.56344727 254.70652832 358.10614258 255.15512207 358.6652832 255.61730957 C363.31268299 261.31184501 363.64399573 267.09795014 363.59593201 274.14146423 C363.60401031 275.56917045 363.60401031 275.56917045 363.61225182 277.02571923 C363.62652463 280.20538918 363.61942923 283.38464244 363.61230469 286.56433105 C363.61800858 288.84792414 363.62497291 291.13151436 363.63310242 293.4151001 C363.65104636 299.61134722 363.6498631 305.80745283 363.64416003 312.00371814 C363.64107009 317.17777911 363.64715846 322.35181282 363.65319878 327.52586991 C363.66804935 340.42997606 363.66442707 353.33399359 363.65233547 366.23809821 C363.64240331 377.43556933 363.65534477 388.6328752 363.67926966 399.83032083 C363.70367283 411.33865015 363.71286606 422.84688377 363.70661694 434.3552404 C363.70324559 440.81201245 363.70567452 447.26864797 363.72286797 453.72540092 C363.73832994 459.79690682 363.73438946 465.86809707 363.71556282 471.93959045 C363.71187497 474.1664022 363.71499106 476.3932373 363.72544861 478.62002754 C363.73864629 481.66285599 363.72712113 484.70463763 363.7094574 487.74742126 C363.7190624 488.62593465 363.72866741 489.50444803 363.73856348 490.40958303 C363.6623424 496.80316201 362.2629639 502.28324906 357.76099104 507.03572553 C353.82034011 510.45476779 350.3199914 512.75598392 345.06273842 512.76241016 C344.23987646 512.76824236 343.4170145 512.77407455 342.56921732 512.78008348 C341.67058856 512.77630415 340.77195979 512.77252483 339.84609985 512.76863098 C338.88728074 512.77245653 337.92846164 512.77628208 336.9405874 512.78022355 C333.71936945 512.79056377 330.49832941 512.78655942 327.27709961 512.78259277 C324.97100153 512.7869387 322.6649049 512.79212144 320.35881042 512.79808044 C314.08816704 512.81149501 307.81758383 512.81204634 301.54692888 512.80951715 C296.3156728 512.80844903 291.08442898 512.81332674 285.85317552 512.81812257 C272.8071715 512.8298617 259.76120183 512.82898783 246.71519558 512.82256576 C235.38688132 512.8173974 224.05865306 512.8286493 212.73035581 512.84766398 C201.09784316 512.86703953 189.46537489 512.87500734 177.83284605 512.87154073 C171.30233788 512.86972566 164.77190847 512.87238631 158.24141312 512.88625526 C152.10023829 512.89880879 145.95923584 512.89691285 139.81806374 512.88384438 C137.56299978 512.8814736 135.30792378 512.88423113 133.05287361 512.8924675 C129.97650487 512.90289412 126.9007189 512.8948668 123.82437134 512.88215637 C122.93020402 512.88953066 122.03603669 512.89690494 121.11477339 512.90450269 C115.96791007 512.85971087 112.79215591 512.06105961 108.20825195 509.50793457 C105.50784806 510.15457024 105.50784806 510.15457024 103.20825195 511.50793457 C99.69854184 512.67783794 96.54032934 512.65606115 92.88905334 512.65510559 C92.1379387 512.65878228 91.38682405 512.66245897 90.61294836 512.66624707 C88.08880114 512.67728576 85.56469509 512.68112801 83.04052734 512.68493652 C81.23378875 512.69120086 79.42705144 512.69784763 77.62031555 512.70484924 C72.70716266 512.72225756 67.79401949 512.7328098 62.8808434 512.74105477 C59.8131889 512.7462036 56.74553742 512.75227928 53.67788506 512.7585659 C44.08519586 512.77761456 34.49251437 512.79184833 24.8998099 512.80017787 C13.81608064 512.80996052 2.73255055 512.83630819 -8.35110849 512.87667876 C-16.9125212 512.90679597 -25.47387665 512.92164242 -34.03534132 512.92495888 C-39.15180866 512.92731371 -44.26806314 512.93633069 -49.3844738 512.96142006 C-54.19519739 512.98463005 -59.00556688 512.98896266 -63.81633186 512.97865868 C-65.58364156 512.97816153 -67.35096828 512.98453426 -69.1182251 512.99821472 C-71.52776746 513.01582647 -73.93602407 513.0088816 -76.3455658 512.99568176 C-77.39892094 513.01213563 -77.39892094 513.01213563 -78.47355598 513.0289219 C-81.78956463 512.98494706 -83.53543403 512.69870978 -86.22588444 510.69620037 C-88.516059 507.49572325 -88.33972537 505.34377586 -87.79174805 501.50793457 C-86.21122742 499.32120037 -86.21122742 499.32120037 -83.79174805 497.50793457 C-80.53083801 497.0029192 -80.53083801 497.0029192 -76.58007812 496.99568176 C-75.85261037 496.98888608 -75.12514261 496.98209039 -74.37563038 496.97508878 C-71.93720629 496.95712618 -69.49973561 496.96760199 -67.0612793 496.97790527 C-65.31349924 496.97080847 -63.56572558 496.9619455 -61.81796265 496.95144653 C-57.07007186 496.92781001 -52.32245555 496.92857167 -47.57452011 496.93336129 C-42.6088713 496.93395399 -37.64333304 496.91127374 -32.67773438 496.89079285 C-23.26906269 496.85535416 -13.86046827 496.83936023 -4.4517374 496.83101767 C9.36051078 496.81806791 23.17269408 496.77979756 36.98487854 496.73691845 C37.99713973 496.73377976 39.00940092 496.73064108 40.05233669 496.72740728 C42.07046243 496.72112714 44.08858797 496.71478356 46.10671329 496.70837468 C52.02318816 496.69029515 57.93962494 496.67919901 63.85612488 496.67407763 C67.5339364 496.67024795 71.21173411 496.66263493 74.88953781 496.65427017 C76.59716963 496.6513079 78.30480545 496.65007464 80.01243973 496.65068245 C82.34052012 496.65134858 84.66851318 496.64600724 86.99658203 496.63923645 C88.30033279 496.63797917 89.60408356 496.6367219 90.94734192 496.63542652 C93.61980092 496.53094127 95.6657018 496.20441614 98.20825195 495.50793457 C98.27664974 466.64055995 98.32976028 437.77319486 98.36144794 408.9057552 C98.36520018 405.49979207 98.36908314 402.0938291 98.37304688 398.68786621 C98.37383381 398.00978359 98.37462074 397.33170097 98.37543152 396.63307039 C98.38849511 385.64521043 98.41215417 374.65739742 98.43971034 363.66956534 C98.46773807 352.39994155 98.48419798 341.13034126 98.49051744 329.86068088 C98.49443688 323.52860677 98.50368248 317.19663926 98.52544212 310.86459923 C98.54574036 304.90982137 98.55209927 298.95519445 98.547575 293.00038528 C98.54840319 290.8101717 98.55440829 288.61995328 98.56586838 286.42976952 C98.58070816 283.44849033 98.57723672 280.46778741 98.5690155 277.48649597 C98.57775403 276.61198923 98.58649255 275.73748249 98.59549588 274.83647555 C98.68749996 270.54705038 98.68749996 270.54705038 96.9263714 266.78671229 C93.86821794 264.51056174 90.03337671 265.10227559 86.36376953 265.13371277 C84.99102607 265.12775116 84.99102607 265.12775116 83.59055042 265.12166911 C80.51113864 265.11201246 77.43218241 265.12388463 74.3527832 265.13562012 C72.15033801 265.13319327 69.94789392 265.12947499 67.74545288 265.1245575 C61.75382613 265.1151303 55.7623622 265.12458934 49.77074814 265.13788962 C43.51008826 265.14918169 37.24943666 265.14509836 30.98876953 265.1431427 C20.47368998 265.14225901 9.95866404 265.1532852 -0.55639648 265.17175293 C-11.37998398 265.1907576 -22.20349662 265.19784063 -33.02709961 265.19226074 C-46.0631342 265.18556018 -59.09913099 265.18884448 -72.13516235 265.20136452 C-77.11757013 265.20601753 -82.09995758 265.20688132 -87.08236694 265.20477867 C-92.94607805 265.20289946 -98.80969269 265.21097134 -104.67338181 265.22683907 C-106.82972184 265.23109326 -108.98607165 265.23192489 -111.14241409 265.22914886 C-114.07747161 265.22594274 -117.01223805 265.2349692 -119.94726562 265.24723816 C-120.80805316 265.24345884 -121.66884069 265.23967951 -122.5557127 265.23578566 C-126.48006953 265.26496402 -128.45222305 265.28158457 -131.79174805 267.50793457 C-132.08583307 270.52829546 -132.18261574 273.34353834 -132.1525116 276.36624146 C-132.15635651 277.75925431 -132.15635651 277.75925431 -132.1602791 279.18040884 C-132.16524472 282.31140444 -132.14867833 285.44192435 -132.13232422 288.57287598 C-132.13147855 290.80959563 -132.13195191 293.04631611 -132.13365173 295.28303528 C-132.13451545 301.37163797 -132.11682887 307.46006476 -132.09592986 313.54862642 C-132.07722563 319.90544534 -132.07541757 326.26226792 -132.07185364 332.61911011 C-132.063577 343.29400042 -132.04481531 353.96882095 -132.01806641 364.64367676 C-131.99054035 375.64009273 -131.96929967 386.63649112 -131.95654297 397.63293457 C-131.9557548 398.31045712 -131.95496663 398.98797967 -131.95415457 399.6860332 C-131.95023954 403.084876 -131.94644839 406.48371892 -131.94271886 409.88256192 C-131.91160546 438.09106457 -131.85853181 466.29949555 -131.79174805 494.50793457 C-128.95844072 495.99178471 -126.99923259 496.7576355 -123.7878418 496.81652832 C-123.04727539 496.84166504 -122.30670898 496.86680176 -121.54370117 496.8927002 C-119.996912 496.92794349 -118.45002634 496.959174 -116.90307617 496.9864502 C-111.26756045 497.18789409 -111.26756045 497.18789409 -108.82299805 498.83215332 C-107.0439035 501.72318196 -106.84964158 504.15010939 -106.79174805 507.50793457 C-108.0534668 510.19543457 -108.0534668 510.19543457 -110.79174805 512.50793457 C-114.71478745 513.27449201 -118.55656989 513.20461044 -122.54174805 513.13293457 C-123.60135742 513.15227051 -124.6609668 513.17160645 -125.75268555 513.19152832 C-132.6404324 513.14880036 -137.55646542 512.15515307 -142.79174805 507.50793457 C-148.17782338 501.37273513 -148.94055746 496.28595196 -148.93891907 488.35542297 C-148.94259576 487.40703653 -148.94627244 486.45865008 -148.95006055 485.48152465 C-148.96111252 482.28955756 -148.9649438 479.09762302 -148.96875 475.90563965 C-148.97501351 473.62263892 -148.9816602 471.33963921 -148.98866272 469.05664062 C-149.00608284 462.84367289 -149.01662725 456.63071286 -149.02486825 450.41772676 C-149.03001627 446.53728428 -149.03609209 442.65684421 -149.04237938 438.77640343 C-149.05925018 428.03018967 -149.07388493 417.28397963 -149.08112812 406.53775501 C-149.08303798 403.74941316 -149.08495831 400.96107131 -149.08691406 398.17272949 C-149.0873978 397.47971124 -149.08788154 396.78669298 -149.08837994 396.07267418 C-149.09667822 384.84909517 -149.12201183 373.6256228 -149.15449474 362.40209035 C-149.18758148 350.87582327 -149.20524569 339.34962638 -149.20877236 327.82331008 C-149.21112457 321.3530453 -149.22010752 314.88294908 -149.24523354 308.41272926 C-149.26849234 302.32488794 -149.27275611 296.23732642 -149.26247215 290.14945221 C-149.26197615 287.91618355 -149.26831536 285.68290122 -149.2820282 283.44967461 C-149.29971723 280.39790233 -149.29265509 277.34713739 -149.27949524 274.29536438 C-149.29046449 273.41412252 -149.30143373 272.53288066 -149.31273538 271.62493449 C-149.24249769 264.86620619 -147.45044311 259.7182004 -143.1159668 254.48449707 C-142.57584961 254.03848145 -142.03573242 253.59246582 -141.47924805 253.13293457 C-140.68067383 252.44070801 -140.68067383 252.44070801 -139.8659668 251.73449707 C-133.69945328 248.08800885 -127.21480659 248.22916449 -120.26660156 248.28088379 C-119.2317009 248.28059174 -118.19680023 248.28029968 -117.13053894 248.27999878 C-113.72715726 248.28138646 -110.32399749 248.29692136 -106.9206543 248.31262207 C-104.55411397 248.31635419 -102.18757209 248.31920022 -99.82102966 248.32119751 C-93.60515037 248.32881825 -87.38936517 248.34845343 -81.17352295 248.37060547 C-74.82557447 248.39109745 -68.47761072 248.4002064 -62.12963867 248.41027832 C-49.68363389 248.43170073 -37.2376988 248.46581791 -24.79174805 248.50793457 C-24.79543522 247.77463802 -24.79912239 247.04134148 -24.8029213 246.28582382 C-24.89122286 228.45076832 -24.95743352 210.6157564 -24.99899673 192.78052902 C-25.01963018 184.15556747 -25.04776561 175.53075175 -25.09350586 166.90588379 C-25.13334981 159.38925526 -25.15917517 151.87273233 -25.16810203 144.35600114 C-25.17332096 140.37515839 -25.18560324 136.39461777 -25.21466827 132.41387177 C-25.24179904 128.66772577 -25.25019794 124.92200662 -25.24417877 121.17577171 C-25.24528008 119.80030435 -25.25324835 118.42482285 -25.26856995 117.04944038 C-25.28845673 115.17232696 -25.28130577 113.29498499 -25.27276611 111.41778564 C-25.27645329 110.36694164 -25.28014046 109.31609764 -25.28393936 108.23340988 C-24.66124456 104.78528057 -23.54984074 103.6108486 -20.79174805 101.50793457 C-16.67885932 100.83491641 -14.6430084 100.96751978 -11.10733032 103.21211243 C-7.01574686 107.62480951 -8.12136885 114.18985113 -8.17993164 119.80358887 C-8.17638891 121.17052944 -8.17060955 122.53746577 -8.1627655 123.90438843 C-8.15060197 126.84235423 -8.1540343 129.77973902 -8.16959763 132.71768761 C-8.19391978 137.36048634 -8.1824189 142.00277637 -8.16592407 146.64558411 C-8.14144479 154.8203948 -8.14722816 162.99497367 -8.159729 171.1697998 C-8.1783298 183.48906781 -8.17352591 195.80829302 -8.13969481 208.12752849 C-8.12815767 212.74592899 -8.13264982 217.36396014 -8.14971519 221.98234022 C-8.15759086 224.84939234 -8.15337611 227.71633597 -8.14600563 230.58338547 C-8.14480407 232.55344872 -8.15868178 234.5235029 -8.17292786 236.49351501 C-8.16761551 237.65860596 -8.16230316 238.8236969 -8.15682983 240.02409363 C-8.15871496 241.04078975 -8.16060009 242.05748587 -8.16254234 243.10499096 C-8.04018023 243.89796235 -7.91781811 244.69093374 -7.79174805 245.50793457 C-3.85671937 248.13128702 -0.51297582 247.78556583 4.05273438 247.76190186 C4.96789668 247.76502184 5.88305899 247.76814182 6.82595348 247.77135634 C9.90527394 247.77936015 12.98439863 247.77300341 16.0637207 247.76672363 C18.26616532 247.76943244 20.46860904 247.77299274 22.67105103 247.77734375 C28.66264174 247.78648318 34.6541638 247.78291709 40.64575577 247.77658558 C46.90641723 247.77153362 53.16707269 247.77621479 59.42773438 247.77935791 C70.61695599 247.78323341 81.80615232 247.77700525 92.99536788 247.76683924 C103.14479529 247.75790348 113.29417694 247.75945545 123.44360352 247.76867676 C135.22394661 247.7793748 147.00426742 247.78336648 158.78461552 247.77745223 C165.02271181 247.77432887 171.26077657 247.77393321 177.49887085 247.78052521 C183.36257449 247.78628838 189.22619146 247.78232065 195.08988571 247.77073669 C197.24622834 247.76808459 199.40257822 247.76886452 201.558918 247.77326202 C204.49396812 247.77869723 207.42873748 247.771908 210.36376953 247.76190186 C211.22455707 247.7663633 212.0853446 247.77082474 212.97221661 247.77542138 C216.89768357 247.74932098 218.86763094 247.73501524 222.20825195 245.50793457 C222.50455675 242.50452274 222.60351182 239.70704992 222.57574463 236.7010498 C222.57901347 235.77786925 222.58228231 234.8546887 222.58565021 233.90353298 C222.59296891 230.79103407 222.57873751 227.67899893 222.56469727 224.56652832 C222.5654876 222.34290486 222.5675832 220.11928154 222.57089233 217.8956604 C222.57604123 211.84205317 222.56246128 205.78861496 222.54536533 199.73503494 C222.53036923 193.41251273 222.53150431 187.08999308 222.53070068 180.76745605 C222.52700404 170.14803847 222.5121076 159.5286912 222.48950195 148.90930176 C222.46624284 137.97505153 222.45207738 127.04084214 222.44848633 116.10656738 C222.44815218 115.09646026 222.44815218 115.09646026 222.44781128 114.06594694 C222.44736869 112.70942865 222.44692666 111.35291036 222.44648521 109.99639207 C222.44626564 109.32728529 222.44604607 108.65817852 222.44581985 107.96879578 C222.44560387 107.30141567 222.44538788 106.63403556 222.44516535 105.94643182 C222.44124326 94.90989661 222.42854278 83.87336911 222.41547298 72.83684158 C222.41136786 69.06207556 222.40844534 65.28730994 222.4056778 61.51254272 C222.40079493 55.58977582 222.39060868 49.66704065 222.37623978 43.7442894 C222.37170575 41.56495322 222.36887552 39.38561277 222.36783218 37.20627213 C222.36609441 34.24242233 222.35823251 31.27865276 222.34869385 28.31481934 C222.34956033 27.44265494 222.35042681 26.57049055 222.35131955 25.67189693 C222.4482367 21.4557138 222.4482367 21.4557138 221.20825195 17.50793457 C217.27733686 16.19762954 213.5369308 16.37023612 209.43969727 16.38095093 C208.53270206 16.37939094 207.62570686 16.37783095 206.69122696 16.37622368 C203.63959396 16.37222201 200.58801036 16.37540014 197.53637695 16.37854004 C195.3536374 16.37718563 193.17089807 16.37540547 190.98815918 16.37322998 C185.05030256 16.36866037 179.11246326 16.37044328 173.17460632 16.37360907 C166.97000073 16.37613509 160.76539666 16.37379445 154.56079102 16.3722229 C143.47177566 16.37028517 132.38276715 16.3733992 121.29375315 16.37848224 C111.23530092 16.38295011 101.17686023 16.38217412 91.1184082 16.37756348 C79.44354441 16.37221441 67.76868735 16.37021864 56.09382248 16.37317574 C49.9116259 16.3747374 43.72943728 16.3749353 37.54724121 16.37163925 C31.73609117 16.36875762 25.92496298 16.37074165 20.11381531 16.37653351 C17.97682227 16.37785953 15.8398274 16.37746965 13.70283508 16.37527084 C10.79413381 16.3725532 7.88550336 16.3759481 4.97680664 16.38095093 C4.123801 16.37872021 3.27079536 16.37648948 2.39194107 16.37419116 C-0.92472518 16.38531622 -3.62291054 16.4516554 -6.79174805 17.50793457 C-8.08643024 20.09729896 -7.93764279 22.00428537 -7.96533203 24.90393066 C-7.98556679 26.59611221 -7.98556679 26.59611221 -8.00621033 28.32247925 C-8.01664871 29.54641388 -8.0270871 30.77034851 -8.0378418 32.03137207 C-8.07077757 34.60429217 -8.10398927 37.17720876 -8.13745117 39.75012207 C-8.18595768 43.82104215 -8.22974933 47.89198889 -8.26855469 51.9630127 C-8.30647915 55.88177995 -8.35976885 59.80028031 -8.4128418 63.71887207 C-8.42125595 64.93875824 -8.4296701 66.15864441 -8.43833923 67.41549683 C-8.46330223 69.11713486 -8.46330223 69.11713486 -8.48876953 70.85314941 C-8.499077 71.85083344 -8.50938446 72.84851746 -8.52000427 73.87643433 C-8.79975029 76.5854263 -9.35108819 78.21593249 -10.79174805 80.50793457 C-13.4680783 82.58952477 -14.90928472 82.50381048 -18.35424805 82.38293457 C-21.79174805 81.50793457 -21.79174805 81.50793457 -23.48233032 79.82466125 C-25.1388965 76.89373174 -25.1723203 74.92539516 -25.17993164 71.56530762 C-25.18938812 70.36693771 -25.1988446 69.16856781 -25.20858765 67.93388367 C-25.20251495 66.64218765 -25.19644226 65.35049164 -25.19018555 64.01965332 C-25.19220808 62.67450299 -25.19512102 61.32935374 -25.19888306 59.98420715 C-25.20330258 57.16559403 -25.19689079 54.3472664 -25.18286133 51.52868652 C-25.16581857 47.93083895 -25.175581 44.33366525 -25.19357872 40.7358427 C-25.20446917 37.95698562 -25.20094545 35.17828567 -25.19319534 32.3994236 C-25.19024245 30.43255295 -25.19929715 28.465676 -25.20858765 26.49882507 C-25.13937311 17.65841918 -24.30764345 11.02382997 -17.79174805 4.50793457 C-11.98124495 0.65119231 -6.85240343 -0.06934522 0 0 Z M116.67970181 265.97659111 C114.46933974 269.77908941 114.65881195 273.1830087 114.70704651 277.51063538 C114.70151211 278.43073566 114.69597772 279.35083594 114.69027561 280.29881805 C114.67663715 283.38906008 114.6916558 286.47849892 114.70654297 289.56872559 C114.70276099 291.78117212 114.69726195 293.99361629 114.69017029 296.20605469 C114.67618353 302.22039053 114.68740783 308.23444134 114.7038815 314.24876142 C114.71770727 320.53477545 114.71127481 326.82077252 114.70774841 333.10679626 C114.70504454 343.6629983 114.71845058 354.21909959 114.74169922 364.77526855 C114.76562599 375.64054581 114.77270137 386.50567281 114.76220703 397.37097168 C114.74958752 410.46004114 114.75208172 423.54903504 114.76786613 436.63810539 C114.77363494 441.64006103 114.77353625 446.6419664 114.76880074 451.64392281 C114.76404012 457.52985149 114.7740947 463.41557134 114.79575539 469.30146027 C114.80133566 471.46586083 114.80177726 473.63028142 114.79680252 475.79468346 C114.79087868 478.74076245 114.80329894 481.68619666 114.8205719 484.63221741 C114.81456185 485.49621377 114.80855181 486.36021013 114.80235964 487.25038821 C114.70140536 491.53412131 114.70140536 491.53412131 116.60702175 495.18742698 C120.32950244 498.25729413 124.24525875 497.65303848 128.84309387 497.64837646 C130.20018834 497.65283315 130.20018834 497.65283315 131.58469886 497.65737987 C134.63476288 497.66609362 137.68478778 497.66757737 140.73486328 497.66906738 C142.91421086 497.67369366 145.09355763 497.67871806 147.27290344 497.68411255 C153.20681548 497.69725684 159.14071619 497.70368545 165.07464051 497.70812321 C168.77900169 497.71105065 172.48335974 497.71515483 176.18771935 497.71962738 C188.43550629 497.73409453 200.6832847 497.74342083 212.93107942 497.74749389 C213.59174802 497.74771666 214.25241661 497.74793943 214.93310547 497.74816895 C215.92531635 497.74850109 215.92531635 497.74850109 216.93757191 497.74883994 C226.98917097 497.75254239 237.04071002 497.76736094 247.09228516 497.78918457 C258.75947441 497.8144322 270.4266165 497.82935981 282.0938341 497.83087039 C288.27167502 497.83192019 294.44942008 497.83786506 300.62723732 497.85569 C306.43760264 497.87212801 312.24779962 497.87434696 318.05817986 497.86555099 C320.19272435 497.86477833 322.32727774 497.8691534 324.46179962 497.87900925 C327.37222179 497.89166124 330.28204165 497.88588864 333.19245911 497.87542725 C334.46425222 497.88751185 334.46425222 497.88751185 335.76173812 497.89984059 C339.19976951 497.87086993 341.93963694 497.5934755 345.23247719 496.54486465 C348.34702793 493.33391055 347.89383012 489.77994677 347.83644104 485.54956055 C347.84353543 484.62214758 347.85062981 483.69473462 347.85793918 482.73921824 C347.87560241 479.61808777 347.85737182 476.49818895 347.83935547 473.3770752 C347.84449109 471.14506969 347.85176966 468.91306822 347.86103821 466.68107605 C347.8796057 460.60878013 347.86657968 454.53692139 347.84694791 448.46464348 C347.8306043 442.1198968 347.83936831 435.77517875 347.84446716 429.43041992 C347.84899292 418.77404781 347.83319228 408.11786901 347.80517578 397.46154785 C347.77633713 386.49239825 347.76925414 375.52349841 347.78466797 364.55432129 C347.8032067 351.3431903 347.80150084 338.13220775 347.78245354 324.92106628 C347.77556802 319.87164732 347.77663088 314.82232115 347.78399849 309.77290344 C347.79164079 303.83029637 347.77960224 297.88805054 347.75214958 291.94550514 C347.74524308 289.76014593 347.74519185 287.57475312 347.75236511 285.38939476 C347.76100679 282.41462497 347.74519342 279.44098364 347.72291565 276.46630859 C347.7352768 275.15761802 347.7352768 275.15761802 347.74788767 273.82248926 C347.69358749 269.36425387 347.69358749 269.36425387 345.73596096 265.4722662 C341.94389212 264.02557597 338.25054701 264.09220714 334.25024414 264.12025452 C332.87727739 264.11217621 332.87727739 264.11217621 331.47657394 264.10393471 C328.40262241 264.08960144 325.32909825 264.0967721 322.25512695 264.10388184 C320.05415499 264.09818112 317.85318599 264.09121803 315.65222168 264.08308411 C309.66886726 264.06510571 303.68565911 264.06632976 297.70228577 264.07202649 C292.71191216 264.07511123 287.72156693 264.06903395 282.73119736 264.06298774 C270.2884877 264.04812478 257.84584325 264.05176904 245.40313673 264.06385105 C234.59399522 264.07378617 223.78502482 264.06083878 212.97590971 264.03691686 C201.87902823 264.01254291 190.78221575 264.00331372 179.68530655 264.00956959 C173.45441661 264.01294684 167.22366811 264.01047297 160.99279785 263.99331856 C155.1355624 263.97789724 149.27865477 263.98175149 143.4214325 264.0006237 C141.26873336 264.00432277 139.1160102 264.00116302 136.96333313 263.99073792 C134.03059278 263.97761665 131.09895194 263.98899671 128.16625977 264.00672913 C127.30906719 263.99712412 126.45187462 263.98751911 125.56870651 263.97762305 C122.00501553 264.0221332 119.79785168 264.16547765 116.67970181 265.97659111 Z " fill="#000000" transform="translate(148.791748046875,-0.5079345703125)"/>
<path d="M0 0 C1.25182571 -0.0127597 2.50365143 -0.02551941 3.79341125 -0.03866577 C5.14767297 -0.04172407 6.50193679 -0.04395148 7.85620117 -0.04541016 C9.26096224 -0.05184649 10.665722 -0.05857546 12.07048035 -0.06558228 C15.0099091 -0.07752717 17.94922058 -0.08126604 20.88867188 -0.08007812 C24.63431797 -0.07987521 28.37920299 -0.10715999 32.12466908 -0.14162254 C35.02539953 -0.16398623 37.92594964 -0.16791278 40.82675743 -0.16685867 C42.20651557 -0.16920108 43.58627972 -0.17794705 44.96595192 -0.19352341 C53.69380173 -0.28282951 61.71906652 -0.16185005 68.45466614 5.99917603 C73.42938834 11.28086759 75.10058744 16.8034141 74.89526367 23.98974609 C74.01073264 30.58454073 70.45469482 34.91987093 65.46557617 39.06396484 C61.05250568 41.94484662 57.21981211 42.54657268 51.99560547 42.58105469 C50.68041428 42.59381439 49.36522308 42.6065741 48.01017761 42.61972046 C46.58124947 42.62277858 45.15231934 42.62500609 43.72338867 42.62646484 C42.24754204 42.6328978 40.77169667 42.63962653 39.29585266 42.64663696 C36.20501756 42.65859477 33.11429409 42.66231941 30.0234375 42.66113281 C26.07926245 42.66092987 22.13580993 42.68821218 18.19180584 42.72267723 C15.14356759 42.74501013 12.09550137 42.74896839 9.04718971 42.74791336 C7.59403815 42.75026048 6.14088121 42.75903356 4.6878109 42.77457809 C-3.24031975 42.85144179 -9.6175655 42.78219118 -16.41333008 38.29052734 C-18.47192383 36.25537109 -18.47192383 36.25537109 -19.85083008 34.22802734 C-20.56045898 33.220625 -20.56045898 33.220625 -21.28442383 32.19287109 C-24.35812777 27.01330771 -24.06330747 21.11077948 -23.41333008 15.29052734 C-21.26346077 9.61932037 -17.31976024 5.69498909 -12.41333008 2.29052734 C-8.15744834 0.59057622 -4.56821317 0.03176173 0 0 Z M-6.28186035 17.6184845 C-7.72590315 19.38677592 -7.72590315 19.38677592 -7.22583008 22.41552734 C-6.95770508 23.36427734 -6.68958008 24.31302734 -6.41333008 25.29052734 C-3.75103486 26.62167495 -1.7073568 26.43231757 1.27392578 26.45166016 C3.06104225 26.46607147 3.06104225 26.46607147 4.88426208 26.48077393 C6.82330162 26.48714874 6.82330162 26.48714874 8.80151367 26.49365234 C10.13668317 26.49940367 11.47185265 26.50516141 12.80702209 26.51092529 C15.60719183 26.52143318 18.40733286 26.52727743 21.20751953 26.53076172 C24.79678365 26.53625036 28.38566915 26.56028658 31.97481441 26.58873367 C34.73288587 26.60734948 37.49086585 26.61256504 40.24899483 26.6140976 C42.21608489 26.61859986 44.18312601 26.63725012 46.15013123 26.65606689 C47.34469437 26.6530658 48.53925751 26.6500647 49.77001953 26.64697266 C50.82321884 26.65061829 51.87641815 26.65426392 52.96153259 26.65802002 C55.61152247 26.49703547 55.61152247 26.49703547 57.45802307 24.92840576 C58.8454451 23.26955769 58.8454451 23.26955769 58.46166992 20.72802734 C57.74277824 17.96436625 57.74277824 17.96436625 54.58666992 16.29052734 C51.91969684 15.97934804 51.91969684 15.97934804 48.87768555 16.01586914 C47.1207135 16.00157112 47.1207135 16.00157112 45.32824707 15.98698425 C43.42976013 15.98835136 43.42976013 15.98835136 41.49291992 15.98974609 C40.19471313 15.98546097 38.89650635 15.98117584 37.55895996 15.97676086 C34.81180741 15.96930179 32.06478339 15.96958791 29.31762695 15.97485352 C25.79673452 15.98065266 22.27636738 15.9637057 18.75556183 15.94050884 C15.39715883 15.92223977 12.0388724 15.92595647 8.68041992 15.92724609 C7.41476196 15.91803635 6.149104 15.9088266 4.84509277 15.89933777 C3.67377808 15.90556656 2.50246338 15.91179535 1.2956543 15.91821289 C0.26323608 15.91758347 -0.76918213 15.91695404 -1.83288574 15.91630554 C-4.43720628 16.09361294 -4.43720628 16.09361294 -6.28186035 17.6184845 Z " fill="#000000" transform="translate(106.413330078125,277.70947265625)"/>
<path d="M0 0 C0.6704837 -0.00832352 1.34096741 -0.01664703 2.0317688 -0.02522278 C4.24422045 -0.04927907 6.45637681 -0.05809058 8.66894531 -0.06469727 C10.2134815 -0.07366896 11.75801682 -0.0827909 13.30255127 -0.09205627 C16.54058948 -0.10853836 19.77852441 -0.11624459 23.01660156 -0.11914062 C27.15037642 -0.12451496 31.28316967 -0.16215764 35.41666794 -0.20788479 C38.60816925 -0.2377465 41.79943715 -0.24486619 44.99106598 -0.24586678 C46.51401501 -0.25005328 48.03696576 -0.26242425 49.55977631 -0.28338432 C65.01031508 -0.47906925 65.01031508 -0.47906925 71.24707031 5.30639648 C76.50487511 10.84092785 77.73227619 16.0637201 77.55175781 23.52514648 C76.97385771 28.80033717 75.21550786 32.49242386 71.30566406 36.09545898 C66.0876112 40.15074132 62.4573761 41.42765477 55.79125977 41.48339844 C55.14042923 41.48996964 54.48959869 41.49654083 53.81904602 41.50331116 C51.66614661 41.52301197 49.51331697 41.53470158 47.36035156 41.54467773 C46.25413484 41.55079103 46.25413484 41.55079103 45.1255703 41.55702782 C41.21953997 41.57787824 37.31354462 41.59218246 33.4074707 41.6015625 C29.38705675 41.61260453 25.36719968 41.64698114 21.346982 41.6867342 C18.24386112 41.71297469 15.14087121 41.72126103 12.03764915 41.72484398 C10.5565739 41.72969345 9.07550386 41.74126046 7.59453773 41.75988197 C-0.40479687 41.85418562 -6.90234221 41.86497766 -13.75292969 37.30639648 C-15.81152344 35.27124023 -15.81152344 35.27124023 -17.19042969 33.24389648 C-17.66351563 32.57229492 -18.13660156 31.90069336 -18.62402344 31.20874023 C-21.56060004 26.26025301 -21.29388673 20.87596833 -20.75292969 15.30639648 C-18.78644134 8.62033612 -14.78145624 4.84764118 -8.98748779 1.19273376 C-5.92824269 -0.02071554 -3.28885866 0.028907 0 0 Z M-4.75292969 18.30639648 C-4.47752264 22.12453096 -4.47752264 22.12453096 -2.75292969 25.30639648 C-0.83091075 25.41610014 1.09515403 25.45550495 3.02026367 25.4675293 C4.25501938 25.47713684 5.48977509 25.48674438 6.76194763 25.49664307 C8.12026791 25.50149017 9.47859032 25.50576921 10.83691406 25.50952148 C12.22074894 25.51527022 13.60458378 25.52102799 14.98841858 25.52679443 C17.89291761 25.53731239 20.79738889 25.54314995 23.7019043 25.54663086 C27.42917293 25.55211976 31.156077 25.57615237 34.88323116 25.60460281 C37.74248842 25.62319816 40.60165729 25.6284331 43.46096992 25.62996674 C44.83534299 25.63300046 46.20971425 25.64105316 47.58402824 25.65415192 C49.50410661 25.67114703 51.42433449 25.66749687 53.34448242 25.6628418 C54.43844833 25.66648743 55.53241425 25.67013306 56.65953064 25.67388916 C57.51341873 25.55261658 58.36730682 25.43134399 59.24707031 25.30639648 C61.51353382 22.55083066 61.51353382 22.55083066 61.12207031 19.74389648 C60.49109952 17.22315992 60.49109952 17.22315992 58.53709412 16.17121887 C55.80286345 15.13864275 53.65428628 15.04560784 50.73168945 15.03173828 C49.62696793 15.02220627 48.5222464 15.01267426 47.38404846 15.00285339 C46.19544724 15.0037648 45.00684601 15.00467621 43.78222656 15.00561523 C41.94403603 14.99918755 41.94403603 14.99918755 40.06871033 14.99263 C37.47720965 14.98688718 34.88569286 14.98638608 32.29418945 14.99072266 C28.32833365 14.99388154 24.36322444 14.97042522 20.39746094 14.94506836 C17.87988375 14.94279528 15.36230456 14.94209191 12.84472656 14.94311523 C11.06486107 14.92930061 11.06486107 14.92930061 9.2490387 14.91520691 C7.58722816 14.92455009 7.58722816 14.92455009 5.8918457 14.93408203 C4.9201796 14.93345261 3.94851349 14.93282318 2.94740295 14.93217468 C-0.2189813 15.37098359 -2.14002526 16.5093806 -4.75292969 18.30639648 Z " fill="#000000" transform="translate(227.7529296875,29.693603515625)"/>
<path d="M0 0 C1.25505341 -0.00953201 2.51010681 -0.01906403 3.80319214 -0.02888489 C5.16062447 -0.0286234 6.51805682 -0.02768608 7.87548828 -0.02612305 C9.28264491 -0.03001548 10.68980037 -0.03435127 12.09695435 -0.03910828 C15.04058649 -0.04655071 17.98409867 -0.04629391 20.92773438 -0.04101562 C24.68232536 -0.03522746 28.43642198 -0.05214532 32.19093132 -0.0753603 C35.0959048 -0.09016138 38.00076102 -0.09096066 40.90576553 -0.08785057 C42.28912458 -0.08836072 43.67249073 -0.0935403 45.05581284 -0.10366249 C61.46480826 -0.20899747 61.46480826 -0.20899747 67.81298828 5.17700195 C68.35181641 5.84860352 68.89064453 6.52020508 69.44580078 7.2121582 C70.00009766 7.88118164 70.55439453 8.55020508 71.12548828 9.23950195 C75.25358513 15.0523086 75.2731104 20.26956995 74.57080078 27.2746582 C72.80980394 33.98427906 68.40112456 37.81477407 62.57080078 41.2746582 C57.37111224 43.00788772 51.98710604 42.87119746 46.57080078 42.2746582 C43.25830078 40.1496582 43.25830078 40.1496582 41.57080078 37.2746582 C40.74829792 33.32664446 41.20042857 31.8493737 43.38330078 28.4621582 C47.91281889 25.35366538 52.1835698 25.37844024 57.57080078 25.2746582 C57.73761187 22.35813646 57.73761187 22.35813646 57.57080078 19.2746582 C54.9174319 16.62128932 53.67940507 17.02156567 49.9753418 17.01586914 C48.21825645 17.00641266 48.21825645 17.00641266 46.42567444 16.99676514 C45.15485519 17.0008136 43.88403595 17.00486206 42.57470703 17.0090332 C41.2750853 17.00711975 39.97546356 17.0052063 38.63645935 17.00323486 C35.88332374 17.00028395 33.13031781 17.00457937 30.37719727 17.01391602 C26.84852785 17.02529948 23.32016304 17.01875814 19.79150486 17.00677109 C16.42754787 16.99780328 13.06367268 17.00408403 9.69970703 17.0090332 C7.79651451 17.00296051 7.79651451 17.00296051 5.85487366 16.99676514 C4.68033127 17.00306946 3.50578888 17.00937378 2.2956543 17.01586914 C1.26021988 17.01746033 0.22478546 17.01905151 -0.84202576 17.02069092 C-3.666749 17.09303133 -3.666749 17.09303133 -6.42919922 19.2746582 C-6.05015714 22.56541817 -6.05015714 22.56541817 -4.42919922 25.2746582 C-2.85334018 25.37132288 -1.27362166 25.40665589 0.30517578 25.4152832 C1.75537109 25.44428711 1.75537109 25.44428711 3.23486328 25.47387695 C5.27633494 25.50747079 7.31811692 25.5259401 9.35986328 25.52856445 C16.82242917 25.7166132 16.82242917 25.7166132 20.73486328 28.6340332 C22.57080078 31.2746582 22.57080078 31.2746582 23.19580078 34.2746582 C22.30926293 38.53003989 21.10733998 39.70457349 17.57080078 42.2746582 C13.45645313 43.00400592 9.4257522 42.92634022 5.25830078 42.8371582 C4.15550781 42.84811523 3.05271484 42.85907227 1.91650391 42.87036133 C-5.85404019 42.80077437 -11.50404708 41.66180686 -17.45263672 36.52856445 C-22.47944062 30.23779541 -24.25722846 25.3784854 -23.42919922 17.2746582 C-22.28378325 11.13931127 -19.32367157 7.72300773 -14.65966797 3.7199707 C-10.00812776 0.70583782 -5.46138909 0.02288564 0 0 Z " fill="#000000" transform="translate(354.42919921875,277.725341796875)"/>
<path d="M0 0 C1.35889844 -0.01653832 2.71771063 -0.04380155 4.07617188 -0.08203125 C6.04088944 -0.13699841 8.00651782 -0.15557123 9.97192383 -0.17333984 C11.14795166 -0.19315918 12.32397949 -0.21297852 13.53564453 -0.23339844 C17.66136268 0.51936638 19.10478167 2.16547186 21.73364258 5.35009766 C23.94837333 9.77955916 22.96355397 15.79864376 22.98364258 20.66259766 C23.00426758 21.89945313 23.02489258 23.13630859 23.04614258 24.41064453 C23.05387695 26.20018555 23.05387695 26.20018555 23.06176758 28.02587891 C23.07578613 29.66423706 23.07578613 29.66423706 23.09008789 31.33569336 C22.6772504 34.8269978 21.89347674 36.58733431 19.73364258 39.35009766 C16.13263964 42.11475567 13.48262559 42.73306157 8.98754883 42.74853516 C7.90280273 42.75240234 6.81805664 42.75626953 5.70043945 42.76025391 C4.57702148 42.74865234 3.45360352 42.73705078 2.29614258 42.72509766 C1.1765918 42.73669922 0.05704102 42.74830078 -1.09643555 42.76025391 C-11.73810023 42.72236074 -11.73810023 42.72236074 -16.26635742 39.35009766 C-20.4637843 33.58724994 -19.78089761 27.78647294 -19.76635742 20.91259766 C-19.7947168 19.69765625 -19.82307617 18.48271484 -19.85229492 17.23095703 C-19.8741093 7.2781474 -19.8741093 7.2781474 -16.86010742 3.56494141 C-11.72956271 -0.81611108 -6.53206884 0.05824474 0 0 Z M-3.26635742 16.35009766 C-3.26635742 19.65009766 -3.26635742 22.95009766 -3.26635742 26.35009766 C0.03364258 26.35009766 3.33364258 26.35009766 6.73364258 26.35009766 C6.73364258 23.05009766 6.73364258 19.75009766 6.73364258 16.35009766 C3.43364258 16.35009766 0.13364258 16.35009766 -3.26635742 16.35009766 Z " fill="#000000" transform="translate(340.266357421875,196.64990234375)"/>
<path d="M0 0 C1.60101563 -0.01740234 1.60101563 -0.01740234 3.234375 -0.03515625 C13.40555601 0.00279592 13.40555601 0.00279592 18 3.375 C20.79166511 7.18851672 21.38364974 9.90391771 21.3984375 14.59375 C21.40423828 16.36298828 21.40423828 16.36298828 21.41015625 18.16796875 C21.39855469 19.39128906 21.38695312 20.61460937 21.375 21.875 C21.38660156 23.09832031 21.39820313 24.32164062 21.41015625 25.58203125 C21.40628906 26.76152344 21.40242188 27.94101562 21.3984375 29.15625 C21.39505371 30.22939453 21.39166992 31.30253906 21.38818359 32.40820312 C20.94514642 35.79423312 20.02758444 37.64773517 18 40.375 C13.23465446 43.55189703 7.80408005 42.78553104 2.23095703 42.80053711 C0.13845341 42.81242358 -1.95108847 42.86159872 -4.04296875 42.91210938 C-5.380194 42.92157584 -6.7174373 42.92880981 -8.0546875 42.93359375 C-9.87202393 42.95377563 -9.87202393 42.95377563 -11.72607422 42.97436523 C-15.90074028 42.21009937 -17.34569753 40.60504071 -20 37.375 C-22.21473075 32.9455385 -21.22991139 26.9264539 -21.25 22.0625 C-21.270625 20.82564453 -21.29125 19.58878906 -21.3125 18.31445312 C-21.31765625 17.12142578 -21.3228125 15.92839844 -21.328125 14.69921875 C-21.3374707 13.60697998 -21.34681641 12.51474121 -21.35644531 11.3894043 C-20.95201803 7.96922369 -20.02935344 6.13150806 -18 3.375 C-12.54228639 -0.63082185 -6.48348292 -0.07047264 0 0 Z M-5 16.375 C-5 20.005 -5 23.635 -5 27.375 C-1.7 27.375 1.6 27.375 5 27.375 C5 23.745 5 20.115 5 16.375 C1.7 16.375 -1.6 16.375 -5 16.375 Z " fill="#000000" transform="translate(218,444.625)"/>
<path d="M0 0 C1.60101563 -0.01740234 1.60101563 -0.01740234 3.234375 -0.03515625 C8.83427419 -0.0142611 13.27174657 0.02582049 18 3.375 C22.46715561 8.04212743 21.48549961 13.69015926 21.44604492 19.79223633 C21.43753896 21.80328902 21.46630173 23.81149366 21.49804688 25.82226562 C21.49740234 27.09650391 21.49675781 28.37074219 21.49609375 29.68359375 C21.49887329 31.42854126 21.49887329 31.42854126 21.50170898 33.20874023 C20.90030737 37.00415507 19.65823209 38.65292323 17 41.375 C12.80552938 43.47223531 7.40287862 42.6838288 2.78857422 42.72509766 C1.43651057 42.74161388 0.08453268 42.76884766 -1.26708984 42.80712891 C-13.93533321 43.16376244 -13.93533321 43.16376244 -17.859375 40.0390625 C-22.26095286 34.5611864 -21.22095136 28.21749833 -21.25 21.5 C-21.270625 20.31535156 -21.29125 19.13070313 -21.3125 17.91015625 C-21.31765625 16.76675781 -21.3228125 15.62335938 -21.328125 14.4453125 C-21.3374707 13.40133301 -21.34681641 12.35735352 -21.35644531 11.28173828 C-20.94515832 7.92777734 -19.98258889 6.08726703 -18 3.375 C-12.54228639 -0.63082185 -6.48348292 -0.07047264 0 0 Z M-5 16.375 C-5 20.005 -5 23.635 -5 27.375 C-1.7 27.375 1.6 27.375 5 27.375 C5 23.745 5 20.115 5 16.375 C1.7 16.375 -1.6 16.375 -5 16.375 Z " fill="#000000" transform="translate(466,444.625)"/>
<path d="M0 0 C4.4364024 4.17383981 6.53893391 9.59557737 7.00390625 15.6640625 C6.69265619 23.06640098 4.15262528 28.36872162 -1.171875 33.42578125 C-7.24188436 37.78627777 -13.902838 37.38050176 -21.0859375 36.80078125 C-26.75561347 34.87714119 -30.14981322 31.2209366 -33.8359375 26.61328125 C-36.39920232 20.84593541 -36.7426562 15.02482225 -34.8984375 8.98828125 C-32.22656673 2.18279876 -28.51707254 -1.04006469 -22.0859375 -4.19921875 C-14.35780191 -6.91450963 -6.37218882 -4.71722105 0 0 Z M-19.0859375 12.80078125 C-20.26205945 14.58749196 -20.26205945 14.58749196 -20.0859375 16.80078125 C-17.73167251 19.572004 -17.73167251 19.572004 -15.0859375 21.80078125 C-11.02569429 19.7627599 -11.02569429 19.7627599 -9.0859375 15.80078125 C-10.7566294 13.04574667 -10.7566294 13.04574667 -13.0859375 10.80078125 C-16.27083757 10.52343115 -16.27083757 10.52343115 -19.0859375 12.80078125 Z " fill="#000000" transform="translate(429.0859375,450.19921875)"/>
<path d="M0 0 C5.19337356 3.54093652 8.78736599 7.87006015 10.75 13.875 C11.65824371 20.94029121 11.05531594 27.06414413 6.75 32.875 C1.76445512 38.10049089 -2.76651777 40.18566714 -9.9375 40.375 C-16.89096891 40.26646511 -21.32793738 38.84042881 -26.25 33.875 C-30.72491072 27.95011821 -31.91532368 22.12097973 -31.25 14.875 C-29.31141624 8.85518727 -26.56319985 3.83226397 -21.0546875 0.578125 C-13.67920291 -2.79748864 -7.58360751 -2.62509491 0 0 Z M-13.4375 15.5625 C-15.5610651 17.73988573 -15.5610651 17.73988573 -15.0625 20.5625 C-14.46073101 22.80851267 -14.46073101 22.80851267 -13.25 23.875 C-10.29182893 24.12505386 -10.29182893 24.12505386 -7.25 23.875 C-5.03103864 22.05028109 -5.03103864 22.05028109 -4.875 19.4375 C-5.0025967 16.74493614 -5.0025967 16.74493614 -7.125 15.0625 C-10.13689169 13.37938406 -10.67625581 13.43239734 -13.4375 15.5625 Z " fill="#000000" transform="translate(176.25,447.125)"/>
<path d="M0 0 C5.23707561 3.15212664 9.17917678 7.36086805 11.5078125 13.05859375 C12.17107657 19.72568974 12.58085292 26.44060696 8.5078125 32.05859375 C3.48276816 37.74482814 -1.13819851 40.62319485 -8.6171875 41.37109375 C-15.33991564 40.82893825 -21.34030544 38.79605863 -25.9921875 33.74609375 C-30.03533299 28.38949704 -31.07269119 22.67633576 -30.4921875 16.05859375 C-28.70077383 8.73898944 -24.75445516 4.23343885 -18.4921875 0.05859375 C-12.74533052 -1.85702524 -5.7125507 -2.15787574 0 0 Z M-13.3671875 16.24609375 C-14.73500615 18.06677197 -14.73500615 18.06677197 -14.3671875 20.62109375 C-13.64829582 23.38475485 -13.64829582 23.38475485 -10.4921875 25.05859375 C-7.53142459 24.6997134 -6.64560729 24.21201354 -4.4921875 22.05859375 C-4.15885417 19.55859375 -4.15885417 19.55859375 -4.4921875 17.05859375 C-6.31422331 14.82892628 -6.31422331 14.82892628 -8.9296875 14.74609375 C-11.49588765 14.87316719 -11.49588765 14.87316719 -13.3671875 16.24609375 Z " fill="#000000" transform="translate(299.4921875,197.94140625)"/>
</svg>
